%TF.GenerationSoftware,KiCad,Pcbnew,10.0.4*%
%TF.CreationDate,2026-08-28T23:37:23+05:30*%
%TF.ProjectId,MSPMO,4d53504d-4f2e-46b6-9963-61645f706362,rev?*%
%TF.SameCoordinates,Original*%
%TF.FileFunction,Legend,Top*%
%TF.FilePolarity,Positive*%
%FSLAX46Y46*%
G04 Gerber Fmt 4.6, Leading zero omitted, Abs format (unit mm)*
G04 Created by KiCad (PCBNEW 10.0.4) date 2026-08-28 23:37:23*
%MOMM*%
%LPD*%
G01*
G04 APERTURE LIST*
%ADD10C,0.300000*%
%ADD11C,0.150000*%
%ADD12C,0.010000*%
%ADD13C,0.120000*%
G04 APERTURE END LIST*
D10*
G36*
X68183488Y-88068161D02*
G01*
X68183488Y-89475000D01*
X67779021Y-89475000D01*
X67781952Y-88470337D01*
X67524948Y-89475000D01*
X67247793Y-89475000D01*
X66981630Y-88470337D01*
X66984560Y-89475000D01*
X66656939Y-89475000D01*
X66656939Y-88068161D01*
X67222606Y-88068161D01*
X67423190Y-88803820D01*
X67614615Y-88068161D01*
X68183488Y-88068161D01*
G37*
G36*
X69637496Y-89475000D02*
G01*
X69193737Y-89475000D01*
X69114786Y-89199494D01*
X68744116Y-89199494D01*
X68660127Y-89475000D01*
X68305578Y-89475000D01*
X68486471Y-88888817D01*
X68818580Y-88888817D01*
X69038307Y-88888817D01*
X68928489Y-88503310D01*
X68818580Y-88888817D01*
X68486471Y-88888817D01*
X68739720Y-88068161D01*
X69198133Y-88068161D01*
X69637496Y-89475000D01*
G37*
G36*
X70446532Y-88077782D02*
G01*
X70567979Y-88104883D01*
X70671123Y-88147622D01*
X70758824Y-88205310D01*
X70833126Y-88278454D01*
X70910552Y-88388421D01*
X70965077Y-88504998D01*
X70997966Y-88629791D01*
X71009164Y-88764894D01*
X71000977Y-88891064D01*
X70977410Y-89003624D01*
X70939423Y-89104547D01*
X70887231Y-89195469D01*
X70820303Y-89277621D01*
X70740856Y-89348225D01*
X70653444Y-89402796D01*
X70556939Y-89442228D01*
X70449754Y-89466567D01*
X70329924Y-89475000D01*
X69759312Y-89475000D01*
X69759312Y-89152599D01*
X70194553Y-89152599D01*
X70303363Y-89152599D01*
X70368189Y-89141639D01*
X70426540Y-89108452D01*
X70480866Y-89048918D01*
X70519359Y-88976242D01*
X70544360Y-88883603D01*
X70553498Y-88765901D01*
X70545855Y-88665209D01*
X70524042Y-88577812D01*
X70489018Y-88501478D01*
X70452115Y-88451740D01*
X70409694Y-88417865D01*
X70360788Y-88397584D01*
X70303363Y-88390561D01*
X70194553Y-88390561D01*
X70194553Y-89152599D01*
X69759312Y-89152599D01*
X69759312Y-88068161D01*
X70303271Y-88068161D01*
X70446532Y-88077782D01*
G37*
G36*
X72243445Y-89135013D02*
G01*
X72243445Y-89475000D01*
X71185202Y-89475000D01*
X71185202Y-88068161D01*
X72243445Y-88068161D01*
X72243445Y-88390561D01*
X71612199Y-88390561D01*
X71612199Y-88589863D01*
X72122545Y-88589863D01*
X72122545Y-88912264D01*
X71612199Y-88912264D01*
X71612199Y-89135013D01*
X72243445Y-89135013D01*
G37*
G36*
X73757233Y-88076468D02*
G01*
X73845843Y-88099205D01*
X73915551Y-88134132D01*
X73969936Y-88180543D01*
X74027406Y-88260089D01*
X74060963Y-88344772D01*
X74072244Y-88436998D01*
X74065556Y-88505288D01*
X74045818Y-88568321D01*
X74012709Y-88627416D01*
X73968136Y-88677623D01*
X73913332Y-88715427D01*
X73846472Y-88741447D01*
X73930449Y-88769957D01*
X73995101Y-88808274D01*
X74043954Y-88855905D01*
X74079159Y-88913706D01*
X74101268Y-88983782D01*
X74109155Y-89069251D01*
X74098333Y-89171044D01*
X74066403Y-89264201D01*
X74012618Y-89350985D01*
X73972602Y-89390239D01*
X73916267Y-89423530D01*
X73839333Y-89450140D01*
X73736368Y-89468223D01*
X73601008Y-89475000D01*
X72932026Y-89475000D01*
X72932026Y-89152599D01*
X73333470Y-89152599D01*
X73539550Y-89152599D01*
X73589302Y-89147804D01*
X73625585Y-89134989D01*
X73651749Y-89115413D01*
X73678628Y-89075262D01*
X73687286Y-89031516D01*
X73678903Y-88987375D01*
X73652757Y-88945695D01*
X73626672Y-88925599D01*
X73586112Y-88911793D01*
X73525262Y-88906402D01*
X73333470Y-88906402D01*
X73333470Y-89152599D01*
X72932026Y-89152599D01*
X72932026Y-88601587D01*
X73333470Y-88601587D01*
X73529292Y-88601587D01*
X73576797Y-88596768D01*
X73609983Y-88584081D01*
X73632698Y-88564859D01*
X73655402Y-88526164D01*
X73662648Y-88486274D01*
X73653963Y-88436939D01*
X73629958Y-88403335D01*
X73588640Y-88381496D01*
X73522148Y-88372976D01*
X73333470Y-88372976D01*
X73333470Y-88601587D01*
X72932026Y-88601587D01*
X72932026Y-88068161D01*
X73645063Y-88068161D01*
X73757233Y-88076468D01*
G37*
G36*
X75431547Y-88068161D02*
G01*
X74992001Y-88880757D01*
X74992001Y-89475000D01*
X74569034Y-89475000D01*
X74569034Y-88880848D01*
X74096515Y-88068161D01*
X74573705Y-88068161D01*
X74816787Y-88525109D01*
X75049704Y-88068161D01*
X75431547Y-88068161D01*
G37*
G36*
X76443078Y-88777442D02*
G01*
X76443078Y-89099842D01*
X75917712Y-89099842D01*
X75917712Y-88777442D01*
X76443078Y-88777442D01*
G37*
G36*
X66236902Y-91995000D02*
G01*
X65793144Y-91995000D01*
X65714192Y-91719494D01*
X65343523Y-91719494D01*
X65259534Y-91995000D01*
X64904985Y-91995000D01*
X65085878Y-91408817D01*
X65417987Y-91408817D01*
X65637714Y-91408817D01*
X65527896Y-91023310D01*
X65417987Y-91408817D01*
X65085878Y-91408817D01*
X65339127Y-90588161D01*
X65797540Y-90588161D01*
X66236902Y-91995000D01*
G37*
G36*
X67045939Y-90597782D02*
G01*
X67167385Y-90624883D01*
X67270530Y-90667622D01*
X67358231Y-90725310D01*
X67432532Y-90798454D01*
X67509959Y-90908421D01*
X67564484Y-91024998D01*
X67597373Y-91149791D01*
X67608570Y-91284894D01*
X67600383Y-91411064D01*
X67576817Y-91523624D01*
X67538830Y-91624547D01*
X67486638Y-91715469D01*
X67419709Y-91797621D01*
X67340263Y-91868225D01*
X67252851Y-91922796D01*
X67156345Y-91962228D01*
X67049160Y-91986567D01*
X66929331Y-91995000D01*
X66358719Y-91995000D01*
X66358719Y-91672599D01*
X66793959Y-91672599D01*
X66902769Y-91672599D01*
X66967596Y-91661639D01*
X67025947Y-91628452D01*
X67080273Y-91568918D01*
X67118765Y-91496242D01*
X67143767Y-91403603D01*
X67152905Y-91285901D01*
X67145262Y-91185209D01*
X67123449Y-91097812D01*
X67088425Y-91021478D01*
X67051521Y-90971740D01*
X67009101Y-90937865D01*
X66960194Y-90917584D01*
X66902769Y-90910561D01*
X66793959Y-90910561D01*
X66793959Y-91672599D01*
X66358719Y-91672599D01*
X66358719Y-90588161D01*
X66902678Y-90588161D01*
X67045939Y-90597782D01*
G37*
G36*
X68219849Y-90588161D02*
G01*
X68219849Y-91995000D01*
X67784608Y-91995000D01*
X67784608Y-90588161D01*
X68219849Y-90588161D01*
G37*
G36*
X69038032Y-90934009D02*
G01*
X69038032Y-91995000D01*
X68625323Y-91995000D01*
X68625323Y-90934009D01*
X68335345Y-90934009D01*
X68335345Y-90588161D01*
X69328009Y-90588161D01*
X69328009Y-90934009D01*
X69038032Y-90934009D01*
G37*
G36*
X70650493Y-90588161D02*
G01*
X70210947Y-91400757D01*
X70210947Y-91995000D01*
X69787980Y-91995000D01*
X69787980Y-91400848D01*
X69315461Y-90588161D01*
X69792651Y-90588161D01*
X70035734Y-91045109D01*
X70268650Y-90588161D01*
X70650493Y-90588161D01*
G37*
G36*
X71925807Y-91995000D02*
G01*
X71482048Y-91995000D01*
X71403097Y-91719494D01*
X71032428Y-91719494D01*
X70948439Y-91995000D01*
X70593889Y-91995000D01*
X70774782Y-91408817D01*
X71106891Y-91408817D01*
X71326618Y-91408817D01*
X71216800Y-91023310D01*
X71106891Y-91408817D01*
X70774782Y-91408817D01*
X71028031Y-90588161D01*
X71486444Y-90588161D01*
X71925807Y-91995000D01*
G37*
G36*
X73170346Y-90588161D02*
G01*
X73170346Y-91474945D01*
X73165383Y-91611980D01*
X73152358Y-91713262D01*
X73133710Y-91786080D01*
X73101941Y-91851906D01*
X73054952Y-91908097D01*
X72990736Y-91955799D01*
X72917106Y-91988790D01*
X72822922Y-92010481D01*
X72703232Y-92018447D01*
X72548234Y-92009100D01*
X72413438Y-91982543D01*
X72413438Y-91642191D01*
X72505642Y-91665462D01*
X72584438Y-91672599D01*
X72643641Y-91667055D01*
X72685086Y-91652512D01*
X72713490Y-91630742D01*
X72732633Y-91600055D01*
X72746215Y-91551413D01*
X72751592Y-91477602D01*
X72751592Y-90588161D01*
X73170346Y-90588161D01*
G37*
G36*
X74122429Y-90572988D02*
G01*
X74226727Y-90596895D01*
X74320816Y-90635676D01*
X74406227Y-90689423D01*
X74484037Y-90759070D01*
X74548918Y-90839569D01*
X74599886Y-90930055D01*
X74637262Y-91031940D01*
X74660615Y-91147073D01*
X74668776Y-91277658D01*
X74660530Y-91412977D01*
X74636934Y-91532413D01*
X74599188Y-91638189D01*
X74547785Y-91732182D01*
X74482480Y-91815847D01*
X74403641Y-91888784D01*
X74317445Y-91944831D01*
X74222843Y-91985122D01*
X74118304Y-92009889D01*
X74001902Y-92018447D01*
X73884311Y-92010052D01*
X73778918Y-91985793D01*
X73683799Y-91946426D01*
X73597411Y-91891840D01*
X73518667Y-91821068D01*
X73453144Y-91739310D01*
X73401627Y-91647301D01*
X73363817Y-91543591D01*
X73340178Y-91426288D01*
X73332618Y-91304494D01*
X73799852Y-91304494D01*
X73808336Y-91449194D01*
X73830219Y-91550214D01*
X73861323Y-91618326D01*
X73899427Y-91662134D01*
X73944715Y-91687375D01*
X73999795Y-91696046D01*
X74050495Y-91689863D01*
X74091774Y-91672323D01*
X74125831Y-91643471D01*
X74153668Y-91601433D01*
X74176598Y-91535032D01*
X74193854Y-91424617D01*
X74200837Y-91252745D01*
X74192758Y-91118371D01*
X74171880Y-91024260D01*
X74142102Y-90960515D01*
X74105436Y-90919271D01*
X74061601Y-90895361D01*
X74008038Y-90887114D01*
X73951043Y-90896233D01*
X73904018Y-90922859D01*
X73864282Y-90969278D01*
X73831727Y-91041765D01*
X73808766Y-91149632D01*
X73799852Y-91304494D01*
X73332618Y-91304494D01*
X73331913Y-91293137D01*
X73339639Y-91166417D01*
X73361931Y-91052446D01*
X73397906Y-90949481D01*
X73447288Y-90856042D01*
X73510424Y-90770976D01*
X73586062Y-90697796D01*
X73671733Y-90640951D01*
X73768842Y-90599551D01*
X73879424Y-90573744D01*
X74006023Y-90564713D01*
X74122429Y-90572988D01*
G37*
G36*
X74700009Y-91586687D02*
G01*
X75104383Y-91513872D01*
X75130797Y-91575367D01*
X75167989Y-91621578D01*
X75216702Y-91655099D01*
X75279513Y-91676517D01*
X75360472Y-91684323D01*
X75441359Y-91676875D01*
X75487633Y-91658908D01*
X75511576Y-91634042D01*
X75519474Y-91601066D01*
X75510367Y-91562355D01*
X75482929Y-91533014D01*
X75438293Y-91512044D01*
X75350672Y-91489050D01*
X75155822Y-91443287D01*
X75020914Y-91395953D01*
X74931834Y-91348815D01*
X74876688Y-91302754D01*
X74830301Y-91241966D01*
X74797750Y-91177183D01*
X74778136Y-91107426D01*
X74771450Y-91031370D01*
X74781095Y-90934265D01*
X74809180Y-90847677D01*
X74855731Y-90769325D01*
X74922483Y-90697704D01*
X75000920Y-90642449D01*
X75096847Y-90601003D01*
X75213868Y-90574323D01*
X75356442Y-90564713D01*
X75480649Y-90572960D01*
X75586756Y-90596261D01*
X75677612Y-90633115D01*
X75755544Y-90682963D01*
X75822241Y-90746213D01*
X75878638Y-90824215D01*
X75924856Y-90919171D01*
X75563712Y-91028439D01*
X75528783Y-90966400D01*
X75481772Y-90923421D01*
X75420695Y-90896748D01*
X75341055Y-90887114D01*
X75272842Y-90894210D01*
X75232674Y-90911680D01*
X75210990Y-90936786D01*
X75203576Y-90971378D01*
X75211301Y-91004732D01*
X75234443Y-91029813D01*
X75273344Y-91047826D01*
X75355892Y-91069380D01*
X75588366Y-91122472D01*
X75713281Y-91160696D01*
X75779459Y-91193504D01*
X75838290Y-91239700D01*
X75890601Y-91300739D01*
X75929767Y-91370579D01*
X75953617Y-91448663D01*
X75961859Y-91537044D01*
X75950820Y-91640363D01*
X75918772Y-91731132D01*
X75865564Y-91812168D01*
X75788752Y-91885182D01*
X75699588Y-91941408D01*
X75596038Y-91982944D01*
X75475528Y-92009175D01*
X75334918Y-92018447D01*
X75185786Y-92008169D01*
X75061602Y-91979430D01*
X74958131Y-91934417D01*
X74871975Y-91873938D01*
X74800771Y-91797366D01*
X74743386Y-91702691D01*
X74700009Y-91586687D01*
G37*
G36*
X77312552Y-90588161D02*
G01*
X77312552Y-91995000D01*
X76877403Y-91995000D01*
X76877403Y-91449849D01*
X76555369Y-91449849D01*
X76555369Y-91995000D01*
X76120128Y-91995000D01*
X76120128Y-90588161D01*
X76555369Y-90588161D01*
X76555369Y-91104002D01*
X76877403Y-91104002D01*
X76877403Y-90588161D01*
X77312552Y-90588161D01*
G37*
G36*
X77985655Y-90588161D02*
G01*
X77985655Y-91995000D01*
X77550414Y-91995000D01*
X77550414Y-90588161D01*
X77985655Y-90588161D01*
G37*
G36*
X67543034Y-66287328D02*
G01*
X67768257Y-67057334D01*
X67869648Y-67395671D01*
X67960873Y-67702318D01*
X67974337Y-67745000D01*
X67345106Y-67745000D01*
X67149467Y-67027475D01*
X66727507Y-67659270D01*
X66294098Y-67055410D01*
X66233165Y-67284280D01*
X66159460Y-67591493D01*
X66132897Y-67702400D01*
X66120442Y-67738588D01*
X66103046Y-67756000D01*
X66070525Y-67762585D01*
X66041529Y-67758151D01*
X66027259Y-67747407D01*
X66022531Y-67730345D01*
X66051290Y-67626389D01*
X66114855Y-67407944D01*
X66225497Y-67030589D01*
X66443483Y-66287511D01*
X67006036Y-67101755D01*
X67543034Y-66287328D01*
G37*
G36*
X68098626Y-67498803D02*
G01*
X68117750Y-67504812D01*
X68143780Y-67527929D01*
X68198034Y-67580473D01*
X68260116Y-67625907D01*
X68330809Y-67664399D01*
X68405867Y-67693387D01*
X68478478Y-67710198D01*
X68549437Y-67715690D01*
X68607503Y-67709666D01*
X68641674Y-67694841D01*
X68660102Y-67673555D01*
X68666399Y-67644249D01*
X68657151Y-67598027D01*
X68624633Y-67539378D01*
X68567153Y-67468294D01*
X68424323Y-67310675D01*
X68243956Y-67106768D01*
X68157610Y-66991388D01*
X68106434Y-66895684D01*
X68077969Y-66808043D01*
X68068950Y-66726415D01*
X68079458Y-66636007D01*
X68110249Y-66555555D01*
X68162106Y-66482537D01*
X68238210Y-66415555D01*
X68323407Y-66364952D01*
X68418701Y-66328063D01*
X68525783Y-66305121D01*
X68646707Y-66297128D01*
X68758271Y-66304912D01*
X68861745Y-66327728D01*
X68958483Y-66365272D01*
X69009255Y-66394471D01*
X69051173Y-66426912D01*
X69082435Y-66462435D01*
X69090282Y-66486538D01*
X69078558Y-66509436D01*
X69054562Y-66519877D01*
X69035265Y-66513676D01*
X69001347Y-66487363D01*
X68939921Y-66441351D01*
X68856725Y-66401542D01*
X68767242Y-66375669D01*
X68684625Y-66367470D01*
X68637624Y-66373268D01*
X68603018Y-66389085D01*
X68579341Y-66414082D01*
X68571785Y-66444223D01*
X68580274Y-66486646D01*
X68611444Y-66546256D01*
X68659620Y-66610280D01*
X68746266Y-66706998D01*
X69014991Y-67006191D01*
X69115470Y-67139949D01*
X69156284Y-67221269D01*
X69179276Y-67297133D01*
X69186636Y-67369018D01*
X69181051Y-67430348D01*
X69164331Y-67489304D01*
X69135986Y-67546796D01*
X69098300Y-67598771D01*
X69051797Y-67644413D01*
X68995577Y-67684091D01*
X68908880Y-67727327D01*
X68811670Y-67759162D01*
X68702360Y-67779078D01*
X68579112Y-67786032D01*
X68467133Y-67778341D01*
X68364372Y-67755908D01*
X68269380Y-67719190D01*
X68180966Y-67667971D01*
X68102798Y-67606436D01*
X68068490Y-67565021D01*
X68059791Y-67536813D01*
X68071423Y-67510526D01*
X68084143Y-67501689D01*
X68098626Y-67498803D01*
G37*
G36*
X70102912Y-66345376D02*
G01*
X70268784Y-66362890D01*
X70366076Y-66384717D01*
X70448504Y-66414489D01*
X70518095Y-66451459D01*
X70601430Y-66515549D01*
X70671225Y-66594381D01*
X70728297Y-66689687D01*
X70759842Y-66768934D01*
X70778614Y-66850096D01*
X70784900Y-66934052D01*
X70777825Y-67024692D01*
X70756676Y-67112341D01*
X70721061Y-67198018D01*
X70662539Y-67291552D01*
X70590940Y-67368152D01*
X70505273Y-67429560D01*
X70409326Y-67473867D01*
X70302490Y-67501098D01*
X70182506Y-67510526D01*
X70107990Y-67506900D01*
X69991813Y-67493582D01*
X69991813Y-67518953D01*
X69992821Y-67716331D01*
X69992821Y-67745000D01*
X69361850Y-67745000D01*
X69362949Y-67679420D01*
X69366599Y-67165961D01*
X69988699Y-67165961D01*
X69990714Y-67419302D01*
X70075454Y-67434309D01*
X70197893Y-67440184D01*
X70273662Y-67435033D01*
X70346086Y-67419750D01*
X70415880Y-67394297D01*
X70481362Y-67359229D01*
X70539259Y-67316119D01*
X70590269Y-67264604D01*
X70643580Y-67190297D01*
X70681102Y-67111390D01*
X70703734Y-67026769D01*
X70711444Y-66934968D01*
X70703970Y-66848041D01*
X70681790Y-66765925D01*
X70644593Y-66687363D01*
X70591185Y-66611377D01*
X70529184Y-66549405D01*
X70455977Y-66499524D01*
X70369993Y-66461351D01*
X70278294Y-66436716D01*
X70163305Y-66420358D01*
X70020573Y-66414364D01*
X69992821Y-66414364D01*
X69992821Y-66480218D01*
X69988699Y-67165961D01*
X69366599Y-67165961D01*
X69368078Y-66957957D01*
X69363956Y-66615132D01*
X69362949Y-66382124D01*
X69361850Y-66338161D01*
X69833177Y-66338161D01*
X70102912Y-66345376D01*
G37*
G36*
X72384904Y-66287328D02*
G01*
X72610127Y-67057334D01*
X72711518Y-67395671D01*
X72802743Y-67702318D01*
X72816207Y-67745000D01*
X72186976Y-67745000D01*
X71991338Y-67027475D01*
X71569378Y-67659270D01*
X71135969Y-67055410D01*
X71075036Y-67284280D01*
X71001330Y-67591493D01*
X70974767Y-67702400D01*
X70962312Y-67738588D01*
X70944917Y-67756000D01*
X70912395Y-67762585D01*
X70883399Y-67758151D01*
X70869129Y-67747407D01*
X70864401Y-67730345D01*
X70893161Y-67626389D01*
X70956725Y-67407944D01*
X71067367Y-67030589D01*
X71285354Y-66287511D01*
X71847906Y-67101755D01*
X72384904Y-66287328D01*
G37*
G36*
X73635561Y-66317541D02*
G01*
X73729699Y-66342969D01*
X73816789Y-66385008D01*
X73898144Y-66444622D01*
X73974559Y-66523816D01*
X74034857Y-66609278D01*
X74082329Y-66703903D01*
X74117110Y-66808935D01*
X74138764Y-66925928D01*
X74146292Y-67056693D01*
X74137541Y-67190882D01*
X74112316Y-67310942D01*
X74071593Y-67418926D01*
X74015558Y-67516536D01*
X73943601Y-67605048D01*
X73870934Y-67671403D01*
X73794380Y-67721657D01*
X73713226Y-67757207D01*
X73626422Y-67778708D01*
X73532632Y-67786032D01*
X73424974Y-67776782D01*
X73322184Y-67749211D01*
X73222780Y-67702776D01*
X73141764Y-67647062D01*
X73071274Y-67580618D01*
X73010542Y-67502670D01*
X72959272Y-67411974D01*
X72920553Y-67308857D01*
X72895989Y-67188387D01*
X72887281Y-67047442D01*
X72887530Y-67043504D01*
X73510009Y-67043504D01*
X73514131Y-67592042D01*
X73515138Y-67709829D01*
X73607319Y-67703369D01*
X73691453Y-67682531D01*
X73769055Y-67647583D01*
X73841294Y-67597904D01*
X73909901Y-67530583D01*
X73967031Y-67452731D01*
X74013119Y-67363156D01*
X74045739Y-67267366D01*
X74065881Y-67162307D01*
X74072836Y-67046526D01*
X74065627Y-66920734D01*
X74045092Y-66810587D01*
X74012450Y-66713946D01*
X73968328Y-66628979D01*
X73912735Y-66554224D01*
X73835225Y-66481260D01*
X73746589Y-66425997D01*
X73650959Y-66390517D01*
X73559377Y-66379193D01*
X73515138Y-66381025D01*
X73510009Y-67043504D01*
X72887530Y-67043504D01*
X72896024Y-66908962D01*
X72921018Y-66787192D01*
X72960989Y-66679718D01*
X73015474Y-66584528D01*
X73084843Y-66500094D01*
X73146413Y-66444284D01*
X73214293Y-66397632D01*
X73289091Y-66359776D01*
X73368247Y-66331890D01*
X73449202Y-66314968D01*
X73532632Y-66308852D01*
X73635561Y-66317541D01*
G37*
D11*
X84357142Y-72609580D02*
X84309523Y-72657200D01*
X84309523Y-72657200D02*
X84166666Y-72704819D01*
X84166666Y-72704819D02*
X84071428Y-72704819D01*
X84071428Y-72704819D02*
X83928571Y-72657200D01*
X83928571Y-72657200D02*
X83833333Y-72561961D01*
X83833333Y-72561961D02*
X83785714Y-72466723D01*
X83785714Y-72466723D02*
X83738095Y-72276247D01*
X83738095Y-72276247D02*
X83738095Y-72133390D01*
X83738095Y-72133390D02*
X83785714Y-71942914D01*
X83785714Y-71942914D02*
X83833333Y-71847676D01*
X83833333Y-71847676D02*
X83928571Y-71752438D01*
X83928571Y-71752438D02*
X84071428Y-71704819D01*
X84071428Y-71704819D02*
X84166666Y-71704819D01*
X84166666Y-71704819D02*
X84309523Y-71752438D01*
X84309523Y-71752438D02*
X84357142Y-71800057D01*
X85309523Y-72704819D02*
X84738095Y-72704819D01*
X85023809Y-72704819D02*
X85023809Y-71704819D01*
X85023809Y-71704819D02*
X84928571Y-71847676D01*
X84928571Y-71847676D02*
X84833333Y-71942914D01*
X84833333Y-71942914D02*
X84738095Y-71990533D01*
X85690476Y-71800057D02*
X85738095Y-71752438D01*
X85738095Y-71752438D02*
X85833333Y-71704819D01*
X85833333Y-71704819D02*
X86071428Y-71704819D01*
X86071428Y-71704819D02*
X86166666Y-71752438D01*
X86166666Y-71752438D02*
X86214285Y-71800057D01*
X86214285Y-71800057D02*
X86261904Y-71895295D01*
X86261904Y-71895295D02*
X86261904Y-71990533D01*
X86261904Y-71990533D02*
X86214285Y-72133390D01*
X86214285Y-72133390D02*
X85642857Y-72704819D01*
X85642857Y-72704819D02*
X86261904Y-72704819D01*
X70359580Y-70666666D02*
X70407200Y-70714285D01*
X70407200Y-70714285D02*
X70454819Y-70857142D01*
X70454819Y-70857142D02*
X70454819Y-70952380D01*
X70454819Y-70952380D02*
X70407200Y-71095237D01*
X70407200Y-71095237D02*
X70311961Y-71190475D01*
X70311961Y-71190475D02*
X70216723Y-71238094D01*
X70216723Y-71238094D02*
X70026247Y-71285713D01*
X70026247Y-71285713D02*
X69883390Y-71285713D01*
X69883390Y-71285713D02*
X69692914Y-71238094D01*
X69692914Y-71238094D02*
X69597676Y-71190475D01*
X69597676Y-71190475D02*
X69502438Y-71095237D01*
X69502438Y-71095237D02*
X69454819Y-70952380D01*
X69454819Y-70952380D02*
X69454819Y-70857142D01*
X69454819Y-70857142D02*
X69502438Y-70714285D01*
X69502438Y-70714285D02*
X69550057Y-70666666D01*
X69454819Y-70333332D02*
X69454819Y-69714285D01*
X69454819Y-69714285D02*
X69835771Y-70047618D01*
X69835771Y-70047618D02*
X69835771Y-69904761D01*
X69835771Y-69904761D02*
X69883390Y-69809523D01*
X69883390Y-69809523D02*
X69931009Y-69761904D01*
X69931009Y-69761904D02*
X70026247Y-69714285D01*
X70026247Y-69714285D02*
X70264342Y-69714285D01*
X70264342Y-69714285D02*
X70359580Y-69761904D01*
X70359580Y-69761904D02*
X70407200Y-69809523D01*
X70407200Y-69809523D02*
X70454819Y-69904761D01*
X70454819Y-69904761D02*
X70454819Y-70190475D01*
X70454819Y-70190475D02*
X70407200Y-70285713D01*
X70407200Y-70285713D02*
X70359580Y-70333332D01*
X76679580Y-87166666D02*
X76727200Y-87214285D01*
X76727200Y-87214285D02*
X76774819Y-87357142D01*
X76774819Y-87357142D02*
X76774819Y-87452380D01*
X76774819Y-87452380D02*
X76727200Y-87595237D01*
X76727200Y-87595237D02*
X76631961Y-87690475D01*
X76631961Y-87690475D02*
X76536723Y-87738094D01*
X76536723Y-87738094D02*
X76346247Y-87785713D01*
X76346247Y-87785713D02*
X76203390Y-87785713D01*
X76203390Y-87785713D02*
X76012914Y-87738094D01*
X76012914Y-87738094D02*
X75917676Y-87690475D01*
X75917676Y-87690475D02*
X75822438Y-87595237D01*
X75822438Y-87595237D02*
X75774819Y-87452380D01*
X75774819Y-87452380D02*
X75774819Y-87357142D01*
X75774819Y-87357142D02*
X75822438Y-87214285D01*
X75822438Y-87214285D02*
X75870057Y-87166666D01*
X76203390Y-86595237D02*
X76155771Y-86690475D01*
X76155771Y-86690475D02*
X76108152Y-86738094D01*
X76108152Y-86738094D02*
X76012914Y-86785713D01*
X76012914Y-86785713D02*
X75965295Y-86785713D01*
X75965295Y-86785713D02*
X75870057Y-86738094D01*
X75870057Y-86738094D02*
X75822438Y-86690475D01*
X75822438Y-86690475D02*
X75774819Y-86595237D01*
X75774819Y-86595237D02*
X75774819Y-86404761D01*
X75774819Y-86404761D02*
X75822438Y-86309523D01*
X75822438Y-86309523D02*
X75870057Y-86261904D01*
X75870057Y-86261904D02*
X75965295Y-86214285D01*
X75965295Y-86214285D02*
X76012914Y-86214285D01*
X76012914Y-86214285D02*
X76108152Y-86261904D01*
X76108152Y-86261904D02*
X76155771Y-86309523D01*
X76155771Y-86309523D02*
X76203390Y-86404761D01*
X76203390Y-86404761D02*
X76203390Y-86595237D01*
X76203390Y-86595237D02*
X76251009Y-86690475D01*
X76251009Y-86690475D02*
X76298628Y-86738094D01*
X76298628Y-86738094D02*
X76393866Y-86785713D01*
X76393866Y-86785713D02*
X76584342Y-86785713D01*
X76584342Y-86785713D02*
X76679580Y-86738094D01*
X76679580Y-86738094D02*
X76727200Y-86690475D01*
X76727200Y-86690475D02*
X76774819Y-86595237D01*
X76774819Y-86595237D02*
X76774819Y-86404761D01*
X76774819Y-86404761D02*
X76727200Y-86309523D01*
X76727200Y-86309523D02*
X76679580Y-86261904D01*
X76679580Y-86261904D02*
X76584342Y-86214285D01*
X76584342Y-86214285D02*
X76393866Y-86214285D01*
X76393866Y-86214285D02*
X76298628Y-86261904D01*
X76298628Y-86261904D02*
X76251009Y-86309523D01*
X76251009Y-86309523D02*
X76203390Y-86404761D01*
X91333333Y-72704819D02*
X91000000Y-72228628D01*
X90761905Y-72704819D02*
X90761905Y-71704819D01*
X90761905Y-71704819D02*
X91142857Y-71704819D01*
X91142857Y-71704819D02*
X91238095Y-71752438D01*
X91238095Y-71752438D02*
X91285714Y-71800057D01*
X91285714Y-71800057D02*
X91333333Y-71895295D01*
X91333333Y-71895295D02*
X91333333Y-72038152D01*
X91333333Y-72038152D02*
X91285714Y-72133390D01*
X91285714Y-72133390D02*
X91238095Y-72181009D01*
X91238095Y-72181009D02*
X91142857Y-72228628D01*
X91142857Y-72228628D02*
X90761905Y-72228628D01*
X92238095Y-71704819D02*
X91761905Y-71704819D01*
X91761905Y-71704819D02*
X91714286Y-72181009D01*
X91714286Y-72181009D02*
X91761905Y-72133390D01*
X91761905Y-72133390D02*
X91857143Y-72085771D01*
X91857143Y-72085771D02*
X92095238Y-72085771D01*
X92095238Y-72085771D02*
X92190476Y-72133390D01*
X92190476Y-72133390D02*
X92238095Y-72181009D01*
X92238095Y-72181009D02*
X92285714Y-72276247D01*
X92285714Y-72276247D02*
X92285714Y-72514342D01*
X92285714Y-72514342D02*
X92238095Y-72609580D01*
X92238095Y-72609580D02*
X92190476Y-72657200D01*
X92190476Y-72657200D02*
X92095238Y-72704819D01*
X92095238Y-72704819D02*
X91857143Y-72704819D01*
X91857143Y-72704819D02*
X91761905Y-72657200D01*
X91761905Y-72657200D02*
X91714286Y-72609580D01*
X80859580Y-80142857D02*
X80907200Y-80190476D01*
X80907200Y-80190476D02*
X80954819Y-80333333D01*
X80954819Y-80333333D02*
X80954819Y-80428571D01*
X80954819Y-80428571D02*
X80907200Y-80571428D01*
X80907200Y-80571428D02*
X80811961Y-80666666D01*
X80811961Y-80666666D02*
X80716723Y-80714285D01*
X80716723Y-80714285D02*
X80526247Y-80761904D01*
X80526247Y-80761904D02*
X80383390Y-80761904D01*
X80383390Y-80761904D02*
X80192914Y-80714285D01*
X80192914Y-80714285D02*
X80097676Y-80666666D01*
X80097676Y-80666666D02*
X80002438Y-80571428D01*
X80002438Y-80571428D02*
X79954819Y-80428571D01*
X79954819Y-80428571D02*
X79954819Y-80333333D01*
X79954819Y-80333333D02*
X80002438Y-80190476D01*
X80002438Y-80190476D02*
X80050057Y-80142857D01*
X80954819Y-79190476D02*
X80954819Y-79761904D01*
X80954819Y-79476190D02*
X79954819Y-79476190D01*
X79954819Y-79476190D02*
X80097676Y-79571428D01*
X80097676Y-79571428D02*
X80192914Y-79666666D01*
X80192914Y-79666666D02*
X80240533Y-79761904D01*
X80954819Y-78238095D02*
X80954819Y-78809523D01*
X80954819Y-78523809D02*
X79954819Y-78523809D01*
X79954819Y-78523809D02*
X80097676Y-78619047D01*
X80097676Y-78619047D02*
X80192914Y-78714285D01*
X80192914Y-78714285D02*
X80240533Y-78809523D01*
X86583333Y-86274819D02*
X86250000Y-85798628D01*
X86011905Y-86274819D02*
X86011905Y-85274819D01*
X86011905Y-85274819D02*
X86392857Y-85274819D01*
X86392857Y-85274819D02*
X86488095Y-85322438D01*
X86488095Y-85322438D02*
X86535714Y-85370057D01*
X86535714Y-85370057D02*
X86583333Y-85465295D01*
X86583333Y-85465295D02*
X86583333Y-85608152D01*
X86583333Y-85608152D02*
X86535714Y-85703390D01*
X86535714Y-85703390D02*
X86488095Y-85751009D01*
X86488095Y-85751009D02*
X86392857Y-85798628D01*
X86392857Y-85798628D02*
X86011905Y-85798628D01*
X86916667Y-85274819D02*
X87583333Y-85274819D01*
X87583333Y-85274819D02*
X87154762Y-86274819D01*
X84609580Y-89416666D02*
X84657200Y-89464285D01*
X84657200Y-89464285D02*
X84704819Y-89607142D01*
X84704819Y-89607142D02*
X84704819Y-89702380D01*
X84704819Y-89702380D02*
X84657200Y-89845237D01*
X84657200Y-89845237D02*
X84561961Y-89940475D01*
X84561961Y-89940475D02*
X84466723Y-89988094D01*
X84466723Y-89988094D02*
X84276247Y-90035713D01*
X84276247Y-90035713D02*
X84133390Y-90035713D01*
X84133390Y-90035713D02*
X83942914Y-89988094D01*
X83942914Y-89988094D02*
X83847676Y-89940475D01*
X83847676Y-89940475D02*
X83752438Y-89845237D01*
X83752438Y-89845237D02*
X83704819Y-89702380D01*
X83704819Y-89702380D02*
X83704819Y-89607142D01*
X83704819Y-89607142D02*
X83752438Y-89464285D01*
X83752438Y-89464285D02*
X83800057Y-89416666D01*
X84704819Y-88940475D02*
X84704819Y-88749999D01*
X84704819Y-88749999D02*
X84657200Y-88654761D01*
X84657200Y-88654761D02*
X84609580Y-88607142D01*
X84609580Y-88607142D02*
X84466723Y-88511904D01*
X84466723Y-88511904D02*
X84276247Y-88464285D01*
X84276247Y-88464285D02*
X83895295Y-88464285D01*
X83895295Y-88464285D02*
X83800057Y-88511904D01*
X83800057Y-88511904D02*
X83752438Y-88559523D01*
X83752438Y-88559523D02*
X83704819Y-88654761D01*
X83704819Y-88654761D02*
X83704819Y-88845237D01*
X83704819Y-88845237D02*
X83752438Y-88940475D01*
X83752438Y-88940475D02*
X83800057Y-88988094D01*
X83800057Y-88988094D02*
X83895295Y-89035713D01*
X83895295Y-89035713D02*
X84133390Y-89035713D01*
X84133390Y-89035713D02*
X84228628Y-88988094D01*
X84228628Y-88988094D02*
X84276247Y-88940475D01*
X84276247Y-88940475D02*
X84323866Y-88845237D01*
X84323866Y-88845237D02*
X84323866Y-88654761D01*
X84323866Y-88654761D02*
X84276247Y-88559523D01*
X84276247Y-88559523D02*
X84228628Y-88511904D01*
X84228628Y-88511904D02*
X84133390Y-88464285D01*
X105666666Y-82204819D02*
X105666666Y-82919104D01*
X105666666Y-82919104D02*
X105619047Y-83061961D01*
X105619047Y-83061961D02*
X105523809Y-83157200D01*
X105523809Y-83157200D02*
X105380952Y-83204819D01*
X105380952Y-83204819D02*
X105285714Y-83204819D01*
X106095238Y-82300057D02*
X106142857Y-82252438D01*
X106142857Y-82252438D02*
X106238095Y-82204819D01*
X106238095Y-82204819D02*
X106476190Y-82204819D01*
X106476190Y-82204819D02*
X106571428Y-82252438D01*
X106571428Y-82252438D02*
X106619047Y-82300057D01*
X106619047Y-82300057D02*
X106666666Y-82395295D01*
X106666666Y-82395295D02*
X106666666Y-82490533D01*
X106666666Y-82490533D02*
X106619047Y-82633390D01*
X106619047Y-82633390D02*
X106047619Y-83204819D01*
X106047619Y-83204819D02*
X106666666Y-83204819D01*
X89583333Y-86204819D02*
X89250000Y-85728628D01*
X89011905Y-86204819D02*
X89011905Y-85204819D01*
X89011905Y-85204819D02*
X89392857Y-85204819D01*
X89392857Y-85204819D02*
X89488095Y-85252438D01*
X89488095Y-85252438D02*
X89535714Y-85300057D01*
X89535714Y-85300057D02*
X89583333Y-85395295D01*
X89583333Y-85395295D02*
X89583333Y-85538152D01*
X89583333Y-85538152D02*
X89535714Y-85633390D01*
X89535714Y-85633390D02*
X89488095Y-85681009D01*
X89488095Y-85681009D02*
X89392857Y-85728628D01*
X89392857Y-85728628D02*
X89011905Y-85728628D01*
X90440476Y-85204819D02*
X90250000Y-85204819D01*
X90250000Y-85204819D02*
X90154762Y-85252438D01*
X90154762Y-85252438D02*
X90107143Y-85300057D01*
X90107143Y-85300057D02*
X90011905Y-85442914D01*
X90011905Y-85442914D02*
X89964286Y-85633390D01*
X89964286Y-85633390D02*
X89964286Y-86014342D01*
X89964286Y-86014342D02*
X90011905Y-86109580D01*
X90011905Y-86109580D02*
X90059524Y-86157200D01*
X90059524Y-86157200D02*
X90154762Y-86204819D01*
X90154762Y-86204819D02*
X90345238Y-86204819D01*
X90345238Y-86204819D02*
X90440476Y-86157200D01*
X90440476Y-86157200D02*
X90488095Y-86109580D01*
X90488095Y-86109580D02*
X90535714Y-86014342D01*
X90535714Y-86014342D02*
X90535714Y-85776247D01*
X90535714Y-85776247D02*
X90488095Y-85681009D01*
X90488095Y-85681009D02*
X90440476Y-85633390D01*
X90440476Y-85633390D02*
X90345238Y-85585771D01*
X90345238Y-85585771D02*
X90154762Y-85585771D01*
X90154762Y-85585771D02*
X90059524Y-85633390D01*
X90059524Y-85633390D02*
X90011905Y-85681009D01*
X90011905Y-85681009D02*
X89964286Y-85776247D01*
X79008333Y-77359580D02*
X78960714Y-77407200D01*
X78960714Y-77407200D02*
X78817857Y-77454819D01*
X78817857Y-77454819D02*
X78722619Y-77454819D01*
X78722619Y-77454819D02*
X78579762Y-77407200D01*
X78579762Y-77407200D02*
X78484524Y-77311961D01*
X78484524Y-77311961D02*
X78436905Y-77216723D01*
X78436905Y-77216723D02*
X78389286Y-77026247D01*
X78389286Y-77026247D02*
X78389286Y-76883390D01*
X78389286Y-76883390D02*
X78436905Y-76692914D01*
X78436905Y-76692914D02*
X78484524Y-76597676D01*
X78484524Y-76597676D02*
X78579762Y-76502438D01*
X78579762Y-76502438D02*
X78722619Y-76454819D01*
X78722619Y-76454819D02*
X78817857Y-76454819D01*
X78817857Y-76454819D02*
X78960714Y-76502438D01*
X78960714Y-76502438D02*
X79008333Y-76550057D01*
X79341667Y-76454819D02*
X80008333Y-76454819D01*
X80008333Y-76454819D02*
X79579762Y-77454819D01*
X81333333Y-83804819D02*
X81000000Y-83328628D01*
X80761905Y-83804819D02*
X80761905Y-82804819D01*
X80761905Y-82804819D02*
X81142857Y-82804819D01*
X81142857Y-82804819D02*
X81238095Y-82852438D01*
X81238095Y-82852438D02*
X81285714Y-82900057D01*
X81285714Y-82900057D02*
X81333333Y-82995295D01*
X81333333Y-82995295D02*
X81333333Y-83138152D01*
X81333333Y-83138152D02*
X81285714Y-83233390D01*
X81285714Y-83233390D02*
X81238095Y-83281009D01*
X81238095Y-83281009D02*
X81142857Y-83328628D01*
X81142857Y-83328628D02*
X80761905Y-83328628D01*
X82190476Y-83138152D02*
X82190476Y-83804819D01*
X81952381Y-82757200D02*
X81714286Y-83471485D01*
X81714286Y-83471485D02*
X82333333Y-83471485D01*
X69284580Y-74416666D02*
X69332200Y-74464285D01*
X69332200Y-74464285D02*
X69379819Y-74607142D01*
X69379819Y-74607142D02*
X69379819Y-74702380D01*
X69379819Y-74702380D02*
X69332200Y-74845237D01*
X69332200Y-74845237D02*
X69236961Y-74940475D01*
X69236961Y-74940475D02*
X69141723Y-74988094D01*
X69141723Y-74988094D02*
X68951247Y-75035713D01*
X68951247Y-75035713D02*
X68808390Y-75035713D01*
X68808390Y-75035713D02*
X68617914Y-74988094D01*
X68617914Y-74988094D02*
X68522676Y-74940475D01*
X68522676Y-74940475D02*
X68427438Y-74845237D01*
X68427438Y-74845237D02*
X68379819Y-74702380D01*
X68379819Y-74702380D02*
X68379819Y-74607142D01*
X68379819Y-74607142D02*
X68427438Y-74464285D01*
X68427438Y-74464285D02*
X68475057Y-74416666D01*
X68475057Y-74035713D02*
X68427438Y-73988094D01*
X68427438Y-73988094D02*
X68379819Y-73892856D01*
X68379819Y-73892856D02*
X68379819Y-73654761D01*
X68379819Y-73654761D02*
X68427438Y-73559523D01*
X68427438Y-73559523D02*
X68475057Y-73511904D01*
X68475057Y-73511904D02*
X68570295Y-73464285D01*
X68570295Y-73464285D02*
X68665533Y-73464285D01*
X68665533Y-73464285D02*
X68808390Y-73511904D01*
X68808390Y-73511904D02*
X69379819Y-74083332D01*
X69379819Y-74083332D02*
X69379819Y-73464285D01*
X69258333Y-76704819D02*
X68925000Y-76228628D01*
X68686905Y-76704819D02*
X68686905Y-75704819D01*
X68686905Y-75704819D02*
X69067857Y-75704819D01*
X69067857Y-75704819D02*
X69163095Y-75752438D01*
X69163095Y-75752438D02*
X69210714Y-75800057D01*
X69210714Y-75800057D02*
X69258333Y-75895295D01*
X69258333Y-75895295D02*
X69258333Y-76038152D01*
X69258333Y-76038152D02*
X69210714Y-76133390D01*
X69210714Y-76133390D02*
X69163095Y-76181009D01*
X69163095Y-76181009D02*
X69067857Y-76228628D01*
X69067857Y-76228628D02*
X68686905Y-76228628D01*
X70210714Y-76704819D02*
X69639286Y-76704819D01*
X69925000Y-76704819D02*
X69925000Y-75704819D01*
X69925000Y-75704819D02*
X69829762Y-75847676D01*
X69829762Y-75847676D02*
X69734524Y-75942914D01*
X69734524Y-75942914D02*
X69639286Y-75990533D01*
X80039580Y-70666666D02*
X80087200Y-70714285D01*
X80087200Y-70714285D02*
X80134819Y-70857142D01*
X80134819Y-70857142D02*
X80134819Y-70952380D01*
X80134819Y-70952380D02*
X80087200Y-71095237D01*
X80087200Y-71095237D02*
X79991961Y-71190475D01*
X79991961Y-71190475D02*
X79896723Y-71238094D01*
X79896723Y-71238094D02*
X79706247Y-71285713D01*
X79706247Y-71285713D02*
X79563390Y-71285713D01*
X79563390Y-71285713D02*
X79372914Y-71238094D01*
X79372914Y-71238094D02*
X79277676Y-71190475D01*
X79277676Y-71190475D02*
X79182438Y-71095237D01*
X79182438Y-71095237D02*
X79134819Y-70952380D01*
X79134819Y-70952380D02*
X79134819Y-70857142D01*
X79134819Y-70857142D02*
X79182438Y-70714285D01*
X79182438Y-70714285D02*
X79230057Y-70666666D01*
X79134819Y-69761904D02*
X79134819Y-70238094D01*
X79134819Y-70238094D02*
X79611009Y-70285713D01*
X79611009Y-70285713D02*
X79563390Y-70238094D01*
X79563390Y-70238094D02*
X79515771Y-70142856D01*
X79515771Y-70142856D02*
X79515771Y-69904761D01*
X79515771Y-69904761D02*
X79563390Y-69809523D01*
X79563390Y-69809523D02*
X79611009Y-69761904D01*
X79611009Y-69761904D02*
X79706247Y-69714285D01*
X79706247Y-69714285D02*
X79944342Y-69714285D01*
X79944342Y-69714285D02*
X80039580Y-69761904D01*
X80039580Y-69761904D02*
X80087200Y-69809523D01*
X80087200Y-69809523D02*
X80134819Y-69904761D01*
X80134819Y-69904761D02*
X80134819Y-70142856D01*
X80134819Y-70142856D02*
X80087200Y-70238094D01*
X80087200Y-70238094D02*
X80039580Y-70285713D01*
X64490180Y-78391666D02*
X63775895Y-78391666D01*
X63775895Y-78391666D02*
X63633038Y-78344047D01*
X63633038Y-78344047D02*
X63537800Y-78248809D01*
X63537800Y-78248809D02*
X63490180Y-78105952D01*
X63490180Y-78105952D02*
X63490180Y-78010714D01*
X63490180Y-79391666D02*
X63490180Y-78820238D01*
X63490180Y-79105952D02*
X64490180Y-79105952D01*
X64490180Y-79105952D02*
X64347323Y-79010714D01*
X64347323Y-79010714D02*
X64252085Y-78915476D01*
X64252085Y-78915476D02*
X64204466Y-78820238D01*
X96954819Y-79766666D02*
X96478628Y-80099999D01*
X96954819Y-80338094D02*
X95954819Y-80338094D01*
X95954819Y-80338094D02*
X95954819Y-79957142D01*
X95954819Y-79957142D02*
X96002438Y-79861904D01*
X96002438Y-79861904D02*
X96050057Y-79814285D01*
X96050057Y-79814285D02*
X96145295Y-79766666D01*
X96145295Y-79766666D02*
X96288152Y-79766666D01*
X96288152Y-79766666D02*
X96383390Y-79814285D01*
X96383390Y-79814285D02*
X96431009Y-79861904D01*
X96431009Y-79861904D02*
X96478628Y-79957142D01*
X96478628Y-79957142D02*
X96478628Y-80338094D01*
X96383390Y-79195237D02*
X96335771Y-79290475D01*
X96335771Y-79290475D02*
X96288152Y-79338094D01*
X96288152Y-79338094D02*
X96192914Y-79385713D01*
X96192914Y-79385713D02*
X96145295Y-79385713D01*
X96145295Y-79385713D02*
X96050057Y-79338094D01*
X96050057Y-79338094D02*
X96002438Y-79290475D01*
X96002438Y-79290475D02*
X95954819Y-79195237D01*
X95954819Y-79195237D02*
X95954819Y-79004761D01*
X95954819Y-79004761D02*
X96002438Y-78909523D01*
X96002438Y-78909523D02*
X96050057Y-78861904D01*
X96050057Y-78861904D02*
X96145295Y-78814285D01*
X96145295Y-78814285D02*
X96192914Y-78814285D01*
X96192914Y-78814285D02*
X96288152Y-78861904D01*
X96288152Y-78861904D02*
X96335771Y-78909523D01*
X96335771Y-78909523D02*
X96383390Y-79004761D01*
X96383390Y-79004761D02*
X96383390Y-79195237D01*
X96383390Y-79195237D02*
X96431009Y-79290475D01*
X96431009Y-79290475D02*
X96478628Y-79338094D01*
X96478628Y-79338094D02*
X96573866Y-79385713D01*
X96573866Y-79385713D02*
X96764342Y-79385713D01*
X96764342Y-79385713D02*
X96859580Y-79338094D01*
X96859580Y-79338094D02*
X96907200Y-79290475D01*
X96907200Y-79290475D02*
X96954819Y-79195237D01*
X96954819Y-79195237D02*
X96954819Y-79004761D01*
X96954819Y-79004761D02*
X96907200Y-78909523D01*
X96907200Y-78909523D02*
X96859580Y-78861904D01*
X96859580Y-78861904D02*
X96764342Y-78814285D01*
X96764342Y-78814285D02*
X96573866Y-78814285D01*
X96573866Y-78814285D02*
X96478628Y-78861904D01*
X96478628Y-78861904D02*
X96431009Y-78909523D01*
X96431009Y-78909523D02*
X96383390Y-79004761D01*
X85238095Y-88704819D02*
X85238095Y-89514342D01*
X85238095Y-89514342D02*
X85285714Y-89609580D01*
X85285714Y-89609580D02*
X85333333Y-89657200D01*
X85333333Y-89657200D02*
X85428571Y-89704819D01*
X85428571Y-89704819D02*
X85619047Y-89704819D01*
X85619047Y-89704819D02*
X85714285Y-89657200D01*
X85714285Y-89657200D02*
X85761904Y-89609580D01*
X85761904Y-89609580D02*
X85809523Y-89514342D01*
X85809523Y-89514342D02*
X85809523Y-88704819D01*
X86714285Y-89038152D02*
X86714285Y-89704819D01*
X86476190Y-88657200D02*
X86238095Y-89371485D01*
X86238095Y-89371485D02*
X86857142Y-89371485D01*
X92609580Y-90617857D02*
X92657200Y-90665476D01*
X92657200Y-90665476D02*
X92704819Y-90808333D01*
X92704819Y-90808333D02*
X92704819Y-90903571D01*
X92704819Y-90903571D02*
X92657200Y-91046428D01*
X92657200Y-91046428D02*
X92561961Y-91141666D01*
X92561961Y-91141666D02*
X92466723Y-91189285D01*
X92466723Y-91189285D02*
X92276247Y-91236904D01*
X92276247Y-91236904D02*
X92133390Y-91236904D01*
X92133390Y-91236904D02*
X91942914Y-91189285D01*
X91942914Y-91189285D02*
X91847676Y-91141666D01*
X91847676Y-91141666D02*
X91752438Y-91046428D01*
X91752438Y-91046428D02*
X91704819Y-90903571D01*
X91704819Y-90903571D02*
X91704819Y-90808333D01*
X91704819Y-90808333D02*
X91752438Y-90665476D01*
X91752438Y-90665476D02*
X91800057Y-90617857D01*
X92704819Y-89665476D02*
X92704819Y-90236904D01*
X92704819Y-89951190D02*
X91704819Y-89951190D01*
X91704819Y-89951190D02*
X91847676Y-90046428D01*
X91847676Y-90046428D02*
X91942914Y-90141666D01*
X91942914Y-90141666D02*
X91990533Y-90236904D01*
X91704819Y-89332142D02*
X91704819Y-88713095D01*
X91704819Y-88713095D02*
X92085771Y-89046428D01*
X92085771Y-89046428D02*
X92085771Y-88903571D01*
X92085771Y-88903571D02*
X92133390Y-88808333D01*
X92133390Y-88808333D02*
X92181009Y-88760714D01*
X92181009Y-88760714D02*
X92276247Y-88713095D01*
X92276247Y-88713095D02*
X92514342Y-88713095D01*
X92514342Y-88713095D02*
X92609580Y-88760714D01*
X92609580Y-88760714D02*
X92657200Y-88808333D01*
X92657200Y-88808333D02*
X92704819Y-88903571D01*
X92704819Y-88903571D02*
X92704819Y-89189285D01*
X92704819Y-89189285D02*
X92657200Y-89284523D01*
X92657200Y-89284523D02*
X92609580Y-89332142D01*
X98109580Y-79817857D02*
X98157200Y-79865476D01*
X98157200Y-79865476D02*
X98204819Y-80008333D01*
X98204819Y-80008333D02*
X98204819Y-80103571D01*
X98204819Y-80103571D02*
X98157200Y-80246428D01*
X98157200Y-80246428D02*
X98061961Y-80341666D01*
X98061961Y-80341666D02*
X97966723Y-80389285D01*
X97966723Y-80389285D02*
X97776247Y-80436904D01*
X97776247Y-80436904D02*
X97633390Y-80436904D01*
X97633390Y-80436904D02*
X97442914Y-80389285D01*
X97442914Y-80389285D02*
X97347676Y-80341666D01*
X97347676Y-80341666D02*
X97252438Y-80246428D01*
X97252438Y-80246428D02*
X97204819Y-80103571D01*
X97204819Y-80103571D02*
X97204819Y-80008333D01*
X97204819Y-80008333D02*
X97252438Y-79865476D01*
X97252438Y-79865476D02*
X97300057Y-79817857D01*
X98204819Y-78865476D02*
X98204819Y-79436904D01*
X98204819Y-79151190D02*
X97204819Y-79151190D01*
X97204819Y-79151190D02*
X97347676Y-79246428D01*
X97347676Y-79246428D02*
X97442914Y-79341666D01*
X97442914Y-79341666D02*
X97490533Y-79436904D01*
X97538152Y-78008333D02*
X98204819Y-78008333D01*
X97157200Y-78246428D02*
X97871485Y-78484523D01*
X97871485Y-78484523D02*
X97871485Y-77865476D01*
X74283333Y-82409580D02*
X74235714Y-82457200D01*
X74235714Y-82457200D02*
X74092857Y-82504819D01*
X74092857Y-82504819D02*
X73997619Y-82504819D01*
X73997619Y-82504819D02*
X73854762Y-82457200D01*
X73854762Y-82457200D02*
X73759524Y-82361961D01*
X73759524Y-82361961D02*
X73711905Y-82266723D01*
X73711905Y-82266723D02*
X73664286Y-82076247D01*
X73664286Y-82076247D02*
X73664286Y-81933390D01*
X73664286Y-81933390D02*
X73711905Y-81742914D01*
X73711905Y-81742914D02*
X73759524Y-81647676D01*
X73759524Y-81647676D02*
X73854762Y-81552438D01*
X73854762Y-81552438D02*
X73997619Y-81504819D01*
X73997619Y-81504819D02*
X74092857Y-81504819D01*
X74092857Y-81504819D02*
X74235714Y-81552438D01*
X74235714Y-81552438D02*
X74283333Y-81600057D01*
X75140476Y-81504819D02*
X74950000Y-81504819D01*
X74950000Y-81504819D02*
X74854762Y-81552438D01*
X74854762Y-81552438D02*
X74807143Y-81600057D01*
X74807143Y-81600057D02*
X74711905Y-81742914D01*
X74711905Y-81742914D02*
X74664286Y-81933390D01*
X74664286Y-81933390D02*
X74664286Y-82314342D01*
X74664286Y-82314342D02*
X74711905Y-82409580D01*
X74711905Y-82409580D02*
X74759524Y-82457200D01*
X74759524Y-82457200D02*
X74854762Y-82504819D01*
X74854762Y-82504819D02*
X75045238Y-82504819D01*
X75045238Y-82504819D02*
X75140476Y-82457200D01*
X75140476Y-82457200D02*
X75188095Y-82409580D01*
X75188095Y-82409580D02*
X75235714Y-82314342D01*
X75235714Y-82314342D02*
X75235714Y-82076247D01*
X75235714Y-82076247D02*
X75188095Y-81981009D01*
X75188095Y-81981009D02*
X75140476Y-81933390D01*
X75140476Y-81933390D02*
X75045238Y-81885771D01*
X75045238Y-81885771D02*
X74854762Y-81885771D01*
X74854762Y-81885771D02*
X74759524Y-81933390D01*
X74759524Y-81933390D02*
X74711905Y-81981009D01*
X74711905Y-81981009D02*
X74664286Y-82076247D01*
X65284580Y-74416666D02*
X65332200Y-74464285D01*
X65332200Y-74464285D02*
X65379819Y-74607142D01*
X65379819Y-74607142D02*
X65379819Y-74702380D01*
X65379819Y-74702380D02*
X65332200Y-74845237D01*
X65332200Y-74845237D02*
X65236961Y-74940475D01*
X65236961Y-74940475D02*
X65141723Y-74988094D01*
X65141723Y-74988094D02*
X64951247Y-75035713D01*
X64951247Y-75035713D02*
X64808390Y-75035713D01*
X64808390Y-75035713D02*
X64617914Y-74988094D01*
X64617914Y-74988094D02*
X64522676Y-74940475D01*
X64522676Y-74940475D02*
X64427438Y-74845237D01*
X64427438Y-74845237D02*
X64379819Y-74702380D01*
X64379819Y-74702380D02*
X64379819Y-74607142D01*
X64379819Y-74607142D02*
X64427438Y-74464285D01*
X64427438Y-74464285D02*
X64475057Y-74416666D01*
X65379819Y-73464285D02*
X65379819Y-74035713D01*
X65379819Y-73749999D02*
X64379819Y-73749999D01*
X64379819Y-73749999D02*
X64522676Y-73845237D01*
X64522676Y-73845237D02*
X64617914Y-73940475D01*
X64617914Y-73940475D02*
X64665533Y-74035713D01*
X71988095Y-76704819D02*
X71988095Y-77514342D01*
X71988095Y-77514342D02*
X72035714Y-77609580D01*
X72035714Y-77609580D02*
X72083333Y-77657200D01*
X72083333Y-77657200D02*
X72178571Y-77704819D01*
X72178571Y-77704819D02*
X72369047Y-77704819D01*
X72369047Y-77704819D02*
X72464285Y-77657200D01*
X72464285Y-77657200D02*
X72511904Y-77609580D01*
X72511904Y-77609580D02*
X72559523Y-77514342D01*
X72559523Y-77514342D02*
X72559523Y-76704819D01*
X72988095Y-76800057D02*
X73035714Y-76752438D01*
X73035714Y-76752438D02*
X73130952Y-76704819D01*
X73130952Y-76704819D02*
X73369047Y-76704819D01*
X73369047Y-76704819D02*
X73464285Y-76752438D01*
X73464285Y-76752438D02*
X73511904Y-76800057D01*
X73511904Y-76800057D02*
X73559523Y-76895295D01*
X73559523Y-76895295D02*
X73559523Y-76990533D01*
X73559523Y-76990533D02*
X73511904Y-77133390D01*
X73511904Y-77133390D02*
X72940476Y-77704819D01*
X72940476Y-77704819D02*
X73559523Y-77704819D01*
X63583333Y-86704819D02*
X63250000Y-86228628D01*
X63011905Y-86704819D02*
X63011905Y-85704819D01*
X63011905Y-85704819D02*
X63392857Y-85704819D01*
X63392857Y-85704819D02*
X63488095Y-85752438D01*
X63488095Y-85752438D02*
X63535714Y-85800057D01*
X63535714Y-85800057D02*
X63583333Y-85895295D01*
X63583333Y-85895295D02*
X63583333Y-86038152D01*
X63583333Y-86038152D02*
X63535714Y-86133390D01*
X63535714Y-86133390D02*
X63488095Y-86181009D01*
X63488095Y-86181009D02*
X63392857Y-86228628D01*
X63392857Y-86228628D02*
X63011905Y-86228628D01*
X63964286Y-85800057D02*
X64011905Y-85752438D01*
X64011905Y-85752438D02*
X64107143Y-85704819D01*
X64107143Y-85704819D02*
X64345238Y-85704819D01*
X64345238Y-85704819D02*
X64440476Y-85752438D01*
X64440476Y-85752438D02*
X64488095Y-85800057D01*
X64488095Y-85800057D02*
X64535714Y-85895295D01*
X64535714Y-85895295D02*
X64535714Y-85990533D01*
X64535714Y-85990533D02*
X64488095Y-86133390D01*
X64488095Y-86133390D02*
X63916667Y-86704819D01*
X63916667Y-86704819D02*
X64535714Y-86704819D01*
X73988095Y-67704819D02*
X73988095Y-68514342D01*
X73988095Y-68514342D02*
X74035714Y-68609580D01*
X74035714Y-68609580D02*
X74083333Y-68657200D01*
X74083333Y-68657200D02*
X74178571Y-68704819D01*
X74178571Y-68704819D02*
X74369047Y-68704819D01*
X74369047Y-68704819D02*
X74464285Y-68657200D01*
X74464285Y-68657200D02*
X74511904Y-68609580D01*
X74511904Y-68609580D02*
X74559523Y-68514342D01*
X74559523Y-68514342D02*
X74559523Y-67704819D01*
X75559523Y-68704819D02*
X74988095Y-68704819D01*
X75273809Y-68704819D02*
X75273809Y-67704819D01*
X75273809Y-67704819D02*
X75178571Y-67847676D01*
X75178571Y-67847676D02*
X75083333Y-67942914D01*
X75083333Y-67942914D02*
X74988095Y-67990533D01*
X80090476Y-83954819D02*
X80757142Y-84954819D01*
X80757142Y-83954819D02*
X80090476Y-84954819D01*
X81661904Y-84954819D02*
X81090476Y-84954819D01*
X81376190Y-84954819D02*
X81376190Y-83954819D01*
X81376190Y-83954819D02*
X81280952Y-84097676D01*
X81280952Y-84097676D02*
X81185714Y-84192914D01*
X81185714Y-84192914D02*
X81090476Y-84240533D01*
X66261905Y-81454819D02*
X66261905Y-80454819D01*
X66261905Y-80454819D02*
X66500000Y-80454819D01*
X66500000Y-80454819D02*
X66642857Y-80502438D01*
X66642857Y-80502438D02*
X66738095Y-80597676D01*
X66738095Y-80597676D02*
X66785714Y-80692914D01*
X66785714Y-80692914D02*
X66833333Y-80883390D01*
X66833333Y-80883390D02*
X66833333Y-81026247D01*
X66833333Y-81026247D02*
X66785714Y-81216723D01*
X66785714Y-81216723D02*
X66738095Y-81311961D01*
X66738095Y-81311961D02*
X66642857Y-81407200D01*
X66642857Y-81407200D02*
X66500000Y-81454819D01*
X66500000Y-81454819D02*
X66261905Y-81454819D01*
X67785714Y-81454819D02*
X67214286Y-81454819D01*
X67500000Y-81454819D02*
X67500000Y-80454819D01*
X67500000Y-80454819D02*
X67404762Y-80597676D01*
X67404762Y-80597676D02*
X67309524Y-80692914D01*
X67309524Y-80692914D02*
X67214286Y-80740533D01*
X91988095Y-74954819D02*
X91988095Y-75764342D01*
X91988095Y-75764342D02*
X92035714Y-75859580D01*
X92035714Y-75859580D02*
X92083333Y-75907200D01*
X92083333Y-75907200D02*
X92178571Y-75954819D01*
X92178571Y-75954819D02*
X92369047Y-75954819D01*
X92369047Y-75954819D02*
X92464285Y-75907200D01*
X92464285Y-75907200D02*
X92511904Y-75859580D01*
X92511904Y-75859580D02*
X92559523Y-75764342D01*
X92559523Y-75764342D02*
X92559523Y-74954819D01*
X92940476Y-74954819D02*
X93559523Y-74954819D01*
X93559523Y-74954819D02*
X93226190Y-75335771D01*
X93226190Y-75335771D02*
X93369047Y-75335771D01*
X93369047Y-75335771D02*
X93464285Y-75383390D01*
X93464285Y-75383390D02*
X93511904Y-75431009D01*
X93511904Y-75431009D02*
X93559523Y-75526247D01*
X93559523Y-75526247D02*
X93559523Y-75764342D01*
X93559523Y-75764342D02*
X93511904Y-75859580D01*
X93511904Y-75859580D02*
X93464285Y-75907200D01*
X93464285Y-75907200D02*
X93369047Y-75954819D01*
X93369047Y-75954819D02*
X93083333Y-75954819D01*
X93083333Y-75954819D02*
X92988095Y-75907200D01*
X92988095Y-75907200D02*
X92940476Y-75859580D01*
X63583333Y-71704819D02*
X63250000Y-71228628D01*
X63011905Y-71704819D02*
X63011905Y-70704819D01*
X63011905Y-70704819D02*
X63392857Y-70704819D01*
X63392857Y-70704819D02*
X63488095Y-70752438D01*
X63488095Y-70752438D02*
X63535714Y-70800057D01*
X63535714Y-70800057D02*
X63583333Y-70895295D01*
X63583333Y-70895295D02*
X63583333Y-71038152D01*
X63583333Y-71038152D02*
X63535714Y-71133390D01*
X63535714Y-71133390D02*
X63488095Y-71181009D01*
X63488095Y-71181009D02*
X63392857Y-71228628D01*
X63392857Y-71228628D02*
X63011905Y-71228628D01*
X63916667Y-70704819D02*
X64535714Y-70704819D01*
X64535714Y-70704819D02*
X64202381Y-71085771D01*
X64202381Y-71085771D02*
X64345238Y-71085771D01*
X64345238Y-71085771D02*
X64440476Y-71133390D01*
X64440476Y-71133390D02*
X64488095Y-71181009D01*
X64488095Y-71181009D02*
X64535714Y-71276247D01*
X64535714Y-71276247D02*
X64535714Y-71514342D01*
X64535714Y-71514342D02*
X64488095Y-71609580D01*
X64488095Y-71609580D02*
X64440476Y-71657200D01*
X64440476Y-71657200D02*
X64345238Y-71704819D01*
X64345238Y-71704819D02*
X64059524Y-71704819D01*
X64059524Y-71704819D02*
X63964286Y-71657200D01*
X63964286Y-71657200D02*
X63916667Y-71609580D01*
X91357142Y-74109580D02*
X91309523Y-74157200D01*
X91309523Y-74157200D02*
X91166666Y-74204819D01*
X91166666Y-74204819D02*
X91071428Y-74204819D01*
X91071428Y-74204819D02*
X90928571Y-74157200D01*
X90928571Y-74157200D02*
X90833333Y-74061961D01*
X90833333Y-74061961D02*
X90785714Y-73966723D01*
X90785714Y-73966723D02*
X90738095Y-73776247D01*
X90738095Y-73776247D02*
X90738095Y-73633390D01*
X90738095Y-73633390D02*
X90785714Y-73442914D01*
X90785714Y-73442914D02*
X90833333Y-73347676D01*
X90833333Y-73347676D02*
X90928571Y-73252438D01*
X90928571Y-73252438D02*
X91071428Y-73204819D01*
X91071428Y-73204819D02*
X91166666Y-73204819D01*
X91166666Y-73204819D02*
X91309523Y-73252438D01*
X91309523Y-73252438D02*
X91357142Y-73300057D01*
X92309523Y-74204819D02*
X91738095Y-74204819D01*
X92023809Y-74204819D02*
X92023809Y-73204819D01*
X92023809Y-73204819D02*
X91928571Y-73347676D01*
X91928571Y-73347676D02*
X91833333Y-73442914D01*
X91833333Y-73442914D02*
X91738095Y-73490533D01*
X92928571Y-73204819D02*
X93023809Y-73204819D01*
X93023809Y-73204819D02*
X93119047Y-73252438D01*
X93119047Y-73252438D02*
X93166666Y-73300057D01*
X93166666Y-73300057D02*
X93214285Y-73395295D01*
X93214285Y-73395295D02*
X93261904Y-73585771D01*
X93261904Y-73585771D02*
X93261904Y-73823866D01*
X93261904Y-73823866D02*
X93214285Y-74014342D01*
X93214285Y-74014342D02*
X93166666Y-74109580D01*
X93166666Y-74109580D02*
X93119047Y-74157200D01*
X93119047Y-74157200D02*
X93023809Y-74204819D01*
X93023809Y-74204819D02*
X92928571Y-74204819D01*
X92928571Y-74204819D02*
X92833333Y-74157200D01*
X92833333Y-74157200D02*
X92785714Y-74109580D01*
X92785714Y-74109580D02*
X92738095Y-74014342D01*
X92738095Y-74014342D02*
X92690476Y-73823866D01*
X92690476Y-73823866D02*
X92690476Y-73585771D01*
X92690476Y-73585771D02*
X92738095Y-73395295D01*
X92738095Y-73395295D02*
X92785714Y-73300057D01*
X92785714Y-73300057D02*
X92833333Y-73252438D01*
X92833333Y-73252438D02*
X92928571Y-73204819D01*
X74583333Y-75039580D02*
X74535714Y-75087200D01*
X74535714Y-75087200D02*
X74392857Y-75134819D01*
X74392857Y-75134819D02*
X74297619Y-75134819D01*
X74297619Y-75134819D02*
X74154762Y-75087200D01*
X74154762Y-75087200D02*
X74059524Y-74991961D01*
X74059524Y-74991961D02*
X74011905Y-74896723D01*
X74011905Y-74896723D02*
X73964286Y-74706247D01*
X73964286Y-74706247D02*
X73964286Y-74563390D01*
X73964286Y-74563390D02*
X74011905Y-74372914D01*
X74011905Y-74372914D02*
X74059524Y-74277676D01*
X74059524Y-74277676D02*
X74154762Y-74182438D01*
X74154762Y-74182438D02*
X74297619Y-74134819D01*
X74297619Y-74134819D02*
X74392857Y-74134819D01*
X74392857Y-74134819D02*
X74535714Y-74182438D01*
X74535714Y-74182438D02*
X74583333Y-74230057D01*
X75440476Y-74468152D02*
X75440476Y-75134819D01*
X75202381Y-74087200D02*
X74964286Y-74801485D01*
X74964286Y-74801485D02*
X75583333Y-74801485D01*
D12*
%TO.C,REF\u002A\u002A*%
X92226957Y-65526571D02*
X92323232Y-65550809D01*
X92409816Y-65593641D01*
X92484627Y-65653419D01*
X92545582Y-65728494D01*
X92590601Y-65817220D01*
X92616864Y-65913530D01*
X92622714Y-66010795D01*
X92607860Y-66104654D01*
X92574160Y-66192511D01*
X92523472Y-66271770D01*
X92457655Y-66339836D01*
X92378566Y-66394112D01*
X92288066Y-66432002D01*
X92236800Y-66444426D01*
X92192302Y-66451947D01*
X92158001Y-66454919D01*
X92125040Y-66453094D01*
X92084566Y-66446225D01*
X92051469Y-66439250D01*
X91958053Y-66407741D01*
X91874381Y-66356617D01*
X91802335Y-66287429D01*
X91743800Y-66201728D01*
X91729852Y-66174489D01*
X91713414Y-66138122D01*
X91703106Y-66107582D01*
X91697540Y-66075450D01*
X91695331Y-66034307D01*
X91695052Y-65988222D01*
X91699139Y-65903865D01*
X91712554Y-65834586D01*
X91737744Y-65773961D01*
X91777154Y-65715567D01*
X91815702Y-65671302D01*
X91887594Y-65605484D01*
X91962687Y-65560053D01*
X92045438Y-65532850D01*
X92123072Y-65522576D01*
X92226957Y-65526571D01*
G36*
X92226957Y-65526571D02*
G01*
X92323232Y-65550809D01*
X92409816Y-65593641D01*
X92484627Y-65653419D01*
X92545582Y-65728494D01*
X92590601Y-65817220D01*
X92616864Y-65913530D01*
X92622714Y-66010795D01*
X92607860Y-66104654D01*
X92574160Y-66192511D01*
X92523472Y-66271770D01*
X92457655Y-66339836D01*
X92378566Y-66394112D01*
X92288066Y-66432002D01*
X92236800Y-66444426D01*
X92192302Y-66451947D01*
X92158001Y-66454919D01*
X92125040Y-66453094D01*
X92084566Y-66446225D01*
X92051469Y-66439250D01*
X91958053Y-66407741D01*
X91874381Y-66356617D01*
X91802335Y-66287429D01*
X91743800Y-66201728D01*
X91729852Y-66174489D01*
X91713414Y-66138122D01*
X91703106Y-66107582D01*
X91697540Y-66075450D01*
X91695331Y-66034307D01*
X91695052Y-65988222D01*
X91699139Y-65903865D01*
X91712554Y-65834586D01*
X91737744Y-65773961D01*
X91777154Y-65715567D01*
X91815702Y-65671302D01*
X91887594Y-65605484D01*
X91962687Y-65560053D01*
X92045438Y-65532850D01*
X92123072Y-65522576D01*
X92226957Y-65526571D01*
G37*
X94828429Y-66449071D02*
X94988570Y-66470245D01*
X95152510Y-66510385D01*
X95322313Y-66569889D01*
X95500043Y-66649154D01*
X95511310Y-66654699D01*
X95569005Y-66682725D01*
X95620552Y-66706802D01*
X95662191Y-66725249D01*
X95690162Y-66736386D01*
X95699733Y-66738933D01*
X95718950Y-66743941D01*
X95723561Y-66748147D01*
X95718458Y-66758580D01*
X95702418Y-66784868D01*
X95677288Y-66824257D01*
X95644914Y-66873991D01*
X95607143Y-66931315D01*
X95565822Y-66993476D01*
X95522798Y-67057718D01*
X95479917Y-67121285D01*
X95439026Y-67181425D01*
X95401971Y-67235380D01*
X95370600Y-67280397D01*
X95346759Y-67313721D01*
X95332294Y-67332597D01*
X95330309Y-67334787D01*
X95320191Y-67330138D01*
X95297850Y-67312962D01*
X95267280Y-67286440D01*
X95251536Y-67271964D01*
X95155047Y-67196682D01*
X95048336Y-67141241D01*
X94932832Y-67106141D01*
X94809962Y-67091880D01*
X94740561Y-67093051D01*
X94619423Y-67110212D01*
X94510205Y-67146094D01*
X94412582Y-67200959D01*
X94326228Y-67275070D01*
X94250815Y-67368688D01*
X94186018Y-67482076D01*
X94148601Y-67568667D01*
X94104748Y-67704366D01*
X94072428Y-67851850D01*
X94051557Y-68007314D01*
X94042051Y-68166956D01*
X94043827Y-68326973D01*
X94056803Y-68483561D01*
X94080894Y-68632918D01*
X94116018Y-68771240D01*
X94162092Y-68894724D01*
X94178373Y-68928978D01*
X94246620Y-69043064D01*
X94327079Y-69139557D01*
X94418570Y-69217670D01*
X94519911Y-69276617D01*
X94629920Y-69315612D01*
X94747415Y-69333868D01*
X94788883Y-69335211D01*
X94910441Y-69324290D01*
X95030878Y-69291474D01*
X95148666Y-69237439D01*
X95262277Y-69162865D01*
X95353685Y-69084539D01*
X95400215Y-69040008D01*
X95581483Y-69337271D01*
X95626580Y-69411433D01*
X95667819Y-69479646D01*
X95703735Y-69539459D01*
X95732866Y-69588420D01*
X95753750Y-69624079D01*
X95764924Y-69643984D01*
X95766375Y-69647079D01*
X95758146Y-69656718D01*
X95732567Y-69673999D01*
X95692873Y-69697283D01*
X95642297Y-69724934D01*
X95584074Y-69755315D01*
X95521437Y-69786790D01*
X95457621Y-69817722D01*
X95395860Y-69846473D01*
X95339388Y-69871408D01*
X95291438Y-69890889D01*
X95267986Y-69899318D01*
X95134221Y-69937133D01*
X94996327Y-69962136D01*
X94848622Y-69975140D01*
X94721833Y-69977468D01*
X94653878Y-69976373D01*
X94588277Y-69974275D01*
X94530847Y-69971434D01*
X94487403Y-69968106D01*
X94473298Y-69966422D01*
X94334284Y-69937587D01*
X94192757Y-69892468D01*
X94055275Y-69833750D01*
X93928394Y-69764120D01*
X93850889Y-69711441D01*
X93723481Y-69603239D01*
X93605178Y-69476671D01*
X93498172Y-69334866D01*
X93404652Y-69180951D01*
X93326810Y-69018053D01*
X93282956Y-68900756D01*
X93232708Y-68717128D01*
X93199209Y-68522581D01*
X93182449Y-68321325D01*
X93182416Y-68117568D01*
X93199101Y-67915521D01*
X93232493Y-67719392D01*
X93282580Y-67533391D01*
X93286397Y-67521803D01*
X93349281Y-67359750D01*
X93426028Y-67211832D01*
X93519242Y-67073865D01*
X93631527Y-66941661D01*
X93675392Y-66896399D01*
X93811534Y-66772457D01*
X93951491Y-66669915D01*
X94097411Y-66587656D01*
X94251442Y-66524564D01*
X94415732Y-66479523D01*
X94511289Y-66462033D01*
X94670023Y-66446466D01*
X94828429Y-66449071D01*
G36*
X94828429Y-66449071D02*
G01*
X94988570Y-66470245D01*
X95152510Y-66510385D01*
X95322313Y-66569889D01*
X95500043Y-66649154D01*
X95511310Y-66654699D01*
X95569005Y-66682725D01*
X95620552Y-66706802D01*
X95662191Y-66725249D01*
X95690162Y-66736386D01*
X95699733Y-66738933D01*
X95718950Y-66743941D01*
X95723561Y-66748147D01*
X95718458Y-66758580D01*
X95702418Y-66784868D01*
X95677288Y-66824257D01*
X95644914Y-66873991D01*
X95607143Y-66931315D01*
X95565822Y-66993476D01*
X95522798Y-67057718D01*
X95479917Y-67121285D01*
X95439026Y-67181425D01*
X95401971Y-67235380D01*
X95370600Y-67280397D01*
X95346759Y-67313721D01*
X95332294Y-67332597D01*
X95330309Y-67334787D01*
X95320191Y-67330138D01*
X95297850Y-67312962D01*
X95267280Y-67286440D01*
X95251536Y-67271964D01*
X95155047Y-67196682D01*
X95048336Y-67141241D01*
X94932832Y-67106141D01*
X94809962Y-67091880D01*
X94740561Y-67093051D01*
X94619423Y-67110212D01*
X94510205Y-67146094D01*
X94412582Y-67200959D01*
X94326228Y-67275070D01*
X94250815Y-67368688D01*
X94186018Y-67482076D01*
X94148601Y-67568667D01*
X94104748Y-67704366D01*
X94072428Y-67851850D01*
X94051557Y-68007314D01*
X94042051Y-68166956D01*
X94043827Y-68326973D01*
X94056803Y-68483561D01*
X94080894Y-68632918D01*
X94116018Y-68771240D01*
X94162092Y-68894724D01*
X94178373Y-68928978D01*
X94246620Y-69043064D01*
X94327079Y-69139557D01*
X94418570Y-69217670D01*
X94519911Y-69276617D01*
X94629920Y-69315612D01*
X94747415Y-69333868D01*
X94788883Y-69335211D01*
X94910441Y-69324290D01*
X95030878Y-69291474D01*
X95148666Y-69237439D01*
X95262277Y-69162865D01*
X95353685Y-69084539D01*
X95400215Y-69040008D01*
X95581483Y-69337271D01*
X95626580Y-69411433D01*
X95667819Y-69479646D01*
X95703735Y-69539459D01*
X95732866Y-69588420D01*
X95753750Y-69624079D01*
X95764924Y-69643984D01*
X95766375Y-69647079D01*
X95758146Y-69656718D01*
X95732567Y-69673999D01*
X95692873Y-69697283D01*
X95642297Y-69724934D01*
X95584074Y-69755315D01*
X95521437Y-69786790D01*
X95457621Y-69817722D01*
X95395860Y-69846473D01*
X95339388Y-69871408D01*
X95291438Y-69890889D01*
X95267986Y-69899318D01*
X95134221Y-69937133D01*
X94996327Y-69962136D01*
X94848622Y-69975140D01*
X94721833Y-69977468D01*
X94653878Y-69976373D01*
X94588277Y-69974275D01*
X94530847Y-69971434D01*
X94487403Y-69968106D01*
X94473298Y-69966422D01*
X94334284Y-69937587D01*
X94192757Y-69892468D01*
X94055275Y-69833750D01*
X93928394Y-69764120D01*
X93850889Y-69711441D01*
X93723481Y-69603239D01*
X93605178Y-69476671D01*
X93498172Y-69334866D01*
X93404652Y-69180951D01*
X93326810Y-69018053D01*
X93282956Y-68900756D01*
X93232708Y-68717128D01*
X93199209Y-68522581D01*
X93182449Y-68321325D01*
X93182416Y-68117568D01*
X93199101Y-67915521D01*
X93232493Y-67719392D01*
X93282580Y-67533391D01*
X93286397Y-67521803D01*
X93349281Y-67359750D01*
X93426028Y-67211832D01*
X93519242Y-67073865D01*
X93631527Y-66941661D01*
X93675392Y-66896399D01*
X93811534Y-66772457D01*
X93951491Y-66669915D01*
X94097411Y-66587656D01*
X94251442Y-66524564D01*
X94415732Y-66479523D01*
X94511289Y-66462033D01*
X94670023Y-66446466D01*
X94828429Y-66449071D01*
G37*
X100686507Y-67972245D02*
X100686526Y-68206662D01*
X100686552Y-68419603D01*
X100686625Y-68612168D01*
X100686782Y-68785459D01*
X100687064Y-68940576D01*
X100687509Y-69078620D01*
X100688156Y-69200692D01*
X100689045Y-69307894D01*
X100690213Y-69401326D01*
X100691701Y-69482090D01*
X100693546Y-69551286D01*
X100695789Y-69610015D01*
X100698469Y-69659379D01*
X100701623Y-69700478D01*
X100705292Y-69734413D01*
X100709513Y-69762286D01*
X100714327Y-69785198D01*
X100719773Y-69804249D01*
X100725888Y-69820540D01*
X100732712Y-69835173D01*
X100740285Y-69849249D01*
X100748645Y-69863868D01*
X100753839Y-69872974D01*
X100788104Y-69933689D01*
X99929955Y-69933689D01*
X99929955Y-69837733D01*
X99929224Y-69794370D01*
X99927272Y-69761205D01*
X99924463Y-69743424D01*
X99923221Y-69741778D01*
X99911799Y-69748662D01*
X99889084Y-69766505D01*
X99866385Y-69785879D01*
X99811800Y-69826614D01*
X99742321Y-69867617D01*
X99665270Y-69905123D01*
X99587965Y-69935364D01*
X99557113Y-69945012D01*
X99488616Y-69959578D01*
X99405764Y-69969539D01*
X99316371Y-69974583D01*
X99228248Y-69974396D01*
X99149207Y-69968666D01*
X99111511Y-69962858D01*
X98973414Y-69924797D01*
X98846113Y-69867073D01*
X98730292Y-69790211D01*
X98626637Y-69694739D01*
X98535833Y-69581179D01*
X98469031Y-69470381D01*
X98414164Y-69353625D01*
X98372163Y-69234276D01*
X98342167Y-69108283D01*
X98323311Y-68971594D01*
X98314732Y-68820158D01*
X98314006Y-68742711D01*
X98316100Y-68685934D01*
X99145217Y-68685934D01*
X99145424Y-68779002D01*
X99148337Y-68866692D01*
X99154000Y-68943772D01*
X99162455Y-69005009D01*
X99165038Y-69017350D01*
X99196840Y-69124633D01*
X99238498Y-69211658D01*
X99290363Y-69278642D01*
X99352781Y-69325805D01*
X99426100Y-69353365D01*
X99510669Y-69361541D01*
X99606835Y-69350551D01*
X99670311Y-69334829D01*
X99719454Y-69316639D01*
X99773583Y-69290791D01*
X99814244Y-69267089D01*
X99884800Y-69220721D01*
X99884800Y-68070530D01*
X99817392Y-68026962D01*
X99738867Y-67986040D01*
X99654681Y-67959389D01*
X99569557Y-67947465D01*
X99488216Y-67950722D01*
X99415380Y-67969615D01*
X99383426Y-67985184D01*
X99325501Y-68028181D01*
X99276544Y-68084953D01*
X99235390Y-68157575D01*
X99200874Y-68248121D01*
X99171833Y-68358666D01*
X99170552Y-68364533D01*
X99160381Y-68426788D01*
X99152739Y-68504594D01*
X99147670Y-68592720D01*
X99145217Y-68685934D01*
X98316100Y-68685934D01*
X98321857Y-68529895D01*
X98343802Y-68334059D01*
X98379786Y-68155332D01*
X98429759Y-67993845D01*
X98493668Y-67849726D01*
X98571462Y-67723106D01*
X98663089Y-67614115D01*
X98768497Y-67522883D01*
X98813662Y-67491932D01*
X98914611Y-67435785D01*
X99017901Y-67396174D01*
X99127989Y-67372014D01*
X99249330Y-67362219D01*
X99341836Y-67363265D01*
X99471490Y-67374231D01*
X99584084Y-67396046D01*
X99682875Y-67429714D01*
X99771121Y-67476236D01*
X99819986Y-67510448D01*
X99849353Y-67532362D01*
X99871043Y-67547333D01*
X99879253Y-67551733D01*
X99880868Y-67540904D01*
X99882159Y-67510251D01*
X99883138Y-67462526D01*
X99883817Y-67400479D01*
X99884210Y-67326862D01*
X99884330Y-67244427D01*
X99884188Y-67155925D01*
X99883797Y-67064107D01*
X99883171Y-66971724D01*
X99882320Y-66881528D01*
X99881260Y-66796271D01*
X99880001Y-66718703D01*
X99878556Y-66651576D01*
X99876938Y-66597641D01*
X99875161Y-66559650D01*
X99874669Y-66552667D01*
X99867092Y-66482251D01*
X99855531Y-66427102D01*
X99837792Y-66379981D01*
X99811682Y-66333647D01*
X99805415Y-66324067D01*
X99780983Y-66287378D01*
X100686311Y-66287378D01*
X100686507Y-67972245D01*
G36*
X100686507Y-67972245D02*
G01*
X100686526Y-68206662D01*
X100686552Y-68419603D01*
X100686625Y-68612168D01*
X100686782Y-68785459D01*
X100687064Y-68940576D01*
X100687509Y-69078620D01*
X100688156Y-69200692D01*
X100689045Y-69307894D01*
X100690213Y-69401326D01*
X100691701Y-69482090D01*
X100693546Y-69551286D01*
X100695789Y-69610015D01*
X100698469Y-69659379D01*
X100701623Y-69700478D01*
X100705292Y-69734413D01*
X100709513Y-69762286D01*
X100714327Y-69785198D01*
X100719773Y-69804249D01*
X100725888Y-69820540D01*
X100732712Y-69835173D01*
X100740285Y-69849249D01*
X100748645Y-69863868D01*
X100753839Y-69872974D01*
X100788104Y-69933689D01*
X99929955Y-69933689D01*
X99929955Y-69837733D01*
X99929224Y-69794370D01*
X99927272Y-69761205D01*
X99924463Y-69743424D01*
X99923221Y-69741778D01*
X99911799Y-69748662D01*
X99889084Y-69766505D01*
X99866385Y-69785879D01*
X99811800Y-69826614D01*
X99742321Y-69867617D01*
X99665270Y-69905123D01*
X99587965Y-69935364D01*
X99557113Y-69945012D01*
X99488616Y-69959578D01*
X99405764Y-69969539D01*
X99316371Y-69974583D01*
X99228248Y-69974396D01*
X99149207Y-69968666D01*
X99111511Y-69962858D01*
X98973414Y-69924797D01*
X98846113Y-69867073D01*
X98730292Y-69790211D01*
X98626637Y-69694739D01*
X98535833Y-69581179D01*
X98469031Y-69470381D01*
X98414164Y-69353625D01*
X98372163Y-69234276D01*
X98342167Y-69108283D01*
X98323311Y-68971594D01*
X98314732Y-68820158D01*
X98314006Y-68742711D01*
X98316100Y-68685934D01*
X99145217Y-68685934D01*
X99145424Y-68779002D01*
X99148337Y-68866692D01*
X99154000Y-68943772D01*
X99162455Y-69005009D01*
X99165038Y-69017350D01*
X99196840Y-69124633D01*
X99238498Y-69211658D01*
X99290363Y-69278642D01*
X99352781Y-69325805D01*
X99426100Y-69353365D01*
X99510669Y-69361541D01*
X99606835Y-69350551D01*
X99670311Y-69334829D01*
X99719454Y-69316639D01*
X99773583Y-69290791D01*
X99814244Y-69267089D01*
X99884800Y-69220721D01*
X99884800Y-68070530D01*
X99817392Y-68026962D01*
X99738867Y-67986040D01*
X99654681Y-67959389D01*
X99569557Y-67947465D01*
X99488216Y-67950722D01*
X99415380Y-67969615D01*
X99383426Y-67985184D01*
X99325501Y-68028181D01*
X99276544Y-68084953D01*
X99235390Y-68157575D01*
X99200874Y-68248121D01*
X99171833Y-68358666D01*
X99170552Y-68364533D01*
X99160381Y-68426788D01*
X99152739Y-68504594D01*
X99147670Y-68592720D01*
X99145217Y-68685934D01*
X98316100Y-68685934D01*
X98321857Y-68529895D01*
X98343802Y-68334059D01*
X98379786Y-68155332D01*
X98429759Y-67993845D01*
X98493668Y-67849726D01*
X98571462Y-67723106D01*
X98663089Y-67614115D01*
X98768497Y-67522883D01*
X98813662Y-67491932D01*
X98914611Y-67435785D01*
X99017901Y-67396174D01*
X99127989Y-67372014D01*
X99249330Y-67362219D01*
X99341836Y-67363265D01*
X99471490Y-67374231D01*
X99584084Y-67396046D01*
X99682875Y-67429714D01*
X99771121Y-67476236D01*
X99819986Y-67510448D01*
X99849353Y-67532362D01*
X99871043Y-67547333D01*
X99879253Y-67551733D01*
X99880868Y-67540904D01*
X99882159Y-67510251D01*
X99883138Y-67462526D01*
X99883817Y-67400479D01*
X99884210Y-67326862D01*
X99884330Y-67244427D01*
X99884188Y-67155925D01*
X99883797Y-67064107D01*
X99883171Y-66971724D01*
X99882320Y-66881528D01*
X99881260Y-66796271D01*
X99880001Y-66718703D01*
X99878556Y-66651576D01*
X99876938Y-66597641D01*
X99875161Y-66559650D01*
X99874669Y-66552667D01*
X99867092Y-66482251D01*
X99855531Y-66427102D01*
X99837792Y-66379981D01*
X99811682Y-66333647D01*
X99805415Y-66324067D01*
X99780983Y-66287378D01*
X100686311Y-66287378D01*
X100686507Y-67972245D01*
G37*
X97173574Y-67366552D02*
X97325492Y-67386567D01*
X97460756Y-67420202D01*
X97580239Y-67467725D01*
X97684815Y-67529405D01*
X97762424Y-67592965D01*
X97831265Y-67667099D01*
X97885006Y-67746871D01*
X97927910Y-67839091D01*
X97943384Y-67882161D01*
X97956244Y-67921142D01*
X97967446Y-67957289D01*
X97977120Y-67992434D01*
X97985396Y-68028410D01*
X97992403Y-68067050D01*
X97998272Y-68110185D01*
X98003131Y-68159649D01*
X98007110Y-68217273D01*
X98010340Y-68284891D01*
X98012949Y-68364334D01*
X98015067Y-68457436D01*
X98016824Y-68566027D01*
X98018349Y-68691942D01*
X98019772Y-68837012D01*
X98021025Y-68979778D01*
X98022351Y-69135968D01*
X98023556Y-69271239D01*
X98024766Y-69387246D01*
X98026106Y-69485645D01*
X98027700Y-69568093D01*
X98029675Y-69636246D01*
X98032156Y-69691760D01*
X98035269Y-69736292D01*
X98039138Y-69771498D01*
X98043889Y-69799034D01*
X98049648Y-69820556D01*
X98056539Y-69837722D01*
X98064689Y-69852186D01*
X98074223Y-69865606D01*
X98085266Y-69879638D01*
X98089566Y-69885071D01*
X98105386Y-69907910D01*
X98112422Y-69923463D01*
X98112444Y-69923922D01*
X98101567Y-69926121D01*
X98070582Y-69928147D01*
X98021957Y-69929942D01*
X97958163Y-69931451D01*
X97881669Y-69932616D01*
X97794944Y-69933380D01*
X97700457Y-69933686D01*
X97689550Y-69933689D01*
X97266657Y-69933689D01*
X97263395Y-69837622D01*
X97260133Y-69741556D01*
X97198044Y-69792543D01*
X97100714Y-69860057D01*
X96990813Y-69914749D01*
X96904349Y-69944978D01*
X96835278Y-69959666D01*
X96751925Y-69969659D01*
X96662159Y-69974646D01*
X96573845Y-69974313D01*
X96494851Y-69968351D01*
X96458622Y-69962638D01*
X96318603Y-69924776D01*
X96192178Y-69869932D01*
X96080260Y-69798924D01*
X95983762Y-69712568D01*
X95903600Y-69611679D01*
X95840687Y-69497076D01*
X95796312Y-69370984D01*
X95783978Y-69314401D01*
X95776368Y-69252202D01*
X95772739Y-69177363D01*
X95772245Y-69143467D01*
X95772310Y-69140282D01*
X96532248Y-69140282D01*
X96541541Y-69215333D01*
X96569728Y-69279160D01*
X96618197Y-69334798D01*
X96623254Y-69339211D01*
X96671548Y-69374037D01*
X96723257Y-69396620D01*
X96783989Y-69408540D01*
X96859352Y-69411383D01*
X96877459Y-69410978D01*
X96931278Y-69408325D01*
X96971308Y-69402909D01*
X97006324Y-69392745D01*
X97045103Y-69375850D01*
X97055745Y-69370672D01*
X97116396Y-69334844D01*
X97163215Y-69292212D01*
X97175952Y-69276973D01*
X97220622Y-69220462D01*
X97220622Y-69024586D01*
X97220086Y-68945939D01*
X97218396Y-68887988D01*
X97215428Y-68848875D01*
X97211057Y-68826741D01*
X97206972Y-68820274D01*
X97191047Y-68817111D01*
X97157264Y-68814488D01*
X97110340Y-68812655D01*
X97054993Y-68811857D01*
X97046106Y-68811842D01*
X96925330Y-68817096D01*
X96822660Y-68833263D01*
X96736106Y-68860961D01*
X96663681Y-68900808D01*
X96608751Y-68947758D01*
X96564204Y-69005645D01*
X96539480Y-69068693D01*
X96532248Y-69140282D01*
X95772310Y-69140282D01*
X95774178Y-69049712D01*
X95782522Y-68970812D01*
X95798768Y-68899590D01*
X95824405Y-68828864D01*
X95848401Y-68776493D01*
X95907020Y-68681196D01*
X95985117Y-68593170D01*
X96080315Y-68514017D01*
X96190238Y-68445340D01*
X96312510Y-68388741D01*
X96444755Y-68345821D01*
X96509422Y-68330882D01*
X96645604Y-68308777D01*
X96794049Y-68294194D01*
X96945505Y-68287813D01*
X97072064Y-68289445D01*
X97233950Y-68296224D01*
X97226530Y-68237245D01*
X97207238Y-68138092D01*
X97176104Y-68057372D01*
X97132269Y-67994466D01*
X97074871Y-67948756D01*
X97003048Y-67919622D01*
X96915941Y-67906447D01*
X96812686Y-67908611D01*
X96774711Y-67912612D01*
X96633520Y-67937780D01*
X96496707Y-67978814D01*
X96402178Y-68016815D01*
X96357018Y-68036190D01*
X96318585Y-68051760D01*
X96292234Y-68061405D01*
X96284546Y-68063452D01*
X96274802Y-68054374D01*
X96258083Y-68025405D01*
X96234232Y-67976217D01*
X96203093Y-67906484D01*
X96164507Y-67815879D01*
X96157910Y-67800089D01*
X96127853Y-67727772D01*
X96100874Y-67662425D01*
X96078136Y-67606906D01*
X96060806Y-67564072D01*
X96050048Y-67536781D01*
X96046941Y-67527942D01*
X96056940Y-67523187D01*
X96083217Y-67517910D01*
X96111489Y-67514231D01*
X96141646Y-67509474D01*
X96189433Y-67500028D01*
X96250612Y-67486820D01*
X96320946Y-67470776D01*
X96396194Y-67452820D01*
X96424755Y-67445797D01*
X96529816Y-67420209D01*
X96617480Y-67400147D01*
X96692068Y-67384969D01*
X96757903Y-67374035D01*
X96819307Y-67366704D01*
X96880602Y-67362335D01*
X96946110Y-67360287D01*
X97004128Y-67359889D01*
X97173574Y-67366552D01*
G36*
X97173574Y-67366552D02*
G01*
X97325492Y-67386567D01*
X97460756Y-67420202D01*
X97580239Y-67467725D01*
X97684815Y-67529405D01*
X97762424Y-67592965D01*
X97831265Y-67667099D01*
X97885006Y-67746871D01*
X97927910Y-67839091D01*
X97943384Y-67882161D01*
X97956244Y-67921142D01*
X97967446Y-67957289D01*
X97977120Y-67992434D01*
X97985396Y-68028410D01*
X97992403Y-68067050D01*
X97998272Y-68110185D01*
X98003131Y-68159649D01*
X98007110Y-68217273D01*
X98010340Y-68284891D01*
X98012949Y-68364334D01*
X98015067Y-68457436D01*
X98016824Y-68566027D01*
X98018349Y-68691942D01*
X98019772Y-68837012D01*
X98021025Y-68979778D01*
X98022351Y-69135968D01*
X98023556Y-69271239D01*
X98024766Y-69387246D01*
X98026106Y-69485645D01*
X98027700Y-69568093D01*
X98029675Y-69636246D01*
X98032156Y-69691760D01*
X98035269Y-69736292D01*
X98039138Y-69771498D01*
X98043889Y-69799034D01*
X98049648Y-69820556D01*
X98056539Y-69837722D01*
X98064689Y-69852186D01*
X98074223Y-69865606D01*
X98085266Y-69879638D01*
X98089566Y-69885071D01*
X98105386Y-69907910D01*
X98112422Y-69923463D01*
X98112444Y-69923922D01*
X98101567Y-69926121D01*
X98070582Y-69928147D01*
X98021957Y-69929942D01*
X97958163Y-69931451D01*
X97881669Y-69932616D01*
X97794944Y-69933380D01*
X97700457Y-69933686D01*
X97689550Y-69933689D01*
X97266657Y-69933689D01*
X97263395Y-69837622D01*
X97260133Y-69741556D01*
X97198044Y-69792543D01*
X97100714Y-69860057D01*
X96990813Y-69914749D01*
X96904349Y-69944978D01*
X96835278Y-69959666D01*
X96751925Y-69969659D01*
X96662159Y-69974646D01*
X96573845Y-69974313D01*
X96494851Y-69968351D01*
X96458622Y-69962638D01*
X96318603Y-69924776D01*
X96192178Y-69869932D01*
X96080260Y-69798924D01*
X95983762Y-69712568D01*
X95903600Y-69611679D01*
X95840687Y-69497076D01*
X95796312Y-69370984D01*
X95783978Y-69314401D01*
X95776368Y-69252202D01*
X95772739Y-69177363D01*
X95772245Y-69143467D01*
X95772310Y-69140282D01*
X96532248Y-69140282D01*
X96541541Y-69215333D01*
X96569728Y-69279160D01*
X96618197Y-69334798D01*
X96623254Y-69339211D01*
X96671548Y-69374037D01*
X96723257Y-69396620D01*
X96783989Y-69408540D01*
X96859352Y-69411383D01*
X96877459Y-69410978D01*
X96931278Y-69408325D01*
X96971308Y-69402909D01*
X97006324Y-69392745D01*
X97045103Y-69375850D01*
X97055745Y-69370672D01*
X97116396Y-69334844D01*
X97163215Y-69292212D01*
X97175952Y-69276973D01*
X97220622Y-69220462D01*
X97220622Y-69024586D01*
X97220086Y-68945939D01*
X97218396Y-68887988D01*
X97215428Y-68848875D01*
X97211057Y-68826741D01*
X97206972Y-68820274D01*
X97191047Y-68817111D01*
X97157264Y-68814488D01*
X97110340Y-68812655D01*
X97054993Y-68811857D01*
X97046106Y-68811842D01*
X96925330Y-68817096D01*
X96822660Y-68833263D01*
X96736106Y-68860961D01*
X96663681Y-68900808D01*
X96608751Y-68947758D01*
X96564204Y-69005645D01*
X96539480Y-69068693D01*
X96532248Y-69140282D01*
X95772310Y-69140282D01*
X95774178Y-69049712D01*
X95782522Y-68970812D01*
X95798768Y-68899590D01*
X95824405Y-68828864D01*
X95848401Y-68776493D01*
X95907020Y-68681196D01*
X95985117Y-68593170D01*
X96080315Y-68514017D01*
X96190238Y-68445340D01*
X96312510Y-68388741D01*
X96444755Y-68345821D01*
X96509422Y-68330882D01*
X96645604Y-68308777D01*
X96794049Y-68294194D01*
X96945505Y-68287813D01*
X97072064Y-68289445D01*
X97233950Y-68296224D01*
X97226530Y-68237245D01*
X97207238Y-68138092D01*
X97176104Y-68057372D01*
X97132269Y-67994466D01*
X97074871Y-67948756D01*
X97003048Y-67919622D01*
X96915941Y-67906447D01*
X96812686Y-67908611D01*
X96774711Y-67912612D01*
X96633520Y-67937780D01*
X96496707Y-67978814D01*
X96402178Y-68016815D01*
X96357018Y-68036190D01*
X96318585Y-68051760D01*
X96292234Y-68061405D01*
X96284546Y-68063452D01*
X96274802Y-68054374D01*
X96258083Y-68025405D01*
X96234232Y-67976217D01*
X96203093Y-67906484D01*
X96164507Y-67815879D01*
X96157910Y-67800089D01*
X96127853Y-67727772D01*
X96100874Y-67662425D01*
X96078136Y-67606906D01*
X96060806Y-67564072D01*
X96050048Y-67536781D01*
X96046941Y-67527942D01*
X96056940Y-67523187D01*
X96083217Y-67517910D01*
X96111489Y-67514231D01*
X96141646Y-67509474D01*
X96189433Y-67500028D01*
X96250612Y-67486820D01*
X96320946Y-67470776D01*
X96396194Y-67452820D01*
X96424755Y-67445797D01*
X96529816Y-67420209D01*
X96617480Y-67400147D01*
X96692068Y-67384969D01*
X96757903Y-67374035D01*
X96819307Y-67366704D01*
X96880602Y-67362335D01*
X96946110Y-67360287D01*
X97004128Y-67359889D01*
X97173574Y-67366552D01*
G37*
X91553600Y-65989054D02*
X91564465Y-66102993D01*
X91596082Y-66210616D01*
X91646985Y-66309615D01*
X91715707Y-66397684D01*
X91800781Y-66472516D01*
X91897768Y-66530384D01*
X92004036Y-66570005D01*
X92111050Y-66588573D01*
X92216700Y-66587434D01*
X92318875Y-66567930D01*
X92415466Y-66531406D01*
X92504362Y-66479205D01*
X92583454Y-66412673D01*
X92650631Y-66333152D01*
X92703783Y-66241987D01*
X92740801Y-66140523D01*
X92759573Y-66030102D01*
X92761511Y-65980206D01*
X92761511Y-65892267D01*
X92813440Y-65892267D01*
X92849747Y-65895111D01*
X92876645Y-65906911D01*
X92903751Y-65930649D01*
X92942133Y-65969031D01*
X92942133Y-68160602D01*
X92942124Y-68422739D01*
X92942092Y-68663241D01*
X92942028Y-68883048D01*
X92941924Y-69083101D01*
X92941773Y-69264344D01*
X92941566Y-69427716D01*
X92941294Y-69574160D01*
X92940950Y-69704617D01*
X92940526Y-69820029D01*
X92940013Y-69921338D01*
X92939403Y-70009484D01*
X92938688Y-70085410D01*
X92937860Y-70150057D01*
X92936911Y-70204367D01*
X92935833Y-70249280D01*
X92934617Y-70285740D01*
X92933255Y-70314687D01*
X92931739Y-70337063D01*
X92930062Y-70353809D01*
X92928214Y-70365868D01*
X92926187Y-70374180D01*
X92923975Y-70379687D01*
X92922892Y-70381537D01*
X92918729Y-70388549D01*
X92915195Y-70394996D01*
X92911365Y-70400900D01*
X92906318Y-70406286D01*
X92899129Y-70411178D01*
X92888877Y-70415598D01*
X92874636Y-70419572D01*
X92855486Y-70423121D01*
X92830501Y-70426270D01*
X92798760Y-70429042D01*
X92759338Y-70431461D01*
X92711314Y-70433551D01*
X92653763Y-70435335D01*
X92585763Y-70436837D01*
X92506390Y-70438080D01*
X92414721Y-70439089D01*
X92309834Y-70439885D01*
X92190804Y-70440494D01*
X92056710Y-70440939D01*
X91906627Y-70441243D01*
X91739633Y-70441430D01*
X91554804Y-70441524D01*
X91351217Y-70441548D01*
X91127950Y-70441525D01*
X90884078Y-70441480D01*
X90618679Y-70441437D01*
X90580296Y-70441432D01*
X90313318Y-70441389D01*
X90067998Y-70441318D01*
X89843417Y-70441213D01*
X89638655Y-70441066D01*
X89452794Y-70440869D01*
X89284912Y-70440616D01*
X89134092Y-70440300D01*
X88999413Y-70439913D01*
X88879956Y-70439447D01*
X88774801Y-70438897D01*
X88683029Y-70438253D01*
X88603721Y-70437511D01*
X88535957Y-70436661D01*
X88478818Y-70435697D01*
X88431383Y-70434611D01*
X88392734Y-70433397D01*
X88361951Y-70432047D01*
X88338115Y-70430555D01*
X88320306Y-70428911D01*
X88307605Y-70427111D01*
X88299092Y-70425145D01*
X88294734Y-70423477D01*
X88286272Y-70419906D01*
X88278503Y-70417270D01*
X88271398Y-70414634D01*
X88264927Y-70411062D01*
X88259061Y-70405621D01*
X88253771Y-70397375D01*
X88249026Y-70385390D01*
X88244798Y-70368731D01*
X88241057Y-70346463D01*
X88237773Y-70317652D01*
X88234917Y-70281363D01*
X88232460Y-70236661D01*
X88230371Y-70182611D01*
X88228622Y-70118279D01*
X88227183Y-70042730D01*
X88226024Y-69955030D01*
X88225117Y-69854243D01*
X88224431Y-69739434D01*
X88223937Y-69609670D01*
X88223605Y-69464015D01*
X88223407Y-69301535D01*
X88223313Y-69121295D01*
X88223292Y-68922360D01*
X88223315Y-68703796D01*
X88223354Y-68464668D01*
X88223378Y-68204040D01*
X88223378Y-68161889D01*
X88223364Y-67898992D01*
X88223339Y-67657732D01*
X88223329Y-67437165D01*
X88223358Y-67236352D01*
X88223452Y-67054349D01*
X88223638Y-66890216D01*
X88223941Y-66743011D01*
X88224386Y-66611792D01*
X88224966Y-66501867D01*
X88527803Y-66501867D01*
X88567593Y-66559711D01*
X88578764Y-66575479D01*
X88588834Y-66589441D01*
X88597862Y-66602784D01*
X88605903Y-66616693D01*
X88613014Y-66632356D01*
X88619253Y-66650958D01*
X88624675Y-66673686D01*
X88629338Y-66701727D01*
X88633299Y-66736267D01*
X88636615Y-66778492D01*
X88639341Y-66829589D01*
X88641536Y-66890744D01*
X88643255Y-66963144D01*
X88644556Y-67047975D01*
X88645495Y-67146422D01*
X88646130Y-67259674D01*
X88646516Y-67388916D01*
X88646712Y-67535334D01*
X88646773Y-67700116D01*
X88646757Y-67884447D01*
X88646720Y-68089513D01*
X88646711Y-68212133D01*
X88646735Y-68429082D01*
X88646769Y-68624642D01*
X88646757Y-68799999D01*
X88646642Y-68956341D01*
X88646370Y-69094857D01*
X88645882Y-69216734D01*
X88645124Y-69323160D01*
X88644038Y-69415322D01*
X88642569Y-69494409D01*
X88640660Y-69561608D01*
X88638256Y-69618107D01*
X88635299Y-69665093D01*
X88631734Y-69703755D01*
X88627505Y-69735280D01*
X88622554Y-69760855D01*
X88616827Y-69781670D01*
X88610267Y-69798911D01*
X88602817Y-69813765D01*
X88594421Y-69827422D01*
X88585024Y-69841069D01*
X88574568Y-69855893D01*
X88568477Y-69864783D01*
X88529704Y-69922400D01*
X89061268Y-69922400D01*
X89184517Y-69922365D01*
X89287013Y-69922215D01*
X89370580Y-69921878D01*
X89437044Y-69921286D01*
X89488229Y-69920367D01*
X89525959Y-69919051D01*
X89552060Y-69917269D01*
X89568356Y-69914951D01*
X89576672Y-69912026D01*
X89578832Y-69908424D01*
X89576661Y-69904075D01*
X89575465Y-69902645D01*
X89550315Y-69865573D01*
X89524417Y-69812772D01*
X89500808Y-69750770D01*
X89492539Y-69724357D01*
X89487922Y-69706416D01*
X89484021Y-69685355D01*
X89480752Y-69659089D01*
X89478034Y-69625532D01*
X89475785Y-69582599D01*
X89473923Y-69528204D01*
X89472364Y-69460262D01*
X89471028Y-69376688D01*
X89469831Y-69275395D01*
X89468692Y-69154300D01*
X89468315Y-69109600D01*
X89467298Y-68984449D01*
X89466540Y-68880082D01*
X89466097Y-68794707D01*
X89466030Y-68726533D01*
X89466395Y-68673765D01*
X89467252Y-68634614D01*
X89468659Y-68607285D01*
X89470675Y-68589986D01*
X89473357Y-68580926D01*
X89476764Y-68578312D01*
X89480956Y-68580351D01*
X89485429Y-68584667D01*
X89495784Y-68597602D01*
X89517842Y-68626676D01*
X89550043Y-68669759D01*
X89590826Y-68724718D01*
X89638630Y-68789423D01*
X89691895Y-68861742D01*
X89749060Y-68939544D01*
X89808563Y-69020698D01*
X89868845Y-69103072D01*
X89928345Y-69184536D01*
X89985502Y-69262957D01*
X90038755Y-69336204D01*
X90086543Y-69402147D01*
X90127307Y-69458654D01*
X90159484Y-69503593D01*
X90181515Y-69534834D01*
X90186083Y-69541466D01*
X90209004Y-69578369D01*
X90235812Y-69626359D01*
X90261211Y-69675897D01*
X90264432Y-69682577D01*
X90286110Y-69730772D01*
X90298696Y-69768334D01*
X90304426Y-69804160D01*
X90305544Y-69846200D01*
X90304910Y-69922400D01*
X91459349Y-69922400D01*
X91368185Y-69828669D01*
X91321388Y-69778775D01*
X91271101Y-69722295D01*
X91225056Y-69668026D01*
X91204631Y-69642673D01*
X91174193Y-69603128D01*
X91134138Y-69549916D01*
X91085639Y-69484667D01*
X91029865Y-69409011D01*
X90967989Y-69324577D01*
X90901181Y-69232994D01*
X90830613Y-69135892D01*
X90757455Y-69034901D01*
X90682879Y-68931650D01*
X90608056Y-68827768D01*
X90534157Y-68724885D01*
X90462354Y-68624631D01*
X90393816Y-68528636D01*
X90329716Y-68438527D01*
X90271225Y-68355936D01*
X90219514Y-68282492D01*
X90175753Y-68219824D01*
X90141115Y-68169561D01*
X90116770Y-68133334D01*
X90103889Y-68112771D01*
X90102131Y-68108668D01*
X90110090Y-68097342D01*
X90130885Y-68070162D01*
X90163153Y-68028829D01*
X90205530Y-67975044D01*
X90256653Y-67910506D01*
X90315159Y-67836918D01*
X90379686Y-67755978D01*
X90448869Y-67669388D01*
X90521347Y-67578848D01*
X90595754Y-67486060D01*
X90655483Y-67411702D01*
X91666489Y-67411702D01*
X91672398Y-67424659D01*
X91686728Y-67446908D01*
X91687775Y-67448391D01*
X91706562Y-67478544D01*
X91726209Y-67515375D01*
X91730108Y-67523511D01*
X91733644Y-67531940D01*
X91736770Y-67542059D01*
X91739514Y-67555260D01*
X91741908Y-67572938D01*
X91743981Y-67596484D01*
X91745765Y-67627293D01*
X91747288Y-67666757D01*
X91748581Y-67716269D01*
X91749674Y-67777223D01*
X91750597Y-67851011D01*
X91751381Y-67939028D01*
X91752055Y-68042665D01*
X91752650Y-68163316D01*
X91753195Y-68302374D01*
X91753721Y-68461232D01*
X91754255Y-68640089D01*
X91754794Y-68825207D01*
X91755228Y-68989145D01*
X91755491Y-69133303D01*
X91755516Y-69259079D01*
X91755235Y-69367871D01*
X91754581Y-69461077D01*
X91753486Y-69540097D01*
X91751882Y-69606328D01*
X91749703Y-69661170D01*
X91746881Y-69706021D01*
X91743349Y-69742278D01*
X91739039Y-69771341D01*
X91733883Y-69794609D01*
X91727815Y-69813479D01*
X91720767Y-69829351D01*
X91712671Y-69843622D01*
X91703460Y-69857691D01*
X91694960Y-69870158D01*
X91677824Y-69896452D01*
X91667678Y-69914037D01*
X91666489Y-69917257D01*
X91677396Y-69918334D01*
X91708589Y-69919335D01*
X91757777Y-69920235D01*
X91822667Y-69921010D01*
X91900970Y-69921637D01*
X91990393Y-69922091D01*
X92088644Y-69922349D01*
X92157555Y-69922400D01*
X92262548Y-69922180D01*
X92359390Y-69921548D01*
X92445893Y-69920549D01*
X92519868Y-69919227D01*
X92579126Y-69917626D01*
X92621480Y-69915791D01*
X92644740Y-69913765D01*
X92648622Y-69912493D01*
X92640924Y-69897591D01*
X92632926Y-69889560D01*
X92619754Y-69872434D01*
X92602515Y-69842183D01*
X92590593Y-69817622D01*
X92563955Y-69758711D01*
X92560880Y-68581845D01*
X92557805Y-67404978D01*
X92112147Y-67404978D01*
X92014330Y-67405142D01*
X91923936Y-67405611D01*
X91843370Y-67406347D01*
X91775038Y-67407316D01*
X91721344Y-67408480D01*
X91684695Y-67409803D01*
X91667496Y-67411249D01*
X91666489Y-67411702D01*
X90655483Y-67411702D01*
X90670730Y-67392722D01*
X90744910Y-67300537D01*
X90816931Y-67211204D01*
X90885431Y-67126424D01*
X90949045Y-67047898D01*
X91006412Y-66977326D01*
X91056167Y-66916409D01*
X91096948Y-66866847D01*
X91114112Y-66846178D01*
X91200404Y-66745516D01*
X91277003Y-66662259D01*
X91345817Y-66594438D01*
X91408752Y-66540089D01*
X91418133Y-66532722D01*
X91457644Y-66502117D01*
X90325884Y-66501867D01*
X90331173Y-66549844D01*
X90327870Y-66607188D01*
X90306339Y-66675463D01*
X90266365Y-66755212D01*
X90221057Y-66827495D01*
X90204839Y-66850140D01*
X90176786Y-66887696D01*
X90138570Y-66938021D01*
X90091863Y-66998973D01*
X90038339Y-67068411D01*
X89979669Y-67144194D01*
X89917525Y-67224180D01*
X89853579Y-67306228D01*
X89789505Y-67388196D01*
X89726973Y-67467943D01*
X89667657Y-67543327D01*
X89613229Y-67612207D01*
X89565361Y-67672442D01*
X89525725Y-67721889D01*
X89495994Y-67758408D01*
X89477839Y-67779858D01*
X89474780Y-67783156D01*
X89471921Y-67775149D01*
X89469707Y-67744855D01*
X89468143Y-67692556D01*
X89467233Y-67618531D01*
X89466980Y-67523063D01*
X89467387Y-67406434D01*
X89468296Y-67286445D01*
X89469618Y-67154333D01*
X89471143Y-67042594D01*
X89473119Y-66949025D01*
X89475794Y-66871419D01*
X89479418Y-66807574D01*
X89484239Y-66755283D01*
X89490506Y-66712344D01*
X89498468Y-66676551D01*
X89508373Y-66645700D01*
X89520469Y-66617586D01*
X89535007Y-66590005D01*
X89549689Y-66564966D01*
X89587686Y-66501867D01*
X88527803Y-66501867D01*
X88224966Y-66501867D01*
X88224999Y-66495617D01*
X88225805Y-66393544D01*
X88226830Y-66304633D01*
X88228100Y-66227941D01*
X88229640Y-66162527D01*
X88231476Y-66107449D01*
X88233633Y-66061765D01*
X88236137Y-66024534D01*
X88239013Y-65994813D01*
X88242287Y-65971662D01*
X88245985Y-65954139D01*
X88250131Y-65941301D01*
X88254753Y-65932208D01*
X88259874Y-65925918D01*
X88265522Y-65921488D01*
X88271721Y-65917978D01*
X88278496Y-65914445D01*
X88284492Y-65910876D01*
X88289725Y-65908300D01*
X88297901Y-65905972D01*
X88310114Y-65903878D01*
X88327459Y-65902007D01*
X88351031Y-65900347D01*
X88381923Y-65898884D01*
X88421232Y-65897608D01*
X88470050Y-65896504D01*
X88529473Y-65895561D01*
X88600596Y-65894767D01*
X88684512Y-65894109D01*
X88782317Y-65893575D01*
X88895106Y-65893153D01*
X89023971Y-65892829D01*
X89170009Y-65892592D01*
X89334314Y-65892430D01*
X89517980Y-65892330D01*
X89722103Y-65892280D01*
X89933247Y-65892267D01*
X91553600Y-65892267D01*
X91553600Y-65989054D01*
G36*
X91553600Y-65989054D02*
G01*
X91564465Y-66102993D01*
X91596082Y-66210616D01*
X91646985Y-66309615D01*
X91715707Y-66397684D01*
X91800781Y-66472516D01*
X91897768Y-66530384D01*
X92004036Y-66570005D01*
X92111050Y-66588573D01*
X92216700Y-66587434D01*
X92318875Y-66567930D01*
X92415466Y-66531406D01*
X92504362Y-66479205D01*
X92583454Y-66412673D01*
X92650631Y-66333152D01*
X92703783Y-66241987D01*
X92740801Y-66140523D01*
X92759573Y-66030102D01*
X92761511Y-65980206D01*
X92761511Y-65892267D01*
X92813440Y-65892267D01*
X92849747Y-65895111D01*
X92876645Y-65906911D01*
X92903751Y-65930649D01*
X92942133Y-65969031D01*
X92942133Y-68160602D01*
X92942124Y-68422739D01*
X92942092Y-68663241D01*
X92942028Y-68883048D01*
X92941924Y-69083101D01*
X92941773Y-69264344D01*
X92941566Y-69427716D01*
X92941294Y-69574160D01*
X92940950Y-69704617D01*
X92940526Y-69820029D01*
X92940013Y-69921338D01*
X92939403Y-70009484D01*
X92938688Y-70085410D01*
X92937860Y-70150057D01*
X92936911Y-70204367D01*
X92935833Y-70249280D01*
X92934617Y-70285740D01*
X92933255Y-70314687D01*
X92931739Y-70337063D01*
X92930062Y-70353809D01*
X92928214Y-70365868D01*
X92926187Y-70374180D01*
X92923975Y-70379687D01*
X92922892Y-70381537D01*
X92918729Y-70388549D01*
X92915195Y-70394996D01*
X92911365Y-70400900D01*
X92906318Y-70406286D01*
X92899129Y-70411178D01*
X92888877Y-70415598D01*
X92874636Y-70419572D01*
X92855486Y-70423121D01*
X92830501Y-70426270D01*
X92798760Y-70429042D01*
X92759338Y-70431461D01*
X92711314Y-70433551D01*
X92653763Y-70435335D01*
X92585763Y-70436837D01*
X92506390Y-70438080D01*
X92414721Y-70439089D01*
X92309834Y-70439885D01*
X92190804Y-70440494D01*
X92056710Y-70440939D01*
X91906627Y-70441243D01*
X91739633Y-70441430D01*
X91554804Y-70441524D01*
X91351217Y-70441548D01*
X91127950Y-70441525D01*
X90884078Y-70441480D01*
X90618679Y-70441437D01*
X90580296Y-70441432D01*
X90313318Y-70441389D01*
X90067998Y-70441318D01*
X89843417Y-70441213D01*
X89638655Y-70441066D01*
X89452794Y-70440869D01*
X89284912Y-70440616D01*
X89134092Y-70440300D01*
X88999413Y-70439913D01*
X88879956Y-70439447D01*
X88774801Y-70438897D01*
X88683029Y-70438253D01*
X88603721Y-70437511D01*
X88535957Y-70436661D01*
X88478818Y-70435697D01*
X88431383Y-70434611D01*
X88392734Y-70433397D01*
X88361951Y-70432047D01*
X88338115Y-70430555D01*
X88320306Y-70428911D01*
X88307605Y-70427111D01*
X88299092Y-70425145D01*
X88294734Y-70423477D01*
X88286272Y-70419906D01*
X88278503Y-70417270D01*
X88271398Y-70414634D01*
X88264927Y-70411062D01*
X88259061Y-70405621D01*
X88253771Y-70397375D01*
X88249026Y-70385390D01*
X88244798Y-70368731D01*
X88241057Y-70346463D01*
X88237773Y-70317652D01*
X88234917Y-70281363D01*
X88232460Y-70236661D01*
X88230371Y-70182611D01*
X88228622Y-70118279D01*
X88227183Y-70042730D01*
X88226024Y-69955030D01*
X88225117Y-69854243D01*
X88224431Y-69739434D01*
X88223937Y-69609670D01*
X88223605Y-69464015D01*
X88223407Y-69301535D01*
X88223313Y-69121295D01*
X88223292Y-68922360D01*
X88223315Y-68703796D01*
X88223354Y-68464668D01*
X88223378Y-68204040D01*
X88223378Y-68161889D01*
X88223364Y-67898992D01*
X88223339Y-67657732D01*
X88223329Y-67437165D01*
X88223358Y-67236352D01*
X88223452Y-67054349D01*
X88223638Y-66890216D01*
X88223941Y-66743011D01*
X88224386Y-66611792D01*
X88224966Y-66501867D01*
X88527803Y-66501867D01*
X88567593Y-66559711D01*
X88578764Y-66575479D01*
X88588834Y-66589441D01*
X88597862Y-66602784D01*
X88605903Y-66616693D01*
X88613014Y-66632356D01*
X88619253Y-66650958D01*
X88624675Y-66673686D01*
X88629338Y-66701727D01*
X88633299Y-66736267D01*
X88636615Y-66778492D01*
X88639341Y-66829589D01*
X88641536Y-66890744D01*
X88643255Y-66963144D01*
X88644556Y-67047975D01*
X88645495Y-67146422D01*
X88646130Y-67259674D01*
X88646516Y-67388916D01*
X88646712Y-67535334D01*
X88646773Y-67700116D01*
X88646757Y-67884447D01*
X88646720Y-68089513D01*
X88646711Y-68212133D01*
X88646735Y-68429082D01*
X88646769Y-68624642D01*
X88646757Y-68799999D01*
X88646642Y-68956341D01*
X88646370Y-69094857D01*
X88645882Y-69216734D01*
X88645124Y-69323160D01*
X88644038Y-69415322D01*
X88642569Y-69494409D01*
X88640660Y-69561608D01*
X88638256Y-69618107D01*
X88635299Y-69665093D01*
X88631734Y-69703755D01*
X88627505Y-69735280D01*
X88622554Y-69760855D01*
X88616827Y-69781670D01*
X88610267Y-69798911D01*
X88602817Y-69813765D01*
X88594421Y-69827422D01*
X88585024Y-69841069D01*
X88574568Y-69855893D01*
X88568477Y-69864783D01*
X88529704Y-69922400D01*
X89061268Y-69922400D01*
X89184517Y-69922365D01*
X89287013Y-69922215D01*
X89370580Y-69921878D01*
X89437044Y-69921286D01*
X89488229Y-69920367D01*
X89525959Y-69919051D01*
X89552060Y-69917269D01*
X89568356Y-69914951D01*
X89576672Y-69912026D01*
X89578832Y-69908424D01*
X89576661Y-69904075D01*
X89575465Y-69902645D01*
X89550315Y-69865573D01*
X89524417Y-69812772D01*
X89500808Y-69750770D01*
X89492539Y-69724357D01*
X89487922Y-69706416D01*
X89484021Y-69685355D01*
X89480752Y-69659089D01*
X89478034Y-69625532D01*
X89475785Y-69582599D01*
X89473923Y-69528204D01*
X89472364Y-69460262D01*
X89471028Y-69376688D01*
X89469831Y-69275395D01*
X89468692Y-69154300D01*
X89468315Y-69109600D01*
X89467298Y-68984449D01*
X89466540Y-68880082D01*
X89466097Y-68794707D01*
X89466030Y-68726533D01*
X89466395Y-68673765D01*
X89467252Y-68634614D01*
X89468659Y-68607285D01*
X89470675Y-68589986D01*
X89473357Y-68580926D01*
X89476764Y-68578312D01*
X89480956Y-68580351D01*
X89485429Y-68584667D01*
X89495784Y-68597602D01*
X89517842Y-68626676D01*
X89550043Y-68669759D01*
X89590826Y-68724718D01*
X89638630Y-68789423D01*
X89691895Y-68861742D01*
X89749060Y-68939544D01*
X89808563Y-69020698D01*
X89868845Y-69103072D01*
X89928345Y-69184536D01*
X89985502Y-69262957D01*
X90038755Y-69336204D01*
X90086543Y-69402147D01*
X90127307Y-69458654D01*
X90159484Y-69503593D01*
X90181515Y-69534834D01*
X90186083Y-69541466D01*
X90209004Y-69578369D01*
X90235812Y-69626359D01*
X90261211Y-69675897D01*
X90264432Y-69682577D01*
X90286110Y-69730772D01*
X90298696Y-69768334D01*
X90304426Y-69804160D01*
X90305544Y-69846200D01*
X90304910Y-69922400D01*
X91459349Y-69922400D01*
X91454347Y-69917257D01*
X91666489Y-69917257D01*
X91677396Y-69918334D01*
X91708589Y-69919335D01*
X91757777Y-69920235D01*
X91822667Y-69921010D01*
X91900970Y-69921637D01*
X91990393Y-69922091D01*
X92088644Y-69922349D01*
X92157555Y-69922400D01*
X92262548Y-69922180D01*
X92359390Y-69921548D01*
X92445893Y-69920549D01*
X92519868Y-69919227D01*
X92579126Y-69917626D01*
X92621480Y-69915791D01*
X92644740Y-69913765D01*
X92648622Y-69912493D01*
X92640924Y-69897591D01*
X92632926Y-69889560D01*
X92619754Y-69872434D01*
X92602515Y-69842183D01*
X92590593Y-69817622D01*
X92563955Y-69758711D01*
X92560880Y-68581845D01*
X92557805Y-67404978D01*
X92112147Y-67404978D01*
X92014330Y-67405142D01*
X91923936Y-67405611D01*
X91843370Y-67406347D01*
X91775038Y-67407316D01*
X91721344Y-67408480D01*
X91684695Y-67409803D01*
X91667496Y-67411249D01*
X91666489Y-67411702D01*
X91672398Y-67424659D01*
X91686728Y-67446908D01*
X91687775Y-67448391D01*
X91706562Y-67478544D01*
X91726209Y-67515375D01*
X91730108Y-67523511D01*
X91733644Y-67531940D01*
X91736770Y-67542059D01*
X91739514Y-67555260D01*
X91741908Y-67572938D01*
X91743981Y-67596484D01*
X91745765Y-67627293D01*
X91747288Y-67666757D01*
X91748581Y-67716269D01*
X91749674Y-67777223D01*
X91750597Y-67851011D01*
X91751381Y-67939028D01*
X91752055Y-68042665D01*
X91752650Y-68163316D01*
X91753195Y-68302374D01*
X91753721Y-68461232D01*
X91754255Y-68640089D01*
X91754794Y-68825207D01*
X91755228Y-68989145D01*
X91755491Y-69133303D01*
X91755516Y-69259079D01*
X91755235Y-69367871D01*
X91754581Y-69461077D01*
X91753486Y-69540097D01*
X91751882Y-69606328D01*
X91749703Y-69661170D01*
X91746881Y-69706021D01*
X91743349Y-69742278D01*
X91739039Y-69771341D01*
X91733883Y-69794609D01*
X91727815Y-69813479D01*
X91720767Y-69829351D01*
X91712671Y-69843622D01*
X91703460Y-69857691D01*
X91694960Y-69870158D01*
X91677824Y-69896452D01*
X91667678Y-69914037D01*
X91666489Y-69917257D01*
X91454347Y-69917257D01*
X91368185Y-69828669D01*
X91321388Y-69778775D01*
X91271101Y-69722295D01*
X91225056Y-69668026D01*
X91204631Y-69642673D01*
X91174193Y-69603128D01*
X91134138Y-69549916D01*
X91085639Y-69484667D01*
X91029865Y-69409011D01*
X90967989Y-69324577D01*
X90901181Y-69232994D01*
X90830613Y-69135892D01*
X90757455Y-69034901D01*
X90682879Y-68931650D01*
X90608056Y-68827768D01*
X90534157Y-68724885D01*
X90462354Y-68624631D01*
X90393816Y-68528636D01*
X90329716Y-68438527D01*
X90271225Y-68355936D01*
X90219514Y-68282492D01*
X90175753Y-68219824D01*
X90141115Y-68169561D01*
X90116770Y-68133334D01*
X90103889Y-68112771D01*
X90102131Y-68108668D01*
X90110090Y-68097342D01*
X90130885Y-68070162D01*
X90163153Y-68028829D01*
X90205530Y-67975044D01*
X90256653Y-67910506D01*
X90315159Y-67836918D01*
X90379686Y-67755978D01*
X90448869Y-67669388D01*
X90521347Y-67578848D01*
X90595754Y-67486060D01*
X90655483Y-67411702D01*
X90670730Y-67392722D01*
X90744910Y-67300537D01*
X90816931Y-67211204D01*
X90885431Y-67126424D01*
X90949045Y-67047898D01*
X91006412Y-66977326D01*
X91056167Y-66916409D01*
X91096948Y-66866847D01*
X91114112Y-66846178D01*
X91200404Y-66745516D01*
X91277003Y-66662259D01*
X91345817Y-66594438D01*
X91408752Y-66540089D01*
X91418133Y-66532722D01*
X91457644Y-66502117D01*
X90325884Y-66501867D01*
X90331173Y-66549844D01*
X90327870Y-66607188D01*
X90306339Y-66675463D01*
X90266365Y-66755212D01*
X90221057Y-66827495D01*
X90204839Y-66850140D01*
X90176786Y-66887696D01*
X90138570Y-66938021D01*
X90091863Y-66998973D01*
X90038339Y-67068411D01*
X89979669Y-67144194D01*
X89917525Y-67224180D01*
X89853579Y-67306228D01*
X89789505Y-67388196D01*
X89726973Y-67467943D01*
X89667657Y-67543327D01*
X89613229Y-67612207D01*
X89565361Y-67672442D01*
X89525725Y-67721889D01*
X89495994Y-67758408D01*
X89477839Y-67779858D01*
X89474780Y-67783156D01*
X89471921Y-67775149D01*
X89469707Y-67744855D01*
X89468143Y-67692556D01*
X89467233Y-67618531D01*
X89466980Y-67523063D01*
X89467387Y-67406434D01*
X89468296Y-67286445D01*
X89469618Y-67154333D01*
X89471143Y-67042594D01*
X89473119Y-66949025D01*
X89475794Y-66871419D01*
X89479418Y-66807574D01*
X89484239Y-66755283D01*
X89490506Y-66712344D01*
X89498468Y-66676551D01*
X89508373Y-66645700D01*
X89520469Y-66617586D01*
X89535007Y-66590005D01*
X89549689Y-66564966D01*
X89587686Y-66501867D01*
X88527803Y-66501867D01*
X88224966Y-66501867D01*
X88224999Y-66495617D01*
X88225805Y-66393544D01*
X88226830Y-66304633D01*
X88228100Y-66227941D01*
X88229640Y-66162527D01*
X88231476Y-66107449D01*
X88233633Y-66061765D01*
X88236137Y-66024534D01*
X88239013Y-65994813D01*
X88242287Y-65971662D01*
X88245985Y-65954139D01*
X88250131Y-65941301D01*
X88254753Y-65932208D01*
X88259874Y-65925918D01*
X88265522Y-65921488D01*
X88271721Y-65917978D01*
X88278496Y-65914445D01*
X88284492Y-65910876D01*
X88289725Y-65908300D01*
X88297901Y-65905972D01*
X88310114Y-65903878D01*
X88327459Y-65902007D01*
X88351031Y-65900347D01*
X88381923Y-65898884D01*
X88421232Y-65897608D01*
X88470050Y-65896504D01*
X88529473Y-65895561D01*
X88600596Y-65894767D01*
X88684512Y-65894109D01*
X88782317Y-65893575D01*
X88895106Y-65893153D01*
X89023971Y-65892829D01*
X89170009Y-65892592D01*
X89334314Y-65892430D01*
X89517980Y-65892330D01*
X89722103Y-65892280D01*
X89933247Y-65892267D01*
X91553600Y-65892267D01*
X91553600Y-65989054D01*
G37*
%TO.C,C12*%
D13*
X85140580Y-73240000D02*
X84859420Y-73240000D01*
X85140580Y-74260000D02*
X84859420Y-74260000D01*
%TO.C,C3*%
X70765000Y-70188748D02*
X70765000Y-70711252D01*
X72235000Y-70188748D02*
X72235000Y-70711252D01*
%TO.C,C8*%
X77240000Y-87140580D02*
X77240000Y-86859420D01*
X78260000Y-87140580D02*
X78260000Y-86859420D01*
%TO.C,R5*%
X89237258Y-71727500D02*
X88762742Y-71727500D01*
X89237258Y-72772500D02*
X88762742Y-72772500D01*
%TO.C,C11*%
X81265000Y-79238748D02*
X81265000Y-79761252D01*
X82735000Y-79238748D02*
X82735000Y-79761252D01*
%TO.C,R7*%
X86512742Y-86727500D02*
X86987258Y-86727500D01*
X86512742Y-87772500D02*
X86987258Y-87772500D01*
%TO.C,C9*%
X83490000Y-86834420D02*
X83490000Y-87115580D01*
X84510000Y-86834420D02*
X84510000Y-87115580D01*
%TO.C,J2*%
X101325000Y-80635000D02*
X101325000Y-80000000D01*
X101960000Y-80635000D02*
X101325000Y-80635000D01*
%TO.C,R6*%
X89987258Y-86727500D02*
X89512742Y-86727500D01*
X89987258Y-87772500D02*
X89512742Y-87772500D01*
%TO.C,C7*%
X76815580Y-76490000D02*
X76534420Y-76490000D01*
X76815580Y-77510000D02*
X76534420Y-77510000D01*
%TO.C,R4*%
X81262742Y-81477500D02*
X81737258Y-81477500D01*
X81262742Y-82522500D02*
X81737258Y-82522500D01*
%TO.C,C2*%
X67165000Y-74140580D02*
X67165000Y-73859420D01*
X68185000Y-74140580D02*
X68185000Y-73859420D01*
%TO.C,R1*%
X66687742Y-75727500D02*
X67162258Y-75727500D01*
X66687742Y-76772500D02*
X67162258Y-76772500D01*
%TO.C,C5*%
X77265000Y-70238748D02*
X77265000Y-70761252D01*
X78735000Y-70238748D02*
X78735000Y-70761252D01*
%TO.C,J1*%
X58545000Y-74055000D02*
X60245000Y-74055000D01*
X58545000Y-83395000D02*
X60245000Y-83395000D01*
%TO.C,R8*%
X95977500Y-81937742D02*
X95977500Y-82412258D01*
X97022500Y-81937742D02*
X97022500Y-82412258D01*
%TO.C,U4*%
X87127500Y-90910000D02*
X87127500Y-90685000D01*
X87377500Y-88690000D02*
X87527500Y-88690000D01*
X87527500Y-90910000D02*
X87127500Y-90910000D01*
X88947500Y-88690000D02*
X89347500Y-88690000D01*
X89347500Y-88690000D02*
X89347500Y-88915000D01*
X89347500Y-90685000D02*
X89347500Y-90910000D01*
X89347500Y-90910000D02*
X88947500Y-90910000D01*
X87137500Y-89000000D02*
X86857500Y-89000000D01*
X87137500Y-88720000D01*
X87137500Y-89000000D01*
G36*
X87137500Y-89000000D02*
G01*
X86857500Y-89000000D01*
X87137500Y-88720000D01*
X87137500Y-89000000D01*
G37*
%TO.C,C13*%
X90240000Y-90115580D02*
X90240000Y-89834420D01*
X91260000Y-90115580D02*
X91260000Y-89834420D01*
%TO.C,C14*%
X97490000Y-82315580D02*
X97490000Y-82034420D01*
X98510000Y-82315580D02*
X98510000Y-82034420D01*
%TO.C,C6*%
X76909420Y-81490000D02*
X77190580Y-81490000D01*
X76909420Y-82510000D02*
X77190580Y-82510000D01*
%TO.C,C1*%
X65665000Y-74140580D02*
X65665000Y-73859420D01*
X66685000Y-74140580D02*
X66685000Y-73859420D01*
%TO.C,U2*%
X73740000Y-77865000D02*
X76960000Y-77865000D01*
X73740000Y-78040000D02*
X73740000Y-77865000D01*
X73740000Y-81085000D02*
X73740000Y-80910000D01*
X76960000Y-77865000D02*
X76960000Y-78040000D01*
X76960000Y-80910000D02*
X76960000Y-81085000D01*
X76960000Y-81085000D02*
X73740000Y-81085000D01*
X73190000Y-78035000D02*
X72950000Y-77705000D01*
X73430000Y-77705000D01*
X73190000Y-78035000D01*
G36*
X73190000Y-78035000D02*
G01*
X72950000Y-77705000D01*
X73430000Y-77705000D01*
X73190000Y-78035000D01*
G37*
%TO.C,R2*%
X63262742Y-84477500D02*
X63737258Y-84477500D01*
X63262742Y-85522500D02*
X63737258Y-85522500D01*
%TO.C,U1*%
X73840000Y-69190000D02*
X75660000Y-69190000D01*
X73840000Y-69240000D02*
X73840000Y-69190000D01*
X73840000Y-72310000D02*
X73840000Y-72260000D01*
X75660000Y-69190000D02*
X75660000Y-69240000D01*
X75660000Y-70360000D02*
X75660000Y-71140000D01*
X75660000Y-72260000D02*
X75660000Y-72310000D01*
X75660000Y-72310000D02*
X73840000Y-72310000D01*
X73300000Y-69240000D02*
X73060000Y-68910000D01*
X73540000Y-68910000D01*
X73300000Y-69240000D01*
G36*
X73300000Y-69240000D02*
G01*
X73060000Y-68910000D01*
X73540000Y-68910000D01*
X73300000Y-69240000D01*
G37*
%TO.C,X1*%
X78840000Y-85190000D02*
X78840000Y-88610000D01*
X78840000Y-88610000D02*
X82960000Y-88610000D01*
%TO.C,D1*%
X66090000Y-77190000D02*
X67910000Y-77190000D01*
X66090000Y-77240000D02*
X66090000Y-77190000D01*
X66090000Y-80310000D02*
X66090000Y-80260000D01*
X67910000Y-77190000D02*
X67910000Y-77240000D01*
X67910000Y-80260000D02*
X67910000Y-80310000D01*
X67910000Y-80310000D02*
X66090000Y-80310000D01*
X65550000Y-77240000D02*
X65310000Y-76910000D01*
X65790000Y-76910000D01*
X65550000Y-77240000D01*
G36*
X65550000Y-77240000D02*
G01*
X65310000Y-76910000D01*
X65790000Y-76910000D01*
X65550000Y-77240000D01*
G37*
%TO.C,U3*%
X84865000Y-76140000D02*
X85315000Y-76140000D01*
X84865000Y-76590000D02*
X84865000Y-76140000D01*
X84865000Y-83360000D02*
X84865000Y-82910000D01*
X85315000Y-83360000D02*
X84865000Y-83360000D01*
X91635000Y-76140000D02*
X92085000Y-76140000D01*
X92085000Y-76140000D02*
X92085000Y-76590000D01*
X92085000Y-82910000D02*
X92085000Y-83360000D01*
X92085000Y-83360000D02*
X91635000Y-83360000D01*
X84225000Y-76590000D02*
X83885000Y-76120000D01*
X84565000Y-76120000D01*
X84225000Y-76590000D01*
G36*
X84225000Y-76590000D02*
G01*
X83885000Y-76120000D01*
X84565000Y-76120000D01*
X84225000Y-76590000D01*
G37*
%TO.C,R3*%
X63262742Y-71977500D02*
X63737258Y-71977500D01*
X63262742Y-73022500D02*
X63737258Y-73022500D01*
%TO.C,C10*%
X89140580Y-73240000D02*
X88859420Y-73240000D01*
X89140580Y-74260000D02*
X88859420Y-74260000D01*
%TO.C,C4*%
X74890580Y-72740000D02*
X74609420Y-72740000D01*
X74890580Y-73760000D02*
X74609420Y-73760000D01*
%TD*%
M02*
