%TF.GenerationSoftware,KiCad,Pcbnew,10.0.4*%
%TF.CreationDate,2026-08-28T23:37:24+05:30*%
%TF.ProjectId,MSPMO,4d53504d-4f2e-46b6-9963-61645f706362,rev?*%
%TF.SameCoordinates,Original*%
%TF.FileFunction,Soldermask,Bot*%
%TF.FilePolarity,Negative*%
%FSLAX46Y46*%
G04 Gerber Fmt 4.6, Leading zero omitted, Abs format (unit mm)*
G04 Created by KiCad (PCBNEW 10.0.4) date 2026-08-28 23:37:24*
%MOMM*%
%LPD*%
G01*
G04 APERTURE LIST*
G04 APERTURE END LIST*
G36*
X60084211Y-85735718D02*
G01*
X60401835Y-85798897D01*
X60711737Y-85892905D01*
X61010932Y-86016835D01*
X61296539Y-86169496D01*
X61565808Y-86349415D01*
X61816145Y-86554861D01*
X62045139Y-86783855D01*
X62250585Y-87034192D01*
X62430504Y-87303461D01*
X62583165Y-87589068D01*
X62707095Y-87888263D01*
X62801103Y-88198165D01*
X62864282Y-88515789D01*
X62896025Y-88838077D01*
X62896025Y-89161923D01*
X62864282Y-89484211D01*
X62801103Y-89801835D01*
X62707095Y-90111737D01*
X62583165Y-90410932D01*
X62430504Y-90696539D01*
X62250585Y-90965808D01*
X62045139Y-91216145D01*
X61816145Y-91445139D01*
X61565808Y-91650585D01*
X61296539Y-91830504D01*
X61010932Y-91983165D01*
X60711737Y-92107095D01*
X60401835Y-92201103D01*
X60084211Y-92264282D01*
X59761923Y-92296025D01*
X59438077Y-92296025D01*
X59115789Y-92264282D01*
X58798165Y-92201103D01*
X58488263Y-92107095D01*
X58189068Y-91983165D01*
X57903461Y-91830504D01*
X57634192Y-91650585D01*
X57383855Y-91445139D01*
X57154861Y-91216145D01*
X56949415Y-90965808D01*
X56769496Y-90696539D01*
X56616835Y-90410932D01*
X56492905Y-90111737D01*
X56398897Y-89801835D01*
X56335718Y-89484211D01*
X56303975Y-89161923D01*
X56303975Y-88838077D01*
X56335718Y-88515789D01*
X56398897Y-88198165D01*
X56492905Y-87888263D01*
X56616835Y-87589068D01*
X56769496Y-87303461D01*
X56949415Y-87034192D01*
X57154861Y-86783855D01*
X57383855Y-86554861D01*
X57634192Y-86349415D01*
X57903461Y-86169496D01*
X58189068Y-86016835D01*
X58488263Y-85892905D01*
X58798165Y-85798897D01*
X59115789Y-85735718D01*
X59438077Y-85703975D01*
X59761923Y-85703975D01*
X60084211Y-85735718D01*
G37*
G36*
X105234211Y-85735718D02*
G01*
X105551835Y-85798897D01*
X105861737Y-85892905D01*
X106160932Y-86016835D01*
X106446539Y-86169496D01*
X106715808Y-86349415D01*
X106966145Y-86554861D01*
X107195139Y-86783855D01*
X107400585Y-87034192D01*
X107580504Y-87303461D01*
X107733165Y-87589068D01*
X107857095Y-87888263D01*
X107951103Y-88198165D01*
X108014282Y-88515789D01*
X108046025Y-88838077D01*
X108046025Y-89161923D01*
X108014282Y-89484211D01*
X107951103Y-89801835D01*
X107857095Y-90111737D01*
X107733165Y-90410932D01*
X107580504Y-90696539D01*
X107400585Y-90965808D01*
X107195139Y-91216145D01*
X106966145Y-91445139D01*
X106715808Y-91650585D01*
X106446539Y-91830504D01*
X106160932Y-91983165D01*
X105861737Y-92107095D01*
X105551835Y-92201103D01*
X105234211Y-92264282D01*
X104911923Y-92296025D01*
X104588077Y-92296025D01*
X104265789Y-92264282D01*
X103948165Y-92201103D01*
X103638263Y-92107095D01*
X103339068Y-91983165D01*
X103053461Y-91830504D01*
X102784192Y-91650585D01*
X102533855Y-91445139D01*
X102304861Y-91216145D01*
X102099415Y-90965808D01*
X101919496Y-90696539D01*
X101766835Y-90410932D01*
X101642905Y-90111737D01*
X101548897Y-89801835D01*
X101485718Y-89484211D01*
X101453975Y-89161923D01*
X101453975Y-88838077D01*
X101485718Y-88515789D01*
X101548897Y-88198165D01*
X101642905Y-87888263D01*
X101766835Y-87589068D01*
X101919496Y-87303461D01*
X102099415Y-87034192D01*
X102304861Y-86783855D01*
X102533855Y-86554861D01*
X102784192Y-86349415D01*
X103053461Y-86169496D01*
X103339068Y-86016835D01*
X103638263Y-85892905D01*
X103948165Y-85798897D01*
X104265789Y-85735718D01*
X104588077Y-85703975D01*
X104911923Y-85703975D01*
X105234211Y-85735718D01*
G37*
G36*
X57773686Y-82445241D02*
G01*
X57827577Y-82447889D01*
X57834210Y-82449208D01*
X57848316Y-82450133D01*
X57875562Y-82457433D01*
X57944099Y-82471066D01*
X57976448Y-82484465D01*
X57999610Y-82490672D01*
X58020377Y-82502662D01*
X58052722Y-82516060D01*
X58110816Y-82554877D01*
X58135257Y-82568988D01*
X58141946Y-82575677D01*
X58150481Y-82581380D01*
X58233619Y-82664518D01*
X58239321Y-82673052D01*
X58246012Y-82679743D01*
X58260124Y-82704186D01*
X58298939Y-82762277D01*
X58312335Y-82794618D01*
X58324328Y-82815390D01*
X58330535Y-82838555D01*
X58343933Y-82870900D01*
X58357565Y-82939433D01*
X58364867Y-82966684D01*
X58364867Y-82976141D01*
X58366870Y-82986211D01*
X58366870Y-83103788D01*
X58364867Y-83113857D01*
X58364867Y-83123316D01*
X58357564Y-83150569D01*
X58343933Y-83219099D01*
X58330535Y-83251441D01*
X58324328Y-83274610D01*
X58312334Y-83295383D01*
X58298939Y-83327722D01*
X58260128Y-83385805D01*
X58246012Y-83410257D01*
X58239319Y-83416949D01*
X58233619Y-83425481D01*
X58150481Y-83508619D01*
X58141949Y-83514319D01*
X58135257Y-83521012D01*
X58110805Y-83535128D01*
X58052722Y-83573939D01*
X58020383Y-83587334D01*
X57999610Y-83599328D01*
X57976441Y-83605535D01*
X57944099Y-83618933D01*
X57875576Y-83632562D01*
X57848316Y-83639867D01*
X57834203Y-83640791D01*
X57827577Y-83642110D01*
X57773691Y-83644758D01*
X57770000Y-83645000D01*
X57768768Y-83645000D01*
X56971232Y-83645000D01*
X56970000Y-83645000D01*
X56966308Y-83644758D01*
X56912422Y-83642110D01*
X56905795Y-83640791D01*
X56891684Y-83639867D01*
X56864426Y-83632563D01*
X56795900Y-83618933D01*
X56763555Y-83605535D01*
X56740390Y-83599328D01*
X56719618Y-83587335D01*
X56687277Y-83573939D01*
X56629186Y-83535124D01*
X56604743Y-83521012D01*
X56598052Y-83514321D01*
X56589518Y-83508619D01*
X56506380Y-83425481D01*
X56500677Y-83416946D01*
X56493988Y-83410257D01*
X56479877Y-83385816D01*
X56441060Y-83327722D01*
X56427662Y-83295377D01*
X56415672Y-83274610D01*
X56409465Y-83251448D01*
X56396066Y-83219099D01*
X56382433Y-83150563D01*
X56375133Y-83123316D01*
X56375133Y-83113858D01*
X56373130Y-83103788D01*
X56373130Y-82986211D01*
X56375133Y-82976140D01*
X56375133Y-82966684D01*
X56382433Y-82939439D01*
X56396066Y-82870900D01*
X56409466Y-82838548D01*
X56415672Y-82815390D01*
X56427660Y-82794624D01*
X56441060Y-82762277D01*
X56479881Y-82704175D01*
X56493988Y-82679743D01*
X56500675Y-82673055D01*
X56506380Y-82664518D01*
X56589518Y-82581380D01*
X56598055Y-82575675D01*
X56604743Y-82568988D01*
X56629175Y-82554881D01*
X56687277Y-82516060D01*
X56719624Y-82502660D01*
X56740390Y-82490672D01*
X56763548Y-82484466D01*
X56795900Y-82471066D01*
X56864440Y-82457432D01*
X56891684Y-82450133D01*
X56905787Y-82449208D01*
X56912422Y-82447889D01*
X56966313Y-82445241D01*
X56970000Y-82445000D01*
X57770000Y-82445000D01*
X57773686Y-82445241D01*
G37*
G36*
X62103686Y-82445241D02*
G01*
X62157577Y-82447889D01*
X62164210Y-82449208D01*
X62178316Y-82450133D01*
X62205562Y-82457433D01*
X62274099Y-82471066D01*
X62306448Y-82484465D01*
X62329610Y-82490672D01*
X62350377Y-82502662D01*
X62382722Y-82516060D01*
X62440816Y-82554877D01*
X62465257Y-82568988D01*
X62471946Y-82575677D01*
X62480481Y-82581380D01*
X62563619Y-82664518D01*
X62569321Y-82673052D01*
X62576012Y-82679743D01*
X62590124Y-82704186D01*
X62628939Y-82762277D01*
X62642335Y-82794618D01*
X62654328Y-82815390D01*
X62660535Y-82838555D01*
X62673933Y-82870900D01*
X62687565Y-82939433D01*
X62694867Y-82966684D01*
X62694867Y-82976141D01*
X62696870Y-82986211D01*
X62696870Y-83103788D01*
X62694867Y-83113857D01*
X62694867Y-83123316D01*
X62687564Y-83150569D01*
X62673933Y-83219099D01*
X62660535Y-83251441D01*
X62654328Y-83274610D01*
X62642334Y-83295383D01*
X62628939Y-83327722D01*
X62590128Y-83385805D01*
X62576012Y-83410257D01*
X62569319Y-83416949D01*
X62563619Y-83425481D01*
X62480481Y-83508619D01*
X62471949Y-83514319D01*
X62465257Y-83521012D01*
X62440805Y-83535128D01*
X62382722Y-83573939D01*
X62350383Y-83587334D01*
X62329610Y-83599328D01*
X62306441Y-83605535D01*
X62274099Y-83618933D01*
X62205576Y-83632562D01*
X62178316Y-83639867D01*
X62164203Y-83640791D01*
X62157577Y-83642110D01*
X62103691Y-83644758D01*
X62100000Y-83645000D01*
X62098768Y-83645000D01*
X61001232Y-83645000D01*
X61000000Y-83645000D01*
X60996308Y-83644758D01*
X60942422Y-83642110D01*
X60935795Y-83640791D01*
X60921684Y-83639867D01*
X60894426Y-83632563D01*
X60825900Y-83618933D01*
X60793555Y-83605535D01*
X60770390Y-83599328D01*
X60749618Y-83587335D01*
X60717277Y-83573939D01*
X60659186Y-83535124D01*
X60634743Y-83521012D01*
X60628052Y-83514321D01*
X60619518Y-83508619D01*
X60536380Y-83425481D01*
X60530677Y-83416946D01*
X60523988Y-83410257D01*
X60509877Y-83385816D01*
X60471060Y-83327722D01*
X60457662Y-83295377D01*
X60445672Y-83274610D01*
X60439465Y-83251448D01*
X60426066Y-83219099D01*
X60412433Y-83150563D01*
X60405133Y-83123316D01*
X60405133Y-83113858D01*
X60403130Y-83103788D01*
X60403130Y-82986211D01*
X60405133Y-82976140D01*
X60405133Y-82966684D01*
X60412433Y-82939439D01*
X60426066Y-82870900D01*
X60439466Y-82838548D01*
X60445672Y-82815390D01*
X60457660Y-82794624D01*
X60471060Y-82762277D01*
X60509881Y-82704175D01*
X60523988Y-82679743D01*
X60530675Y-82673055D01*
X60536380Y-82664518D01*
X60619518Y-82581380D01*
X60628055Y-82575675D01*
X60634743Y-82568988D01*
X60659175Y-82554881D01*
X60717277Y-82516060D01*
X60749624Y-82502660D01*
X60770390Y-82490672D01*
X60793548Y-82484466D01*
X60825900Y-82471066D01*
X60894440Y-82457432D01*
X60921684Y-82450133D01*
X60935787Y-82449208D01*
X60942422Y-82447889D01*
X60996313Y-82445241D01*
X61000000Y-82445000D01*
X62100000Y-82445000D01*
X62103686Y-82445241D01*
G37*
G36*
X100990549Y-80653122D02*
G01*
X101182686Y-80715551D01*
X101362691Y-80807268D01*
X101526132Y-80926015D01*
X101668985Y-81068868D01*
X101787732Y-81232309D01*
X101879449Y-81412314D01*
X101941878Y-81604451D01*
X101973481Y-81803988D01*
X101973481Y-82006012D01*
X101941878Y-82205549D01*
X101879449Y-82397686D01*
X101787732Y-82577691D01*
X101668985Y-82741132D01*
X101526132Y-82883985D01*
X101362691Y-83002732D01*
X101182686Y-83094449D01*
X100990549Y-83156878D01*
X100791012Y-83188481D01*
X100588988Y-83188481D01*
X100389451Y-83156878D01*
X100197314Y-83094449D01*
X100017309Y-83002732D01*
X99853868Y-82883985D01*
X99711015Y-82741132D01*
X99592268Y-82577691D01*
X99500551Y-82397686D01*
X99438122Y-82205549D01*
X99406519Y-82006012D01*
X99406519Y-81803988D01*
X99438122Y-81604451D01*
X99500551Y-81412314D01*
X99592268Y-81232309D01*
X99711015Y-81068868D01*
X99853868Y-80926015D01*
X100017309Y-80807268D01*
X100197314Y-80715551D01*
X100389451Y-80653122D01*
X100588988Y-80621519D01*
X100791012Y-80621519D01*
X100990549Y-80653122D01*
G37*
G36*
X104165549Y-80653122D02*
G01*
X104357686Y-80715551D01*
X104537691Y-80807268D01*
X104701132Y-80926015D01*
X104843985Y-81068868D01*
X104962732Y-81232309D01*
X105054449Y-81412314D01*
X105116878Y-81604451D01*
X105148481Y-81803988D01*
X105148481Y-82006012D01*
X105116878Y-82205549D01*
X105054449Y-82397686D01*
X104962732Y-82577691D01*
X104843985Y-82741132D01*
X104701132Y-82883985D01*
X104537691Y-83002732D01*
X104357686Y-83094449D01*
X104165549Y-83156878D01*
X103966012Y-83188481D01*
X103763988Y-83188481D01*
X103564451Y-83156878D01*
X103372314Y-83094449D01*
X103192309Y-83002732D01*
X103028868Y-82883985D01*
X102886015Y-82741132D01*
X102767268Y-82577691D01*
X102675551Y-82397686D01*
X102613122Y-82205549D01*
X102581519Y-82006012D01*
X102581519Y-81803988D01*
X102613122Y-81604451D01*
X102675551Y-81412314D01*
X102767268Y-81232309D01*
X102886015Y-81068868D01*
X103028868Y-80926015D01*
X103192309Y-80807268D01*
X103372314Y-80715551D01*
X103564451Y-80653122D01*
X103763988Y-80621519D01*
X103966012Y-80621519D01*
X104165549Y-80653122D01*
G37*
G36*
X61212640Y-81222351D02*
G01*
X61308724Y-81277825D01*
X61387175Y-81356276D01*
X61442649Y-81452360D01*
X61471364Y-81559526D01*
X61471364Y-81670474D01*
X61442649Y-81777640D01*
X61387175Y-81873724D01*
X61308724Y-81952175D01*
X61212640Y-82007649D01*
X61105474Y-82036364D01*
X60994526Y-82036364D01*
X60887360Y-82007649D01*
X60791276Y-81952175D01*
X60712825Y-81873724D01*
X60657351Y-81777640D01*
X60628636Y-81670474D01*
X60628636Y-81559526D01*
X60657351Y-81452360D01*
X60712825Y-81356276D01*
X60791276Y-81277825D01*
X60887360Y-81222351D01*
X60994526Y-81193636D01*
X61105474Y-81193636D01*
X61212640Y-81222351D01*
G37*
G36*
X105838312Y-79790793D02*
G01*
X105847702Y-79790793D01*
X105874752Y-79798041D01*
X105942734Y-79811563D01*
X105974827Y-79824856D01*
X105997811Y-79831015D01*
X106018417Y-79842912D01*
X106050507Y-79856204D01*
X106108130Y-79894707D01*
X106132396Y-79908717D01*
X106139039Y-79915360D01*
X106147499Y-79921013D01*
X106229986Y-80003500D01*
X106235638Y-80011959D01*
X106242283Y-80018604D01*
X106256294Y-80042872D01*
X106294795Y-80100492D01*
X106308085Y-80132578D01*
X106319985Y-80153189D01*
X106326144Y-80176176D01*
X106339436Y-80208265D01*
X106352958Y-80276244D01*
X106360207Y-80303298D01*
X106360207Y-80312687D01*
X106362193Y-80322672D01*
X106362193Y-80439327D01*
X106360207Y-80449311D01*
X106360207Y-80458702D01*
X106352957Y-80485758D01*
X106339436Y-80553734D01*
X106326145Y-80585820D01*
X106319985Y-80608811D01*
X106308084Y-80629423D01*
X106294795Y-80661507D01*
X106256298Y-80719119D01*
X106242283Y-80743396D01*
X106235636Y-80750042D01*
X106229986Y-80758499D01*
X106147499Y-80840986D01*
X106139042Y-80846636D01*
X106132396Y-80853283D01*
X106108119Y-80867298D01*
X106050507Y-80905795D01*
X106018423Y-80919084D01*
X105997811Y-80930985D01*
X105974820Y-80937145D01*
X105942734Y-80950436D01*
X105874758Y-80963957D01*
X105847702Y-80971207D01*
X105838311Y-80971207D01*
X105828327Y-80973193D01*
X105711673Y-80973193D01*
X105701689Y-80971207D01*
X105692298Y-80971207D01*
X105665243Y-80963957D01*
X105597265Y-80950436D01*
X105565176Y-80937144D01*
X105542189Y-80930985D01*
X105521578Y-80919085D01*
X105489492Y-80905795D01*
X105431872Y-80867294D01*
X105407604Y-80853283D01*
X105400959Y-80846638D01*
X105392500Y-80840986D01*
X105310013Y-80758499D01*
X105304360Y-80750039D01*
X105297717Y-80743396D01*
X105283707Y-80719130D01*
X105245204Y-80661507D01*
X105231912Y-80629417D01*
X105220015Y-80608811D01*
X105213856Y-80585827D01*
X105200563Y-80553734D01*
X105187041Y-80485752D01*
X105179793Y-80458702D01*
X105179793Y-80449311D01*
X105177807Y-80439327D01*
X105177807Y-80322672D01*
X105179793Y-80312687D01*
X105179793Y-80303298D01*
X105187040Y-80276250D01*
X105200563Y-80208265D01*
X105213857Y-80176169D01*
X105220015Y-80153189D01*
X105231910Y-80132584D01*
X105245204Y-80100492D01*
X105283711Y-80042861D01*
X105297717Y-80018604D01*
X105304358Y-80011962D01*
X105310013Y-80003500D01*
X105392500Y-79921013D01*
X105400962Y-79915358D01*
X105407604Y-79908717D01*
X105431861Y-79894711D01*
X105489492Y-79856204D01*
X105521584Y-79842910D01*
X105542189Y-79831015D01*
X105565169Y-79824857D01*
X105597265Y-79811563D01*
X105665248Y-79798040D01*
X105692298Y-79790793D01*
X105701688Y-79790793D01*
X105711673Y-79788807D01*
X105828327Y-79788807D01*
X105838312Y-79790793D01*
G37*
G36*
X100758312Y-78774793D02*
G01*
X100767702Y-78774793D01*
X100794752Y-78782041D01*
X100862734Y-78795563D01*
X100894827Y-78808856D01*
X100917811Y-78815015D01*
X100938417Y-78826912D01*
X100970507Y-78840204D01*
X101028130Y-78878707D01*
X101052396Y-78892717D01*
X101059039Y-78899360D01*
X101067499Y-78905013D01*
X101149986Y-78987500D01*
X101155638Y-78995959D01*
X101162283Y-79002604D01*
X101176294Y-79026872D01*
X101214795Y-79084492D01*
X101228085Y-79116578D01*
X101239985Y-79137189D01*
X101246144Y-79160176D01*
X101259436Y-79192265D01*
X101272958Y-79260244D01*
X101280207Y-79287298D01*
X101280207Y-79296687D01*
X101282193Y-79306672D01*
X101282193Y-79423327D01*
X101280207Y-79433311D01*
X101280207Y-79442702D01*
X101272957Y-79469758D01*
X101259436Y-79537734D01*
X101246145Y-79569820D01*
X101239985Y-79592811D01*
X101228084Y-79613423D01*
X101214795Y-79645507D01*
X101176298Y-79703119D01*
X101162283Y-79727396D01*
X101155636Y-79734042D01*
X101149986Y-79742499D01*
X101067499Y-79824986D01*
X101059042Y-79830636D01*
X101052396Y-79837283D01*
X101028119Y-79851298D01*
X100970507Y-79889795D01*
X100938423Y-79903084D01*
X100917811Y-79914985D01*
X100894820Y-79921145D01*
X100862734Y-79934436D01*
X100794758Y-79947957D01*
X100767702Y-79955207D01*
X100758311Y-79955207D01*
X100748327Y-79957193D01*
X100631673Y-79957193D01*
X100621689Y-79955207D01*
X100612298Y-79955207D01*
X100585243Y-79947957D01*
X100517265Y-79934436D01*
X100485176Y-79921144D01*
X100462189Y-79914985D01*
X100441578Y-79903085D01*
X100409492Y-79889795D01*
X100351872Y-79851294D01*
X100327604Y-79837283D01*
X100320959Y-79830638D01*
X100312500Y-79824986D01*
X100230013Y-79742499D01*
X100224360Y-79734039D01*
X100217717Y-79727396D01*
X100203707Y-79703130D01*
X100165204Y-79645507D01*
X100151912Y-79613417D01*
X100140015Y-79592811D01*
X100133856Y-79569827D01*
X100120563Y-79537734D01*
X100107041Y-79469752D01*
X100099793Y-79442702D01*
X100099793Y-79433311D01*
X100097807Y-79423327D01*
X100097807Y-79306672D01*
X100099793Y-79296687D01*
X100099793Y-79287298D01*
X100107040Y-79260250D01*
X100120563Y-79192265D01*
X100133857Y-79160169D01*
X100140015Y-79137189D01*
X100151910Y-79116584D01*
X100165204Y-79084492D01*
X100203711Y-79026861D01*
X100217717Y-79002604D01*
X100224358Y-78995962D01*
X100230013Y-78987500D01*
X100312500Y-78905013D01*
X100320962Y-78899358D01*
X100327604Y-78892717D01*
X100351861Y-78878711D01*
X100409492Y-78840204D01*
X100441584Y-78826910D01*
X100462189Y-78815015D01*
X100485169Y-78808857D01*
X100517265Y-78795563D01*
X100585248Y-78782040D01*
X100612298Y-78774793D01*
X100621688Y-78774793D01*
X100631673Y-78772807D01*
X100748327Y-78772807D01*
X100758312Y-78774793D01*
G37*
G36*
X105838312Y-77758793D02*
G01*
X105847702Y-77758793D01*
X105874752Y-77766041D01*
X105942734Y-77779563D01*
X105974827Y-77792856D01*
X105997811Y-77799015D01*
X106018417Y-77810912D01*
X106050507Y-77824204D01*
X106108130Y-77862707D01*
X106132396Y-77876717D01*
X106139039Y-77883360D01*
X106147499Y-77889013D01*
X106229986Y-77971500D01*
X106235638Y-77979959D01*
X106242283Y-77986604D01*
X106256294Y-78010872D01*
X106294795Y-78068492D01*
X106308085Y-78100578D01*
X106319985Y-78121189D01*
X106326144Y-78144176D01*
X106339436Y-78176265D01*
X106352958Y-78244244D01*
X106360207Y-78271298D01*
X106360207Y-78280687D01*
X106362193Y-78290672D01*
X106362193Y-78407327D01*
X106360207Y-78417311D01*
X106360207Y-78426702D01*
X106352957Y-78453758D01*
X106339436Y-78521734D01*
X106326145Y-78553820D01*
X106319985Y-78576811D01*
X106308084Y-78597423D01*
X106294795Y-78629507D01*
X106256298Y-78687119D01*
X106242283Y-78711396D01*
X106235636Y-78718042D01*
X106229986Y-78726499D01*
X106147499Y-78808986D01*
X106139042Y-78814636D01*
X106132396Y-78821283D01*
X106108119Y-78835298D01*
X106050507Y-78873795D01*
X106018423Y-78887084D01*
X105997811Y-78898985D01*
X105974820Y-78905145D01*
X105942734Y-78918436D01*
X105874758Y-78931957D01*
X105847702Y-78939207D01*
X105838311Y-78939207D01*
X105828327Y-78941193D01*
X105711673Y-78941193D01*
X105701689Y-78939207D01*
X105692298Y-78939207D01*
X105665243Y-78931957D01*
X105597265Y-78918436D01*
X105565176Y-78905144D01*
X105542189Y-78898985D01*
X105521578Y-78887085D01*
X105489492Y-78873795D01*
X105431872Y-78835294D01*
X105407604Y-78821283D01*
X105400959Y-78814638D01*
X105392500Y-78808986D01*
X105310013Y-78726499D01*
X105304360Y-78718039D01*
X105297717Y-78711396D01*
X105283707Y-78687130D01*
X105245204Y-78629507D01*
X105231912Y-78597417D01*
X105220015Y-78576811D01*
X105213856Y-78553827D01*
X105200563Y-78521734D01*
X105187041Y-78453752D01*
X105179793Y-78426702D01*
X105179793Y-78417311D01*
X105177807Y-78407327D01*
X105177807Y-78290672D01*
X105179793Y-78280687D01*
X105179793Y-78271298D01*
X105187040Y-78244250D01*
X105200563Y-78176265D01*
X105213857Y-78144169D01*
X105220015Y-78121189D01*
X105231910Y-78100584D01*
X105245204Y-78068492D01*
X105283711Y-78010861D01*
X105297717Y-77986604D01*
X105304358Y-77979962D01*
X105310013Y-77971500D01*
X105392500Y-77889013D01*
X105400962Y-77883358D01*
X105407604Y-77876717D01*
X105431861Y-77862711D01*
X105489492Y-77824204D01*
X105521584Y-77810910D01*
X105542189Y-77799015D01*
X105565169Y-77792857D01*
X105597265Y-77779563D01*
X105665248Y-77766040D01*
X105692298Y-77758793D01*
X105701688Y-77758793D01*
X105711673Y-77756807D01*
X105828327Y-77756807D01*
X105838312Y-77758793D01*
G37*
G36*
X100990549Y-75573122D02*
G01*
X101182686Y-75635551D01*
X101362691Y-75727268D01*
X101526132Y-75846015D01*
X101668985Y-75988868D01*
X101787732Y-76152309D01*
X101879449Y-76332314D01*
X101941878Y-76524451D01*
X101973481Y-76723988D01*
X101973481Y-76926012D01*
X101941878Y-77125549D01*
X101879449Y-77317686D01*
X101787732Y-77497691D01*
X101668985Y-77661132D01*
X101526132Y-77803985D01*
X101362691Y-77922732D01*
X101182686Y-78014449D01*
X100990549Y-78076878D01*
X100791012Y-78108481D01*
X100588988Y-78108481D01*
X100389451Y-78076878D01*
X100197314Y-78014449D01*
X100017309Y-77922732D01*
X99853868Y-77803985D01*
X99711015Y-77661132D01*
X99592268Y-77497691D01*
X99500551Y-77317686D01*
X99438122Y-77125549D01*
X99406519Y-76926012D01*
X99406519Y-76723988D01*
X99438122Y-76524451D01*
X99500551Y-76332314D01*
X99592268Y-76152309D01*
X99711015Y-75988868D01*
X99853868Y-75846015D01*
X100017309Y-75727268D01*
X100197314Y-75635551D01*
X100389451Y-75573122D01*
X100588988Y-75541519D01*
X100791012Y-75541519D01*
X100990549Y-75573122D01*
G37*
G36*
X104165549Y-75573122D02*
G01*
X104357686Y-75635551D01*
X104537691Y-75727268D01*
X104701132Y-75846015D01*
X104843985Y-75988868D01*
X104962732Y-76152309D01*
X105054449Y-76332314D01*
X105116878Y-76524451D01*
X105148481Y-76723988D01*
X105148481Y-76926012D01*
X105116878Y-77125549D01*
X105054449Y-77317686D01*
X104962732Y-77497691D01*
X104843985Y-77661132D01*
X104701132Y-77803985D01*
X104537691Y-77922732D01*
X104357686Y-78014449D01*
X104165549Y-78076878D01*
X103966012Y-78108481D01*
X103763988Y-78108481D01*
X103564451Y-78076878D01*
X103372314Y-78014449D01*
X103192309Y-77922732D01*
X103028868Y-77803985D01*
X102886015Y-77661132D01*
X102767268Y-77497691D01*
X102675551Y-77317686D01*
X102613122Y-77125549D01*
X102581519Y-76926012D01*
X102581519Y-76723988D01*
X102613122Y-76524451D01*
X102675551Y-76332314D01*
X102767268Y-76152309D01*
X102886015Y-75988868D01*
X103028868Y-75846015D01*
X103192309Y-75727268D01*
X103372314Y-75635551D01*
X103564451Y-75573122D01*
X103763988Y-75541519D01*
X103966012Y-75541519D01*
X104165549Y-75573122D01*
G37*
G36*
X61212640Y-75442351D02*
G01*
X61308724Y-75497825D01*
X61387175Y-75576276D01*
X61442649Y-75672360D01*
X61471364Y-75779526D01*
X61471364Y-75890474D01*
X61442649Y-75997640D01*
X61387175Y-76093724D01*
X61308724Y-76172175D01*
X61212640Y-76227649D01*
X61105474Y-76256364D01*
X60994526Y-76256364D01*
X60887360Y-76227649D01*
X60791276Y-76172175D01*
X60712825Y-76093724D01*
X60657351Y-75997640D01*
X60628636Y-75890474D01*
X60628636Y-75779526D01*
X60657351Y-75672360D01*
X60712825Y-75576276D01*
X60791276Y-75497825D01*
X60887360Y-75442351D01*
X60994526Y-75413636D01*
X61105474Y-75413636D01*
X61212640Y-75442351D01*
G37*
G36*
X57773686Y-73805241D02*
G01*
X57827577Y-73807889D01*
X57834210Y-73809208D01*
X57848316Y-73810133D01*
X57875562Y-73817433D01*
X57944099Y-73831066D01*
X57976448Y-73844465D01*
X57999610Y-73850672D01*
X58020377Y-73862662D01*
X58052722Y-73876060D01*
X58110816Y-73914877D01*
X58135257Y-73928988D01*
X58141946Y-73935677D01*
X58150481Y-73941380D01*
X58233619Y-74024518D01*
X58239321Y-74033052D01*
X58246012Y-74039743D01*
X58260124Y-74064186D01*
X58298939Y-74122277D01*
X58312335Y-74154618D01*
X58324328Y-74175390D01*
X58330535Y-74198555D01*
X58343933Y-74230900D01*
X58357565Y-74299433D01*
X58364867Y-74326684D01*
X58364867Y-74336141D01*
X58366870Y-74346211D01*
X58366870Y-74463788D01*
X58364867Y-74473857D01*
X58364867Y-74483316D01*
X58357564Y-74510569D01*
X58343933Y-74579099D01*
X58330535Y-74611441D01*
X58324328Y-74634610D01*
X58312334Y-74655383D01*
X58298939Y-74687722D01*
X58260128Y-74745805D01*
X58246012Y-74770257D01*
X58239319Y-74776949D01*
X58233619Y-74785481D01*
X58150481Y-74868619D01*
X58141949Y-74874319D01*
X58135257Y-74881012D01*
X58110805Y-74895128D01*
X58052722Y-74933939D01*
X58020383Y-74947334D01*
X57999610Y-74959328D01*
X57976441Y-74965535D01*
X57944099Y-74978933D01*
X57875576Y-74992562D01*
X57848316Y-74999867D01*
X57834203Y-75000791D01*
X57827577Y-75002110D01*
X57773691Y-75004758D01*
X57770000Y-75005000D01*
X57768768Y-75005000D01*
X56971232Y-75005000D01*
X56970000Y-75005000D01*
X56966308Y-75004758D01*
X56912422Y-75002110D01*
X56905795Y-75000791D01*
X56891684Y-74999867D01*
X56864426Y-74992563D01*
X56795900Y-74978933D01*
X56763555Y-74965535D01*
X56740390Y-74959328D01*
X56719618Y-74947335D01*
X56687277Y-74933939D01*
X56629186Y-74895124D01*
X56604743Y-74881012D01*
X56598052Y-74874321D01*
X56589518Y-74868619D01*
X56506380Y-74785481D01*
X56500677Y-74776946D01*
X56493988Y-74770257D01*
X56479877Y-74745816D01*
X56441060Y-74687722D01*
X56427662Y-74655377D01*
X56415672Y-74634610D01*
X56409465Y-74611448D01*
X56396066Y-74579099D01*
X56382433Y-74510563D01*
X56375133Y-74483316D01*
X56375133Y-74473858D01*
X56373130Y-74463788D01*
X56373130Y-74346211D01*
X56375133Y-74336140D01*
X56375133Y-74326684D01*
X56382433Y-74299439D01*
X56396066Y-74230900D01*
X56409466Y-74198548D01*
X56415672Y-74175390D01*
X56427660Y-74154624D01*
X56441060Y-74122277D01*
X56479881Y-74064175D01*
X56493988Y-74039743D01*
X56500675Y-74033055D01*
X56506380Y-74024518D01*
X56589518Y-73941380D01*
X56598055Y-73935675D01*
X56604743Y-73928988D01*
X56629175Y-73914881D01*
X56687277Y-73876060D01*
X56719624Y-73862660D01*
X56740390Y-73850672D01*
X56763548Y-73844466D01*
X56795900Y-73831066D01*
X56864440Y-73817432D01*
X56891684Y-73810133D01*
X56905787Y-73809208D01*
X56912422Y-73807889D01*
X56966313Y-73805241D01*
X56970000Y-73805000D01*
X57770000Y-73805000D01*
X57773686Y-73805241D01*
G37*
G36*
X62103686Y-73805241D02*
G01*
X62157577Y-73807889D01*
X62164210Y-73809208D01*
X62178316Y-73810133D01*
X62205562Y-73817433D01*
X62274099Y-73831066D01*
X62306448Y-73844465D01*
X62329610Y-73850672D01*
X62350377Y-73862662D01*
X62382722Y-73876060D01*
X62440816Y-73914877D01*
X62465257Y-73928988D01*
X62471946Y-73935677D01*
X62480481Y-73941380D01*
X62563619Y-74024518D01*
X62569321Y-74033052D01*
X62576012Y-74039743D01*
X62590124Y-74064186D01*
X62628939Y-74122277D01*
X62642335Y-74154618D01*
X62654328Y-74175390D01*
X62660535Y-74198555D01*
X62673933Y-74230900D01*
X62687565Y-74299433D01*
X62694867Y-74326684D01*
X62694867Y-74336141D01*
X62696870Y-74346211D01*
X62696870Y-74463788D01*
X62694867Y-74473857D01*
X62694867Y-74483316D01*
X62687564Y-74510569D01*
X62673933Y-74579099D01*
X62660535Y-74611441D01*
X62654328Y-74634610D01*
X62642334Y-74655383D01*
X62628939Y-74687722D01*
X62590128Y-74745805D01*
X62576012Y-74770257D01*
X62569319Y-74776949D01*
X62563619Y-74785481D01*
X62480481Y-74868619D01*
X62471949Y-74874319D01*
X62465257Y-74881012D01*
X62440805Y-74895128D01*
X62382722Y-74933939D01*
X62350383Y-74947334D01*
X62329610Y-74959328D01*
X62306441Y-74965535D01*
X62274099Y-74978933D01*
X62205576Y-74992562D01*
X62178316Y-74999867D01*
X62164203Y-75000791D01*
X62157577Y-75002110D01*
X62103691Y-75004758D01*
X62100000Y-75005000D01*
X62098768Y-75005000D01*
X61001232Y-75005000D01*
X61000000Y-75005000D01*
X60996308Y-75004758D01*
X60942422Y-75002110D01*
X60935795Y-75000791D01*
X60921684Y-74999867D01*
X60894426Y-74992563D01*
X60825900Y-74978933D01*
X60793555Y-74965535D01*
X60770390Y-74959328D01*
X60749618Y-74947335D01*
X60717277Y-74933939D01*
X60659186Y-74895124D01*
X60634743Y-74881012D01*
X60628052Y-74874321D01*
X60619518Y-74868619D01*
X60536380Y-74785481D01*
X60530677Y-74776946D01*
X60523988Y-74770257D01*
X60509877Y-74745816D01*
X60471060Y-74687722D01*
X60457662Y-74655377D01*
X60445672Y-74634610D01*
X60439465Y-74611448D01*
X60426066Y-74579099D01*
X60412433Y-74510563D01*
X60405133Y-74483316D01*
X60405133Y-74473858D01*
X60403130Y-74463788D01*
X60403130Y-74346211D01*
X60405133Y-74336140D01*
X60405133Y-74326684D01*
X60412433Y-74299439D01*
X60426066Y-74230900D01*
X60439466Y-74198548D01*
X60445672Y-74175390D01*
X60457660Y-74154624D01*
X60471060Y-74122277D01*
X60509881Y-74064175D01*
X60523988Y-74039743D01*
X60530675Y-74033055D01*
X60536380Y-74024518D01*
X60619518Y-73941380D01*
X60628055Y-73935675D01*
X60634743Y-73928988D01*
X60659175Y-73914881D01*
X60717277Y-73876060D01*
X60749624Y-73862660D01*
X60770390Y-73850672D01*
X60793548Y-73844466D01*
X60825900Y-73831066D01*
X60894440Y-73817432D01*
X60921684Y-73810133D01*
X60935787Y-73809208D01*
X60942422Y-73807889D01*
X60996313Y-73805241D01*
X61000000Y-73805000D01*
X62100000Y-73805000D01*
X62103686Y-73805241D01*
G37*
G36*
X105234211Y-65735718D02*
G01*
X105551835Y-65798897D01*
X105861737Y-65892905D01*
X106160932Y-66016835D01*
X106446539Y-66169496D01*
X106715808Y-66349415D01*
X106966145Y-66554861D01*
X107195139Y-66783855D01*
X107400585Y-67034192D01*
X107580504Y-67303461D01*
X107733165Y-67589068D01*
X107857095Y-67888263D01*
X107951103Y-68198165D01*
X108014282Y-68515789D01*
X108046025Y-68838077D01*
X108046025Y-69161923D01*
X108014282Y-69484211D01*
X107951103Y-69801835D01*
X107857095Y-70111737D01*
X107733165Y-70410932D01*
X107580504Y-70696539D01*
X107400585Y-70965808D01*
X107195139Y-71216145D01*
X106966145Y-71445139D01*
X106715808Y-71650585D01*
X106446539Y-71830504D01*
X106160932Y-71983165D01*
X105861737Y-72107095D01*
X105551835Y-72201103D01*
X105234211Y-72264282D01*
X104911923Y-72296025D01*
X104588077Y-72296025D01*
X104265789Y-72264282D01*
X103948165Y-72201103D01*
X103638263Y-72107095D01*
X103339068Y-71983165D01*
X103053461Y-71830504D01*
X102784192Y-71650585D01*
X102533855Y-71445139D01*
X102304861Y-71216145D01*
X102099415Y-70965808D01*
X101919496Y-70696539D01*
X101766835Y-70410932D01*
X101642905Y-70111737D01*
X101548897Y-69801835D01*
X101485718Y-69484211D01*
X101453975Y-69161923D01*
X101453975Y-68838077D01*
X101485718Y-68515789D01*
X101548897Y-68198165D01*
X101642905Y-67888263D01*
X101766835Y-67589068D01*
X101919496Y-67303461D01*
X102099415Y-67034192D01*
X102304861Y-66783855D01*
X102533855Y-66554861D01*
X102784192Y-66349415D01*
X103053461Y-66169496D01*
X103339068Y-66016835D01*
X103638263Y-65892905D01*
X103948165Y-65798897D01*
X104265789Y-65735718D01*
X104588077Y-65703975D01*
X104911923Y-65703975D01*
X105234211Y-65735718D01*
G37*
G36*
X59984211Y-65682774D02*
G01*
X60301835Y-65745953D01*
X60611737Y-65839961D01*
X60910932Y-65963891D01*
X61196539Y-66116552D01*
X61465808Y-66296471D01*
X61716145Y-66501917D01*
X61945139Y-66730911D01*
X62150585Y-66981248D01*
X62330504Y-67250517D01*
X62483165Y-67536124D01*
X62607095Y-67835319D01*
X62701103Y-68145221D01*
X62764282Y-68462845D01*
X62796025Y-68785133D01*
X62796025Y-69108979D01*
X62764282Y-69431267D01*
X62701103Y-69748891D01*
X62607095Y-70058793D01*
X62483165Y-70357988D01*
X62330504Y-70643595D01*
X62150585Y-70912864D01*
X61945139Y-71163201D01*
X61716145Y-71392195D01*
X61465808Y-71597641D01*
X61196539Y-71777560D01*
X60910932Y-71930221D01*
X60611737Y-72054151D01*
X60301835Y-72148159D01*
X59984211Y-72211338D01*
X59661923Y-72243081D01*
X59338077Y-72243081D01*
X59015789Y-72211338D01*
X58698165Y-72148159D01*
X58388263Y-72054151D01*
X58089068Y-71930221D01*
X57803461Y-71777560D01*
X57534192Y-71597641D01*
X57283855Y-71392195D01*
X57054861Y-71163201D01*
X56849415Y-70912864D01*
X56669496Y-70643595D01*
X56516835Y-70357988D01*
X56392905Y-70058793D01*
X56298897Y-69748891D01*
X56235718Y-69431267D01*
X56203975Y-69108979D01*
X56203975Y-68785133D01*
X56235718Y-68462845D01*
X56298897Y-68145221D01*
X56392905Y-67835319D01*
X56516835Y-67536124D01*
X56669496Y-67250517D01*
X56849415Y-66981248D01*
X57054861Y-66730911D01*
X57283855Y-66501917D01*
X57534192Y-66296471D01*
X57803461Y-66116552D01*
X58089068Y-65963891D01*
X58388263Y-65839961D01*
X58698165Y-65745953D01*
X59015789Y-65682774D01*
X59338077Y-65651031D01*
X59661923Y-65651031D01*
X59984211Y-65682774D01*
G37*
M02*
