%TF.GenerationSoftware,KiCad,Pcbnew,10.0.4*%
%TF.CreationDate,2026-08-28T23:37:23+05:30*%
%TF.ProjectId,MSPMO,4d53504d-4f2e-46b6-9963-61645f706362,rev?*%
%TF.SameCoordinates,Original*%
%TF.FileFunction,Paste,Top*%
%TF.FilePolarity,Positive*%
%FSLAX46Y46*%
G04 Gerber Fmt 4.6, Leading zero omitted, Abs format (unit mm)*
G04 Created by KiCad (PCBNEW 10.0.4) date 2026-08-28 23:37:23*
%MOMM*%
%LPD*%
G01*
G04 APERTURE LIST*
G04 Aperture macros list*
%AMRoundRect*
0 Rectangle with rounded corners*
0 $1 Rounding radius*
0 $2 $3 $4 $5 $6 $7 $8 $9 X,Y pos of 4 corners*
0 Add a 4 corners polygon primitive as box body*
4,1,4,$2,$3,$4,$5,$6,$7,$8,$9,$2,$3,0*
0 Add four circle primitives for the rounded corners*
1,1,$1+$1,$2,$3*
1,1,$1+$1,$4,$5*
1,1,$1+$1,$6,$7*
1,1,$1+$1,$8,$9*
0 Add four rect primitives between the rounded corners*
20,1,$1+$1,$2,$3,$4,$5,0*
20,1,$1+$1,$4,$5,$6,$7,0*
20,1,$1+$1,$6,$7,$8,$9,0*
20,1,$1+$1,$8,$9,$2,$3,0*%
G04 Aperture macros list end*
%ADD10RoundRect,0.225000X0.225000X0.250000X-0.225000X0.250000X-0.225000X-0.250000X0.225000X-0.250000X0*%
%ADD11RoundRect,0.250000X-0.475000X0.250000X-0.475000X-0.250000X0.475000X-0.250000X0.475000X0.250000X0*%
%ADD12RoundRect,0.225000X0.250000X-0.225000X0.250000X0.225000X-0.250000X0.225000X-0.250000X-0.225000X0*%
%ADD13RoundRect,0.200000X0.200000X0.275000X-0.200000X0.275000X-0.200000X-0.275000X0.200000X-0.275000X0*%
%ADD14RoundRect,0.200000X-0.200000X-0.275000X0.200000X-0.275000X0.200000X0.275000X-0.200000X0.275000X0*%
%ADD15RoundRect,0.225000X-0.250000X0.225000X-0.250000X-0.225000X0.250000X-0.225000X0.250000X0.225000X0*%
%ADD16RoundRect,0.150000X-0.350000X0.150000X-0.350000X-0.150000X0.350000X-0.150000X0.350000X0.150000X0*%
%ADD17RoundRect,0.075000X-0.500000X0.075000X-0.500000X-0.075000X0.500000X-0.075000X0.500000X0.075000X0*%
%ADD18O,2.100000X1.000000*%
%ADD19O,1.800000X1.000000*%
%ADD20RoundRect,0.200000X-0.275000X0.200000X-0.275000X-0.200000X0.275000X-0.200000X0.275000X0.200000X0*%
%ADD21RoundRect,0.050000X-0.112500X-0.050000X0.112500X-0.050000X0.112500X0.050000X-0.112500X0.050000X0*%
%ADD22RoundRect,0.050000X-0.050000X-0.112500X0.050000X-0.112500X0.050000X0.112500X-0.050000X0.112500X0*%
%ADD23RoundRect,0.225000X-0.225000X-0.250000X0.225000X-0.250000X0.225000X0.250000X-0.225000X0.250000X0*%
%ADD24RoundRect,0.087500X-0.662500X-0.087500X0.662500X-0.087500X0.662500X0.087500X-0.662500X0.087500X0*%
%ADD25RoundRect,0.150000X-0.512500X-0.150000X0.512500X-0.150000X0.512500X0.150000X-0.512500X0.150000X0*%
%ADD26RoundRect,0.250000X-0.450000X-0.350000X0.450000X-0.350000X0.450000X0.350000X-0.450000X0.350000X0*%
%ADD27RoundRect,0.075000X-0.662500X-0.075000X0.662500X-0.075000X0.662500X0.075000X-0.662500X0.075000X0*%
%ADD28RoundRect,0.075000X-0.075000X-0.662500X0.075000X-0.662500X0.075000X0.662500X-0.075000X0.662500X0*%
G04 APERTURE END LIST*
D10*
%TO.C,C12*%
X85775000Y-73750000D03*
X84225000Y-73750000D03*
%TD*%
D11*
%TO.C,C3*%
X71500000Y-69500000D03*
X71500000Y-71400000D03*
%TD*%
D12*
%TO.C,C8*%
X77750000Y-87775000D03*
X77750000Y-86225000D03*
%TD*%
D13*
%TO.C,R5*%
X89825000Y-72250000D03*
X88175000Y-72250000D03*
%TD*%
D11*
%TO.C,C11*%
X82000000Y-78550000D03*
X82000000Y-80450000D03*
%TD*%
D14*
%TO.C,R7*%
X85925000Y-87250000D03*
X87575000Y-87250000D03*
%TD*%
D15*
%TO.C,C9*%
X84000000Y-86200000D03*
X84000000Y-87750000D03*
%TD*%
D13*
%TO.C,R6*%
X90575000Y-87250000D03*
X88925000Y-87250000D03*
%TD*%
D10*
%TO.C,C7*%
X77450000Y-77000000D03*
X75900000Y-77000000D03*
%TD*%
D14*
%TO.C,R4*%
X80675000Y-82000000D03*
X82325000Y-82000000D03*
%TD*%
D12*
%TO.C,C2*%
X67675000Y-74775000D03*
X67675000Y-73225000D03*
%TD*%
D14*
%TO.C,R1*%
X66100000Y-76250000D03*
X67750000Y-76250000D03*
%TD*%
D11*
%TO.C,C5*%
X78000000Y-69550000D03*
X78000000Y-71450000D03*
%TD*%
D16*
%TO.C,J1*%
X62200000Y-75525000D03*
X62200000Y-76325000D03*
D17*
X62125000Y-77475000D03*
X62125000Y-78475000D03*
X62125000Y-78975000D03*
X62125000Y-79975000D03*
D16*
X62200000Y-81125000D03*
X62200000Y-81925000D03*
X62200000Y-81925000D03*
X62200000Y-81125000D03*
D17*
X62125000Y-80475000D03*
X62125000Y-79475000D03*
X62125000Y-77975000D03*
X62125000Y-76975000D03*
D16*
X62200000Y-76325000D03*
X62200000Y-75525000D03*
D18*
X61550000Y-74405000D03*
D19*
X57370000Y-74405000D03*
D18*
X61550000Y-83045000D03*
D19*
X57370000Y-83045000D03*
%TD*%
D20*
%TO.C,R8*%
X96500000Y-81350000D03*
X96500000Y-83000000D03*
%TD*%
D21*
%TO.C,U4*%
X87475000Y-89275000D03*
X87475000Y-89625000D03*
X87475000Y-89975000D03*
X87475000Y-90325000D03*
D22*
X87887500Y-90562500D03*
X88237500Y-90562500D03*
X88587500Y-90562500D03*
D21*
X89000000Y-90325000D03*
X89000000Y-89975000D03*
X89000000Y-89625000D03*
X89000000Y-89275000D03*
D22*
X88587500Y-89037500D03*
X88237500Y-89037500D03*
X87887500Y-89037500D03*
%TD*%
D12*
%TO.C,C13*%
X90750000Y-90750000D03*
X90750000Y-89200000D03*
%TD*%
%TO.C,C14*%
X98000000Y-82950000D03*
X98000000Y-81400000D03*
%TD*%
D23*
%TO.C,C6*%
X76275000Y-82000000D03*
X77825000Y-82000000D03*
%TD*%
D12*
%TO.C,C1*%
X66175000Y-74775000D03*
X66175000Y-73225000D03*
%TD*%
D24*
%TO.C,U2*%
X73250000Y-78475000D03*
X73250000Y-78975000D03*
X73250000Y-79475000D03*
X73250000Y-79975000D03*
X73250000Y-80475000D03*
X77450000Y-80475000D03*
X77450000Y-79975000D03*
X77450000Y-79475000D03*
X77450000Y-78975000D03*
X77450000Y-78475000D03*
%TD*%
D14*
%TO.C,R2*%
X62675000Y-85000000D03*
X64325000Y-85000000D03*
%TD*%
D25*
%TO.C,U1*%
X73612500Y-69800000D03*
X73612500Y-70750000D03*
X73612500Y-71700000D03*
X75887500Y-71700000D03*
X75887500Y-69800000D03*
%TD*%
D26*
%TO.C,X1*%
X79800000Y-87750000D03*
X82000000Y-87750000D03*
X82000000Y-86050000D03*
X79800000Y-86050000D03*
%TD*%
D25*
%TO.C,D1*%
X65862500Y-77800000D03*
X65862500Y-78750000D03*
X65862500Y-79700000D03*
X68137500Y-79700000D03*
X68137500Y-78750000D03*
X68137500Y-77800000D03*
%TD*%
D27*
%TO.C,U3*%
X84312500Y-77000000D03*
X84312500Y-77500000D03*
X84312500Y-78000000D03*
X84312500Y-78500000D03*
X84312500Y-79000000D03*
X84312500Y-79500000D03*
X84312500Y-80000000D03*
X84312500Y-80500000D03*
X84312500Y-81000000D03*
X84312500Y-81500000D03*
X84312500Y-82000000D03*
X84312500Y-82500000D03*
D28*
X85725000Y-83912500D03*
X86225000Y-83912500D03*
X86725000Y-83912500D03*
X87225000Y-83912500D03*
X87725000Y-83912500D03*
X88225000Y-83912500D03*
X88725000Y-83912500D03*
X89225000Y-83912500D03*
X89725000Y-83912500D03*
X90225000Y-83912500D03*
X90725000Y-83912500D03*
X91225000Y-83912500D03*
D27*
X92637500Y-82500000D03*
X92637500Y-82000000D03*
X92637500Y-81500000D03*
X92637500Y-81000000D03*
X92637500Y-80500000D03*
X92637500Y-80000000D03*
X92637500Y-79500000D03*
X92637500Y-79000000D03*
X92637500Y-78500000D03*
X92637500Y-78000000D03*
X92637500Y-77500000D03*
X92637500Y-77000000D03*
D28*
X91225000Y-75587500D03*
X90725000Y-75587500D03*
X90225000Y-75587500D03*
X89725000Y-75587500D03*
X89225000Y-75587500D03*
X88725000Y-75587500D03*
X88225000Y-75587500D03*
X87725000Y-75587500D03*
X87225000Y-75587500D03*
X86725000Y-75587500D03*
X86225000Y-75587500D03*
X85725000Y-75587500D03*
%TD*%
D14*
%TO.C,R3*%
X62675000Y-72500000D03*
X64325000Y-72500000D03*
%TD*%
D10*
%TO.C,C10*%
X89775000Y-73750000D03*
X88225000Y-73750000D03*
%TD*%
%TO.C,C4*%
X75525000Y-73250000D03*
X73975000Y-73250000D03*
%TD*%
M02*
