M48
; DRILL file KiCad 10.0.4 date 2026-08-28T23:37:28
; FORMAT={-:-/ absolute / metric / decimal}
; #@! TF.CreationDate,2026-08-28T23:37:28+05:30
; #@! TF.GenerationSoftware,Kicad,Pcbnew,10.0.4
; #@! TF.FileFunction,MixedPlating,1,2
FMAT,2
METRIC
; #@! TA.AperFunction,Plated,PTH,ViaDrill
T1C0.300
; #@! TA.AperFunction,Plated,PTH,ComponentDrill
T2C0.500
; #@! TA.AperFunction,Plated,PTH,ComponentDrill
T3C0.600
; #@! TA.AperFunction,Plated,PTH,ComponentDrill
T4C3.200
; #@! TA.AperFunction,NonPlated,NPTH,ComponentDrill
T5C0.650
; #@! TA.AperFunction,NonPlated,NPTH,ComponentDrill
T6C0.991
; #@! TA.AperFunction,NonPlated,NPTH,ComponentDrill
T7C2.375
%
G90
G05
T1
X56.35Y-81.35
X56.45Y-72.55
X56.45Y-85.55
X56.621Y-76.786
X58.445Y-78.725
X58.451Y-84.812
X60.183Y-79.206
X63.35Y-74.75
X63.5Y-77.375
X63.5Y-82.0
X63.525Y-79.6
X63.638Y-66.0
X63.75Y-87.65
X64.35Y-71.45
X64.5Y-78.75
X64.95Y-92.15
X65.825Y-85.477
X66.15Y-72.15
X66.844Y-81.084
X66.87Y-69.25
X67.288Y-89.055
X67.65Y-65.95
X67.65Y-72.15
X68.006Y-91.143
X68.982Y-81.585
X69.166Y-85.828
X70.15Y-91.75
X70.35Y-70.55
X71.5Y-72.55
X71.65Y-78.85
X71.85Y-66.005
X72.75Y-77.15
X72.85Y-73.25
X74.85Y-67.85
X74.85Y-70.75
X74.9Y-86.95
X75.0Y-85.25
X75.25Y-66.05
X75.45Y-83.55
X75.85Y-75.95
X76.4Y-88.9
X77.7Y-89.25
X77.75Y-85.15
X78.0Y-72.55
X78.5Y-81.25
X78.65Y-85.15
X78.709Y-76.539
X79.05Y-65.95
X79.25Y-71.45
X79.25Y-89.4
X79.611Y-75.111
X80.401Y-68.029
X80.65Y-80.95
X80.95Y-83.25
X81.0Y-89.4
X81.841Y-72.355
X82.0Y-88.95
X82.75Y-84.25
X83.15Y-66.25
X83.15Y-73.75
X83.205Y-89.894
X84.0Y-88.85
X84.05Y-76.05
X84.25Y-72.65
X84.25Y-74.85
X84.65Y-70.55
X85.75Y-80.0
X85.925Y-88.95
X85.95Y-81.85
X86.05Y-77.35
X86.45Y-65.917
X87.025Y-91.5
X87.15Y-72.25
X88.15Y-71.05
X88.25Y-89.75
X88.45Y-77.25
X88.65Y-81.25
X89.5Y-88.5
X90.15Y-65.85
X90.45Y-77.85
X90.744Y-79.662
X90.75Y-90.75
X90.95Y-68.45
X91.25Y-89.0
X92.05Y-70.85
X92.148Y-88.8
X92.45Y-73.45
X92.95Y-75.45
X93.45Y-65.95
X95.1Y-84.3
X95.15Y-82.3
X95.45Y-73.45
X96.0Y-86.1
X96.0Y-88.8
X96.35Y-67.05
X96.45Y-90.55
X96.55Y-84.55
X97.5Y-87.06
X97.934Y-92.088
X99.05Y-81.35
X99.45Y-66.45
X100.95Y-92.05
X101.05Y-72.85
X102.027Y-85.273
X105.246Y-74.286
X105.75Y-81.5
X106.15Y-84.85
X106.5Y-79.25
X106.75Y-83.05
X107.025Y-75.739
X107.351Y-73.108
X107.65Y-80.85
T2
X57.1Y-68.947
X57.2Y-89.0
X57.803Y-67.25
X57.803Y-70.644
X57.903Y-87.303
X57.903Y-90.697
X59.5Y-66.547
X59.5Y-71.347
X59.6Y-86.6
X59.6Y-91.4
X61.197Y-67.25
X61.197Y-70.644
X61.297Y-87.303
X61.297Y-90.697
X61.9Y-68.947
X62.0Y-89.0
X102.35Y-69.0
X102.35Y-89.0
X103.053Y-67.303
X103.053Y-70.697
X103.053Y-87.303
X103.053Y-90.697
X104.75Y-66.6
X104.75Y-71.4
X104.75Y-86.6
X104.75Y-91.4
X106.447Y-67.303
X106.447Y-70.697
X106.447Y-87.303
X106.447Y-90.697
X107.15Y-69.0
X107.15Y-89.0
T4
X59.5Y-68.947
X59.6Y-89.0
X104.75Y-69.0
X104.75Y-89.0
T5
X61.05Y-75.835
X61.05Y-81.615
T6
X100.69Y-79.365
X105.77Y-78.349
X105.77Y-80.381
T7
X100.69Y-76.825
X100.69Y-81.905
X103.865Y-76.825
X103.865Y-81.905
T3
X57.77Y-74.405G85X56.97Y-74.405
G05
X57.77Y-83.045G85X56.97Y-83.045
G05
X62.1Y-74.405G85X61.0Y-74.405
G05
X62.1Y-83.045G85X61.0Y-83.045
G05
M30
